<svg width="42" height="42" viewBox="0 0 42 42" fill="none" xmlns="http://www.w3.org/2000/svg">
<path d="M35.3555 6.07031H29.0564V4.84419C29.0564 4.16464 28.5054 3.61372 27.8259 3.61372H25.6859C25.14 1.53653 23.2461 0 21 0C18.7539 0 16.86 1.53653 16.3141 3.61372H14.1741C13.4946 3.61372 12.9436 4.16464 12.9436 4.84419V6.07031H6.64453C5.96498 6.07031 5.41406 6.62123 5.41406 7.30078V40.7695C5.41406 41.4491 5.96498 42 6.64453 42H35.3555C36.035 42 36.5859 41.4491 36.5859 40.7695V7.30078C36.5859 6.62123 36.035 6.07031 35.3555 6.07031ZM17.3863 6.07466C18.0658 6.07466 18.6167 5.52374 18.6167 4.84419C18.6167 3.53005 19.6859 2.46094 21 2.46094C22.3141 2.46094 23.3833 3.53005 23.3833 4.84419C23.3833 5.52374 23.9342 6.07466 24.6137 6.07466H26.5954V8.53125H15.4046V6.07466H17.3863ZM34.125 39.5391H7.875V8.53125H12.9436V9.76172C12.9436 10.4413 13.4946 10.9922 14.1741 10.9922H27.8259C28.5054 10.9922 29.0564 10.4413 29.0564 9.76172V8.53125H34.125V39.5391Z" fill="#1F1F1F"/>
<path d="M22.3549 20.13L20.3129 22.1721L19.4814 21.3406C19.0009 20.8602 18.2218 20.8601 17.7413 21.3406C17.2607 21.8212 17.2607 22.6002 17.7413 23.0808L19.4428 24.7822C19.683 25.0225 19.9979 25.1426 20.3128 25.1426C20.6276 25.1426 20.9426 25.0225 21.1828 24.7822L24.0949 21.8701C24.5755 21.3895 24.5755 20.6105 24.0949 20.1299C23.6145 19.6494 22.8354 19.6494 22.3549 20.13Z" fill="#005E9E"/>
<path d="M29.6133 22.0664C29.6133 17.317 25.7494 13.4531 21 13.4531C16.2506 13.4531 12.3867 17.317 12.3867 22.0664C12.3867 26.8158 16.2506 30.6797 21 30.6797C25.7494 30.6797 29.6133 26.8158 29.6133 22.0664ZM21 28.2188C17.6076 28.2188 14.8477 25.4588 14.8477 22.0664C14.8477 18.674 17.6076 15.9141 21 15.9141C24.3924 15.9141 27.1523 18.674 27.1523 22.0664C27.1523 25.4588 24.3924 28.2188 21 28.2188Z" fill="#1F1F1F"/>
<path d="M22.2305 34.3711C22.2305 35.0506 22.7814 35.6016 23.4609 35.6016H30.4336C31.1131 35.6016 31.6641 35.0506 31.6641 34.3711C31.6641 33.6915 31.1131 33.1406 30.4336 33.1406H23.4609C22.7814 33.1406 22.2305 33.6915 22.2305 34.3711Z" fill="#1F1F1F"/>
<path d="M18.5391 33.1406H11.5664C10.8869 33.1406 10.3359 33.6915 10.3359 34.3711C10.3359 35.0506 10.8869 35.6016 11.5664 35.6016H18.5391C19.2186 35.6016 19.7695 35.0506 19.7695 34.3711C19.7695 33.6915 19.2186 33.1406 18.5391 33.1406Z" fill="#1F1F1F"/>
</svg>
