<svg width="42" height="42" viewBox="0 0 42 42" fill="none" xmlns="http://www.w3.org/2000/svg">
<g clip-path="url(#clip0_22_3474)">
<path d="M36.6232 29.7459C36.9654 29.107 37.1602 28.3776 37.1602 27.6035C37.1602 25.0931 35.1178 23.0508 32.6074 23.0508C30.097 23.0508 28.0547 25.0931 28.0547 27.6035C28.0547 28.3575 28.24 29.0684 28.5657 29.6953H25.0417C25.3674 29.0684 25.5527 28.3575 25.5527 27.6035C25.5527 25.0931 23.5104 23.0508 21 23.0508C18.4896 23.0508 16.4473 25.0931 16.4473 27.6035C16.4473 28.3575 16.6326 29.0684 16.9583 29.6953H13.4343C13.76 29.0684 13.9453 28.3575 13.9453 27.6035C13.9453 25.0931 11.903 23.0508 9.39258 23.0508C6.88218 23.0508 4.83984 25.0931 4.83984 27.6035C4.83984 28.3776 5.03459 29.107 5.37682 29.7459C2.34946 30.1287 0 32.7181 0 35.8477C0 39.2401 2.75994 42 6.15234 42H35.8477C39.2401 42 42 39.2401 42 35.8477C42 32.7181 39.6505 30.1287 36.6232 29.7459ZM30.5156 27.6035C30.5156 26.4501 31.454 25.5117 32.6074 25.5117C33.7609 25.5117 34.6992 26.4501 34.6992 27.6035C34.6992 28.757 33.7609 29.6953 32.6074 29.6953C31.454 29.6953 30.5156 28.757 30.5156 27.6035ZM18.9082 27.6035C18.9082 26.4501 19.8466 25.5117 21 25.5117C22.1534 25.5117 23.0918 26.4501 23.0918 27.6035C23.0918 28.757 22.1534 29.6953 21 29.6953C19.8466 29.6953 18.9082 28.757 18.9082 27.6035ZM9.39258 25.5117C10.546 25.5117 11.4844 26.4501 11.4844 27.6035C11.4844 28.757 10.546 29.6953 9.39258 29.6953C8.23914 29.6953 7.30078 28.757 7.30078 27.6035C7.30078 26.4501 8.23914 25.5117 9.39258 25.5117ZM35.8477 39.5391H6.15234C4.1169 39.5391 2.46094 37.8831 2.46094 35.8477C2.46094 33.8122 4.1169 32.1562 6.15234 32.1562H35.8477C37.8831 32.1562 39.5391 33.8122 39.5391 35.8477C39.5391 37.8831 37.8831 39.5391 35.8477 39.5391Z" fill="#1F1F1F"/>
<path d="M1.23047 4.92188H13.1867C13.3524 6.30599 14.533 7.38281 15.9611 7.38281H16.9335C17.1177 7.38281 17.2676 7.53268 17.2676 7.71693V9.42761C17.2676 10.8698 18.3656 12.0602 19.7695 12.2072V14.6836H17.712C16.6217 14.6836 15.6051 15.222 14.9926 16.1239C14.38 17.0258 14.2542 18.1693 14.6561 19.1828L15.4265 21.1255C15.677 21.7573 16.3924 22.0663 17.0239 21.8158C17.6556 21.5653 17.9646 20.8501 17.7142 20.2184L16.9438 18.2757C16.7982 17.9085 16.9545 17.6156 17.0284 17.5067C17.1023 17.3978 17.317 17.1446 17.712 17.1446H24.1239C24.519 17.1446 24.7337 17.3978 24.8076 17.5067C24.8815 17.6156 25.0378 17.9085 24.8921 18.2757L24.1218 20.2184C23.8713 20.8501 24.1803 21.5653 24.8121 21.8158C24.9609 21.8748 25.1144 21.9028 25.2653 21.9028C25.7549 21.9028 26.218 21.6084 26.4095 21.1255L27.1798 19.1828C27.5817 18.1693 27.4559 17.0258 26.8433 16.1239C26.2308 15.222 25.2142 14.6836 24.1239 14.6836H22.2305V12.2072C23.6344 12.0602 24.7324 10.8699 24.7324 9.42761V7.71693C24.7324 7.53268 24.8823 7.38281 25.0665 7.38281H26.0389C27.467 7.38281 28.6475 6.30599 28.8133 4.92188H40.7695C41.4491 4.92188 42 4.37095 42 3.69141C42 3.01186 41.4491 2.46094 40.7695 2.46094H28.8133C28.6476 1.07682 27.467 0 26.0389 0H15.9611C14.533 0 13.3525 1.07682 13.1867 2.46094H1.23047C0.550922 2.46094 0 3.01186 0 3.69141C0 4.37095 0.550922 4.92188 1.23047 4.92188ZM15.627 2.79505C15.627 2.61081 15.7768 2.46094 15.9611 2.46094H26.0389C26.2232 2.46094 26.373 2.61081 26.373 2.79505V4.58776C26.373 4.772 26.2232 4.92188 26.0389 4.92188H25.0665C23.5253 4.92188 22.2715 6.17572 22.2715 7.71693V9.42761C22.2715 9.61185 22.1216 9.76172 21.9374 9.76172H20.0626C19.8784 9.76172 19.7285 9.61185 19.7285 9.42761V7.71693C19.7285 6.17572 18.4747 4.92188 16.9335 4.92188H15.9611C15.7768 4.92188 15.627 4.772 15.627 4.58776V2.79505Z" fill="#005E9E"/>
<path d="M6.23438 37.0781C6.91394 37.0781 7.46484 36.5272 7.46484 35.8477C7.46484 35.1681 6.91394 34.6172 6.23438 34.6172C5.55481 34.6172 5.00391 35.1681 5.00391 35.8477C5.00391 36.5272 5.55481 37.0781 6.23438 37.0781Z" fill="#1F1F1F"/>
<path d="M11.1562 37.0781C11.8358 37.0781 12.3867 36.5272 12.3867 35.8477C12.3867 35.1681 11.8358 34.6172 11.1562 34.6172C10.4767 34.6172 9.92578 35.1681 9.92578 35.8477C9.92578 36.5272 10.4767 37.0781 11.1562 37.0781Z" fill="#1F1F1F"/>
<path d="M16.0781 37.0781C16.7577 37.0781 17.3086 36.5272 17.3086 35.8477C17.3086 35.1681 16.7577 34.6172 16.0781 34.6172C15.3986 34.6172 14.8477 35.1681 14.8477 35.8477C14.8477 36.5272 15.3986 37.0781 16.0781 37.0781Z" fill="#1F1F1F"/>
<path d="M21 37.0781C21.6796 37.0781 22.2305 36.5272 22.2305 35.8477C22.2305 35.1681 21.6796 34.6172 21 34.6172C20.3204 34.6172 19.7695 35.1681 19.7695 35.8477C19.7695 36.5272 20.3204 37.0781 21 37.0781Z" fill="#1F1F1F"/>
<path d="M25.9219 37.0781C26.6014 37.0781 27.1523 36.5272 27.1523 35.8477C27.1523 35.1681 26.6014 34.6172 25.9219 34.6172C25.2423 34.6172 24.6914 35.1681 24.6914 35.8477C24.6914 36.5272 25.2423 37.0781 25.9219 37.0781Z" fill="#1F1F1F"/>
<path d="M30.8438 37.0781C31.5233 37.0781 32.0742 36.5272 32.0742 35.8477C32.0742 35.1681 31.5233 34.6172 30.8438 34.6172C30.1642 34.6172 29.6133 35.1681 29.6133 35.8477C29.6133 36.5272 30.1642 37.0781 30.8438 37.0781Z" fill="#1F1F1F"/>
<path d="M35.7656 37.0781C36.4452 37.0781 36.9961 36.5272 36.9961 35.8477C36.9961 35.1681 36.4452 34.6172 35.7656 34.6172C35.0861 34.6172 34.5352 35.1681 34.5352 35.8477C34.5352 36.5272 35.0861 37.0781 35.7656 37.0781Z" fill="#1F1F1F"/>
</g>
<defs>
<clipPath id="clip0_22_3474">
<rect width="42" height="42" fill="white"/>
</clipPath>
</defs>
</svg>
