<svg width="42" height="42" viewBox="0 0 42 42" fill="none" xmlns="http://www.w3.org/2000/svg">
<g clip-path="url(#clip0_22_3486)">
<path d="M12.3867 29.2031H7.46484C6.7853 29.2031 6.23438 29.754 6.23438 30.4336V35.3555C6.23438 36.035 6.7853 36.5859 7.46484 36.5859H12.3867C13.0663 36.5859 13.6172 36.035 13.6172 35.3555V30.4336C13.6172 29.754 13.0663 29.2031 12.3867 29.2031ZM11.1562 34.125H8.69531V31.6641H11.1562V34.125Z" fill="#1F1F1F"/>
<path d="M7.25813 11.6872C7.4984 11.9276 7.81323 12.0477 8.12815 12.0477C8.44299 12.0477 8.75799 11.9275 8.99817 11.6872L12.1084 8.5771C12.5889 8.09664 12.5889 7.31751 12.1084 6.83697C11.6278 6.35643 10.8488 6.35643 10.3683 6.83697L8.12815 9.07708L7.1811 8.12986C6.70064 7.6494 5.92151 7.6494 5.44097 8.12986C4.96043 8.61032 4.96043 9.38945 5.44097 9.86999L7.25813 11.6872Z" fill="#005E9E"/>
<path d="M8.85938 17.7188C13.7444 17.7188 17.7188 13.7445 17.7188 8.85938C17.7188 3.97425 13.7444 0 8.85938 0C3.97433 0 0 3.97425 0 8.85938C0 13.7445 3.97433 17.7188 8.85938 17.7188ZM8.85938 2.46094C12.3875 2.46094 15.2578 5.33121 15.2578 8.85938C15.2578 12.3875 12.3875 15.2578 8.85938 15.2578C5.33129 15.2578 2.46094 12.3875 2.46094 8.85938C2.46094 5.33121 5.33129 2.46094 8.85938 2.46094Z" fill="#1F1F1F"/>
<path d="M41.1587 23.9343L39.6265 23.4235L39.0083 6.84477C38.9836 6.18352 38.4404 5.66016 37.7787 5.66016H32.8568C32.1951 5.66016 31.6519 6.18343 31.6272 6.84452L31.1127 20.5856L19.0103 16.5514C18.2447 16.2725 17.3684 16.9047 17.3906 17.7188V20.7144L0.841312 26.2311C0.338871 26.3986 0 26.8688 0 27.3984V40.7695C0 41.4491 0.550922 42 1.23047 42H40.7695C41.4491 42 42 41.4491 42 40.7695V25.1016C42 24.572 41.6611 24.1018 41.1587 23.9343ZM17.3906 39.5391H2.46094V28.2854L17.3906 23.3086V39.5391ZM34.0421 8.12109H36.5932L36.685 10.582H33.9499L34.0421 8.12109ZM33.8577 13.043H36.7767L37.1328 22.5923L33.545 21.3964L33.8577 13.043ZM30.9258 39.5391H28.4648V31.6641H30.9258V39.5391ZM39.5391 39.5391H33.3867V30.4336C33.3867 29.754 32.8358 29.2031 32.1562 29.2031H27.2344C26.5548 29.2031 26.0039 29.754 26.0039 30.4336V39.5391H19.8516V19.426L39.5391 25.9885V39.5391Z" fill="#1F1F1F"/>
</g>
<defs>
<clipPath id="clip0_22_3486">
<rect width="42" height="42" fill="white"/>
</clipPath>
</defs>
</svg>
