<svg width="437" height="213" viewBox="0 0 437 213" fill="none" xmlns="http://www.w3.org/2000/svg">
<g opacity="0.2">
<mask id="mask0_22_3592" style="mask-type:alpha" maskUnits="userSpaceOnUse" x="-175" y="56" width="542" height="457">
<path d="M154.487 73.1754C144.643 69.8091 134.558 66.7813 124.249 64.1C66.2578 49.0166 22.783 57.6135 -8.65883 90.3815C-35.9034 118.775 -50.0015 160.868 -62.4399 198.006C-70.7422 222.795 -78.5844 246.209 -89.1544 261.548C-124.341 312.609 -146.14 319.208 -159.164 323.151C-166.705 325.433 -171.687 326.942 -174.346 335.938C-176.95 344.754 -153.69 365.088 -101.146 399.928C-78.4207 414.998 -57.1041 415.965 -39.9758 416.743C-31.3954 417.133 -23.9728 417.47 -18.0602 419.516L-17.856 418.923L-18.0602 419.516C-1.77789 425.14 1.95973 428.754 10.1488 436.673C16.9777 443.277 27.2977 453.256 50.9778 470.03C71.7876 484.771 107.44 498.557 144.026 506.008C164.842 510.247 185.25 512.389 204.682 512.372C226.434 512.352 246.464 509.601 264.216 504.192C297.1 494.173 321.676 475.297 337.26 448.087C352.613 421.281 361.941 391.677 364.984 360.1C368.007 328.733 364.68 297.019 355.098 265.838C341.149 220.45 314.255 178.504 277.321 144.537C257.631 126.429 235.063 110.528 210.244 97.2731C192.805 87.9599 174.137 79.8957 154.487 73.1754ZM-79.0803 409.455C-86.0238 407.08 -93.206 403.702 -100.53 398.846C-124.427 383 -141.936 370.384 -154.057 360.275C-171.54 345.693 -174.181 339.148 -173.317 336.224C-170.87 327.941 -166.648 326.663 -158.983 324.343C-145.811 320.355 -123.766 313.682 -88.3225 262.248C-77.6374 246.741 -69.7635 223.232 -61.4272 198.342C-49.0371 161.349 -34.9939 119.419 -7.9676 91.2531C23.1633 58.8097 66.3003 50.3221 123.909 65.3059C154.727 73.3212 183.593 84.4565 209.704 98.4009C234.454 111.618 256.957 127.474 276.587 145.527C313.385 179.369 340.177 221.147 354.066 266.345C363.598 297.361 366.908 328.9 363.902 360.086C360.879 391.457 351.615 420.863 336.365 447.488C320.954 474.396 296.618 493.073 264.033 503.001C246.377 508.38 226.444 511.117 204.788 511.136C185.419 511.153 165.074 509.018 144.319 504.791C107.85 497.364 72.3294 483.635 51.6172 468.964C27.9961 452.232 17.7081 442.283 10.9002 435.7C2.60788 427.681 -1.1769 424.022 -17.6519 418.33C-17.6798 418.321 -17.7087 418.311 -17.7366 418.302C-23.7724 416.237 -31.2141 415.899 -39.8257 415.508C-51.3054 414.987 -64.6795 414.38 -79.0803 409.455Z" fill="url(#paint0_linear_22_3592)"/>
</mask>
<g mask="url(#mask0_22_3592)">
<path d="M154.487 73.1754C144.643 69.8091 134.558 66.7813 124.249 64.1C66.2578 49.0166 22.783 57.6135 -8.65883 90.3815C-35.9034 118.775 -50.0015 160.868 -62.4399 198.006C-70.7422 222.795 -78.5844 246.209 -89.1544 261.548C-124.341 312.609 -146.14 319.208 -159.164 323.151C-166.705 325.433 -171.687 326.942 -174.346 335.938C-176.95 344.754 -153.69 365.088 -101.146 399.928C-78.4207 414.998 -57.1041 415.965 -39.9758 416.743C-31.3954 417.133 -23.9728 417.47 -18.0602 419.516L-17.856 418.923L-18.0602 419.516C-1.77789 425.14 1.95973 428.754 10.1488 436.673C16.9777 443.277 27.2977 453.256 50.9778 470.03C71.7876 484.771 107.44 498.557 144.026 506.008C164.842 510.247 185.25 512.389 204.682 512.372C226.434 512.352 246.464 509.601 264.216 504.192C297.1 494.173 321.676 475.297 337.26 448.087C352.613 421.281 361.941 391.677 364.984 360.1C368.007 328.733 364.68 297.019 355.098 265.838C341.149 220.45 314.255 178.504 277.321 144.537C257.631 126.429 235.063 110.528 210.244 97.2731C192.805 87.9599 174.137 79.8957 154.487 73.1754ZM-79.0803 409.455C-86.0238 407.08 -93.206 403.702 -100.53 398.846C-124.427 383 -141.936 370.384 -154.057 360.275C-171.54 345.693 -174.181 339.148 -173.317 336.224C-170.87 327.941 -166.648 326.663 -158.983 324.343C-145.811 320.355 -123.766 313.682 -88.3225 262.248C-77.6374 246.741 -69.7635 223.232 -61.4272 198.342C-49.0371 161.349 -34.9939 119.419 -7.9676 91.2531C23.1633 58.8097 66.3003 50.3221 123.909 65.3059C154.727 73.3212 183.593 84.4565 209.704 98.4009C234.454 111.618 256.957 127.474 276.587 145.527C313.385 179.369 340.177 221.147 354.066 266.345C363.598 297.361 366.908 328.9 363.902 360.086C360.879 391.457 351.615 420.863 336.365 447.488C320.954 474.396 296.618 493.073 264.033 503.001C246.377 508.38 226.444 511.117 204.788 511.136C185.419 511.153 165.074 509.018 144.319 504.791C107.85 497.364 72.3294 483.635 51.6172 468.964C27.9961 452.232 17.7081 442.283 10.9002 435.7C2.60788 427.681 -1.1769 424.022 -17.6519 418.33C-17.6798 418.321 -17.7087 418.311 -17.7366 418.302C-23.7724 416.237 -31.2141 415.899 -39.8257 415.508C-51.3054 414.987 -64.6795 414.38 -79.0803 409.455Z" fill="#C0C0C0"/>
</g>
<mask id="mask1_22_3592" style="mask-type:alpha" maskUnits="userSpaceOnUse" x="-153" y="81" width="498" height="418">
<path d="M152.114 96.4945C144.155 93.7725 136.021 91.2923 127.725 89.0595C75.5395 74.8769 36.1031 81.7278 7.16415 110.003C-17.976 134.567 -31.5945 171.708 -43.6096 204.477C-51.9791 227.302 -59.8845 248.862 -70.5086 262.929C-103.86 308.195 -124.869 314.808 -137.422 318.759C-145.009 321.147 -150.021 322.724 -152.702 331.426C-154.287 336.318 -148.852 344.719 -136.547 356.385C-125.477 366.881 -109.273 379.599 -89.6876 393.166C-69.2777 407.441 -50.0843 409.028 -34.6621 410.304C-27.2066 410.921 -20.7679 411.453 -15.4095 413.277L-15.4091 413.277C1.59013 419.027 5.25971 422.045 16.1537 430.972C23.4733 436.97 33.4978 445.185 52.6069 458.459C72.1789 472.062 105.458 484.875 139.457 491.898C158.902 495.914 177.92 497.983 195.984 498.045C216.251 498.115 234.872 495.632 251.33 490.665C281.022 481.704 303.306 464.85 317.565 440.573C331.858 416.123 340.654 389.073 343.71 360.175C346.747 331.459 343.965 302.401 335.44 273.809C323.121 232.494 299.06 194.23 265.856 163.154C248.152 146.585 227.821 131.995 205.426 119.79C188.822 110.741 170.965 102.942 152.114 96.4945ZM-67.174 403.346C-74.2335 400.931 -81.5821 397.413 -89.0933 392.16C-130.519 363.465 -154.524 340.306 -151.743 331.72C-149.26 323.658 -144.736 322.234 -137.242 319.875C-124.561 315.884 -103.336 309.204 -69.7563 263.626C-59.0162 249.406 -51.0769 227.753 -42.6711 204.829C-30.7056 172.196 -17.1431 135.208 7.78553 110.851C36.4332 82.8603 75.5585 76.1019 127.397 90.1905C155.277 97.694 181.357 108.008 204.912 120.846C227.242 133.016 247.512 147.562 265.161 164.079C298.238 195.035 322.203 233.14 334.468 274.275C342.946 302.712 345.714 331.604 342.696 360.15C339.66 388.854 330.925 415.719 316.731 439.999C302.636 463.997 280.575 480.668 251.161 489.545C229.421 496.106 192.443 501.642 139.734 490.755C105.842 483.755 72.6835 470.993 53.201 457.453C34.1208 444.199 24.1121 435.997 16.8038 430.009C6.11571 421.25 2.10559 417.974 -15.03 412.162C-20.4881 410.305 -26.976 409.768 -34.4883 409.147C-44.1169 408.35 -55.2288 407.431 -67.174 403.346Z" fill="url(#paint1_linear_22_3592)"/>
</mask>
<g mask="url(#mask1_22_3592)">
<path d="M152.114 96.4942C144.154 93.7722 136.02 91.292 127.724 89.0593C75.539 74.8767 36.1026 81.7276 7.16367 110.003C-17.9765 134.567 -31.595 171.707 -43.6101 204.476C-51.9796 227.302 -59.885 248.862 -70.5091 262.929C-103.86 308.195 -124.87 314.808 -137.423 318.759C-145.009 321.147 -150.022 322.724 -152.703 331.426C-154.287 336.318 -148.852 344.719 -136.547 356.385C-125.477 366.881 -109.274 379.599 -89.6881 393.165C-69.2782 407.441 -50.0848 409.028 -34.6625 410.304C-27.2071 410.92 -20.7683 411.453 -15.41 413.277L-15.4096 413.277C1.58964 419.026 5.25922 422.045 16.1532 430.972C23.4729 436.97 33.4974 445.185 52.6064 458.459C72.1784 472.062 105.458 484.875 139.456 491.898C158.901 495.914 177.92 497.982 195.983 498.045C216.25 498.115 234.872 495.632 251.33 490.665C281.021 481.703 303.306 464.85 317.565 440.573C331.858 416.122 340.654 389.073 343.71 360.175C346.747 331.459 343.964 302.401 335.439 273.808C323.121 232.493 299.059 194.229 265.856 163.154C248.152 146.585 227.82 131.995 205.425 119.79C188.822 110.74 170.965 102.941 152.114 96.4942ZM-67.1745 403.345C-74.234 400.931 -81.5826 397.413 -89.0938 392.16C-130.519 363.465 -154.525 340.306 -151.744 331.719C-149.26 323.658 -144.736 322.234 -137.242 319.875C-124.561 315.884 -103.337 309.203 -69.7568 263.626C-59.0167 249.406 -51.0773 227.753 -42.6716 204.829C-30.7061 172.196 -17.1436 135.208 7.78504 110.85C36.4327 82.86 75.558 76.1016 127.397 90.1902C155.277 97.6937 181.357 108.008 204.912 120.845C227.241 133.016 247.512 147.561 265.161 164.079C298.237 195.035 322.203 233.14 334.468 274.275C342.946 302.712 345.714 331.604 342.695 360.15C339.66 388.853 330.924 415.718 316.731 439.999C302.636 463.997 280.574 480.667 251.16 489.545C229.421 496.106 192.442 501.642 139.733 490.755C105.841 483.755 72.6831 470.993 53.2005 457.453C34.1203 444.199 24.1116 435.997 16.8033 430.008C6.11522 421.25 2.1051 417.974 -15.0305 412.162C-20.4886 410.304 -26.9765 409.768 -34.4888 409.146C-44.1174 408.35 -55.2293 407.43 -67.1745 403.345Z" fill="#C0C0C0"/>
</g>
<mask id="mask2_22_3592" style="mask-type:alpha" maskUnits="userSpaceOnUse" x="-132" y="106" width="456" height="378">
<path d="M150.02 119.862C143.876 117.761 137.606 115.814 131.198 114.019C84.7768 100.736 49.3691 105.878 22.9539 129.738C-0.0644038 150.529 -13.1721 182.749 -24.7369 211.176C-33.1855 231.943 -41.1656 251.559 -51.8644 264.309C-83.3167 303.792 -103.519 310.383 -115.589 314.322C-123.27 316.828 -128.345 318.484 -131.062 326.913C-135.079 338.317 -106.494 365.747 -78.2336 386.401C-60.0486 399.981 -42.9005 402.188 -29.121 403.961C-22.8722 404.765 -17.4756 405.46 -12.7615 407.036L-12.7605 407.037C6.59237 413.448 9.7696 415.708 27.4182 428.229C34.0636 432.944 42.3341 438.812 54.2328 446.887C66.3953 455.151 84.3304 463.3 104.734 469.83C127.694 477.18 151.762 481.825 174.335 483.263C201.049 484.964 224.759 482.215 244.805 475.09C268.157 466.79 286.01 452.649 297.868 433.059C311.104 410.962 319.372 386.464 322.444 360.243C325.498 334.173 323.26 307.768 315.793 281.76C305.1 244.519 283.868 209.939 254.391 181.758C226.031 154.644 190.983 133.872 150.02 119.862ZM-54.9412 397.516C-62.1996 395.033 -69.8354 391.316 -77.6584 385.474C-111.316 360.876 -133.4 336.374 -130.173 327.211C-127.64 319.354 -123.037 317.852 -115.41 315.363C-103.231 311.389 -82.8458 304.738 -51.194 265.004C-40.3794 252.116 -32.3626 232.411 -23.8755 211.548C-12.3615 183.246 0.688565 151.168 23.5023 130.562C49.6466 106.947 84.7711 101.88 130.882 115.074C179.889 128.807 221.219 151.531 253.735 182.617C283.093 210.684 304.237 245.115 314.88 282.186C322.306 308.047 324.532 334.296 321.496 360.205C318.446 386.245 310.236 410.572 297.095 432.508C285.382 451.861 267.72 465.84 244.604 474.056C224.673 481.14 201.08 483.873 174.482 482.179C151.974 480.745 127.974 476.113 105.076 468.783C84.744 462.272 66.8821 454.162 54.7812 445.94C42.8896 437.87 34.6229 432.005 27.9805 427.292C10.2479 414.712 7.05365 412.448 -12.4111 405.992C-17.1993 404.391 -22.6317 403.692 -28.9216 402.882C-36.6656 401.885 -45.4828 400.75 -54.9412 397.516Z" fill="url(#paint2_linear_22_3592)"/>
</mask>
<g mask="url(#mask2_22_3592)">
<path d="M150.02 119.862C143.876 117.761 137.606 115.814 131.198 114.019C84.7768 100.736 49.3691 105.878 22.9539 129.738C-0.0644038 150.529 -13.1721 182.749 -24.7369 211.176C-33.1855 231.943 -41.1656 251.559 -51.8644 264.309C-83.3167 303.792 -103.519 310.383 -115.589 314.322C-123.27 316.828 -128.345 318.484 -131.062 326.913C-135.079 338.317 -106.494 365.747 -78.2336 386.401C-60.0486 399.981 -42.9005 402.188 -29.121 403.961C-22.8722 404.765 -17.4756 405.46 -12.7615 407.036L-12.7605 407.037C6.59237 413.448 9.7696 415.708 27.4182 428.229C34.0636 432.944 42.3341 438.812 54.2328 446.887C66.3953 455.151 84.3304 463.3 104.734 469.83C127.694 477.18 151.762 481.825 174.335 483.263C201.049 484.964 224.759 482.215 244.805 475.09C268.157 466.79 286.01 452.649 297.868 433.059C311.104 410.962 319.372 386.464 322.444 360.243C325.498 334.173 323.26 307.768 315.793 281.76C305.1 244.519 283.868 209.939 254.391 181.758C226.031 154.644 190.983 133.872 150.02 119.862ZM-54.9412 397.516C-62.1996 395.033 -69.8354 391.316 -77.6584 385.474C-111.316 360.876 -133.4 336.374 -130.173 327.211C-127.64 319.354 -123.037 317.852 -115.41 315.363C-103.231 311.389 -82.8458 304.738 -51.194 265.004C-40.3794 252.116 -32.3626 232.411 -23.8755 211.548C-12.3615 183.246 0.688565 151.168 23.5023 130.562C49.6466 106.947 84.7711 101.88 130.882 115.074C179.889 128.807 221.219 151.531 253.735 182.617C283.093 210.684 304.237 245.115 314.88 282.186C322.306 308.047 324.532 334.296 321.496 360.205C318.446 386.245 310.236 410.572 297.095 432.508C285.382 451.861 267.72 465.84 244.604 474.056C224.673 481.14 201.08 483.873 174.482 482.179C151.974 480.745 127.974 476.113 105.076 468.783C84.744 462.272 66.8821 454.162 54.7812 445.94C42.8896 437.87 34.6229 432.005 27.9805 427.292C10.2479 414.712 7.05365 412.448 -12.4111 405.992C-17.1993 404.391 -22.6317 403.692 -28.9216 402.882C-36.6656 401.885 -45.4828 400.75 -54.9412 397.516Z" fill="#C0C0C0"/>
</g>
<mask id="mask3_22_3592" style="mask-type:alpha" maskUnits="userSpaceOnUse" x="-110" y="131" width="413" height="339">
<path d="M147.601 143.085C143.363 141.635 139.055 140.267 134.674 138.978C93.9641 126.595 62.5702 130.074 38.7016 149.614C17.8262 166.704 5.80759 192.867 -5.81551 218.167C-14.3549 236.756 -22.421 254.313 -33.2164 265.691C-62.6791 299.405 -81.2957 305.676 -93.6148 309.825C-101.743 312.562 -106.65 314.215 -109.419 322.402C-113.348 332.72 -94.6213 357.87 -66.7779 379.636C-50.6558 392.711 -35.4026 395.544 -23.1462 397.82C-18.4575 398.691 -14.0291 399.514 -10.1111 400.797L-10.1097 400.797L-8.12304 401.438C14.7257 408.808 16.5904 409.411 55.8615 435.315C66.8906 442.605 83.6839 450.173 101.925 456.084C122.908 462.879 144.838 467.293 165.343 468.846C189.706 470.693 211.328 468.537 229.607 462.439C250.93 455.325 267.269 442.912 278.171 425.545C290.357 405.802 298.102 383.853 301.194 360.303C304.27 336.875 302.579 313.117 296.169 289.688C287.096 256.523 268.688 225.63 242.934 200.348C217.32 175.203 185.296 155.976 147.601 143.085ZM-42.1195 392.175C-49.721 389.575 -57.8565 385.572 -66.2201 378.789C-93.3051 357.616 -112.314 332.458 -108.599 322.702C-106.001 315.022 -101.274 313.43 -93.4411 310.792C-81.7796 306.864 -62.2619 300.29 -32.6311 266.383C-21.7208 254.885 -13.6159 237.242 -5.03438 218.563C6.5335 193.381 18.4955 167.343 39.1738 150.414C62.7933 131.078 93.932 127.658 134.37 139.957C177.594 152.674 213.912 173.257 242.315 201.14C267.959 226.315 286.287 257.067 295.316 290.073C301.688 313.363 303.369 336.974 300.314 360.252C297.244 383.633 289.556 405.424 277.461 425.018C266.698 442.164 250.538 454.43 229.436 461.471C211.262 467.534 189.747 469.676 165.489 467.838C145.043 466.288 123.174 461.887 102.245 455.109C84.0639 449.222 67.3392 441.683 56.3641 434.429C17.0067 408.468 15.132 407.861 -7.80335 400.464L-9.7884 399.823C-13.7533 398.525 -18.2055 397.698 -22.9194 396.822C-28.7206 395.745 -35.1986 394.542 -42.1195 392.175Z" fill="url(#paint3_linear_22_3592)"/>
</mask>
<g mask="url(#mask3_22_3592)">
<path d="M147.601 143.085C143.363 141.635 139.055 140.267 134.674 138.978C93.9641 126.595 62.5702 130.074 38.7016 149.614C17.8262 166.704 5.80759 192.867 -5.81551 218.167C-14.3549 236.756 -22.421 254.313 -33.2164 265.691C-62.6791 299.405 -81.2957 305.676 -93.6148 309.825C-101.743 312.562 -106.65 314.215 -109.419 322.402C-113.348 332.72 -94.6213 357.87 -66.7779 379.636C-50.6558 392.711 -35.4026 395.544 -23.1462 397.82C-18.4575 398.691 -14.0291 399.514 -10.1111 400.797L-10.1097 400.797L-8.12304 401.438C14.7257 408.808 16.5904 409.411 55.8615 435.315C66.8906 442.605 83.6839 450.173 101.925 456.084C122.908 462.879 144.838 467.293 165.343 468.846C189.706 470.693 211.328 468.537 229.607 462.439C250.93 455.325 267.269 442.912 278.171 425.545C290.357 405.802 298.102 383.853 301.194 360.303C304.27 336.875 302.579 313.117 296.169 289.688C287.096 256.523 268.688 225.63 242.934 200.348C217.32 175.203 185.296 155.976 147.601 143.085ZM-42.1195 392.175C-49.721 389.575 -57.8565 385.572 -66.2201 378.789C-93.3051 357.616 -112.314 332.458 -108.599 322.702C-106.001 315.022 -101.274 313.43 -93.4411 310.792C-81.7796 306.864 -62.2619 300.29 -32.6311 266.383C-21.7208 254.885 -13.6159 237.242 -5.03438 218.563C6.5335 193.381 18.4955 167.343 39.1738 150.414C62.7933 131.078 93.932 127.658 134.37 139.957C177.594 152.674 213.912 173.257 242.315 201.14C267.959 226.315 286.287 257.067 295.316 290.073C301.688 313.363 303.369 336.974 300.314 360.252C297.244 383.633 289.556 405.424 277.461 425.018C266.698 442.164 250.538 454.43 229.436 461.471C211.262 467.534 189.747 469.676 165.489 467.838C145.043 466.288 123.174 461.887 102.245 455.109C84.0639 449.222 67.3392 441.683 56.3641 434.429C17.0067 408.468 15.132 407.861 -7.80335 400.464L-9.7884 399.823C-13.7533 398.525 -18.2055 397.698 -22.9194 396.822C-28.7206 395.745 -35.1986 394.542 -42.1195 392.175Z" fill="#C0C0C0"/>
</g>
<mask id="mask4_22_3592" style="mask-type:alpha" maskUnits="userSpaceOnUse" x="-89" y="156" width="371" height="300">
<path d="M145.175 166.235C142.856 165.442 140.516 164.677 138.148 163.938C59.561 138.195 34.9009 184.596 13.1434 225.534C4.50448 241.788 -3.65532 257.141 -14.567 267.074C-41.9071 295.041 -59.6757 301.178 -71.4336 305.239C-79.8507 308.147 -84.9315 309.901 -87.7779 317.89C-89.8126 322.861 -87.6838 331.52 -81.9278 341.623C-75.816 352.351 -66.3682 363.448 -55.3248 372.869C-40.9036 385.893 -27.7787 389.222 -16.1985 392.159C-13.1262 392.939 -10.2242 393.675 -7.46223 394.557L-7.46026 394.558C-3.29412 395.863 0.366837 396.908 3.59665 397.83C18.515 402.089 27.5187 404.66 57.4889 423.744C76.5915 435.944 115.677 450.751 156.349 454.43C178.364 456.421 197.897 454.859 214.406 449.787C233.7 443.859 248.526 433.175 258.473 418.032C269.616 400.641 276.845 381.236 279.962 360.352C283.066 339.559 281.926 318.441 276.575 297.583C269.112 268.496 253.52 241.293 231.483 218.916C208.639 195.72 179.629 178.018 145.175 166.235ZM-28.3934 387.705C-36.598 384.899 -45.4183 380.564 -54.7817 372.108C-78.5084 351.866 -90.8159 327.448 -87.0266 318.189C-84.3391 310.648 -79.4186 308.948 -71.267 306.133C-59.4312 302.045 -41.5452 295.867 -14.0708 267.761C-3.04735 257.729 5.1544 242.296 13.8381 225.957C24.8576 205.223 36.2519 183.784 54.7732 170.441C75.8432 155.262 103.019 153.43 137.854 164.841C175.298 176.53 206.603 194.968 230.9 219.64C252.837 241.916 268.357 268.986 275.781 297.924C281.099 318.652 282.232 339.633 279.15 360.286C276.056 381.014 268.882 400.273 257.827 417.527C245.061 436.961 217.116 458.981 156.495 453.497C115.937 449.828 76.9786 435.073 57.9447 422.917C27.8884 403.779 18.8477 401.197 3.87049 396.921C0.644659 396 -3.01087 394.956 -7.16803 393.654C-9.95012 392.766 -12.862 392.027 -15.9448 391.245C-19.9148 390.238 -24.0691 389.184 -28.3934 387.705Z" fill="url(#paint4_linear_22_3592)"/>
</mask>
<g mask="url(#mask4_22_3592)">
<path d="M145.175 166.235C142.856 165.442 140.516 164.677 138.148 163.938C59.561 138.195 34.9009 184.596 13.1434 225.534C4.50448 241.788 -3.65532 257.141 -14.567 267.074C-41.9071 295.041 -59.6757 301.178 -71.4336 305.239C-79.8507 308.147 -84.9315 309.901 -87.7779 317.89C-89.8126 322.861 -87.6838 331.52 -81.9278 341.623C-75.816 352.351 -66.3682 363.448 -55.3248 372.869C-40.9036 385.893 -27.7787 389.222 -16.1985 392.159C-13.1262 392.939 -10.2242 393.675 -7.46223 394.557L-7.46026 394.558C-3.29412 395.863 0.366837 396.908 3.59665 397.83C18.515 402.089 27.5187 404.66 57.4889 423.744C76.5915 435.944 115.677 450.751 156.349 454.43C178.364 456.421 197.897 454.859 214.406 449.787C233.7 443.859 248.526 433.175 258.473 418.032C269.616 400.641 276.845 381.236 279.962 360.352C283.066 339.559 281.926 318.441 276.575 297.583C269.112 268.496 253.52 241.293 231.483 218.916C208.639 195.72 179.629 178.018 145.175 166.235ZM-28.3934 387.705C-36.598 384.899 -45.4183 380.564 -54.7817 372.108C-78.5084 351.866 -90.8159 327.448 -87.0266 318.189C-84.3391 310.648 -79.4186 308.948 -71.267 306.133C-59.4312 302.045 -41.5452 295.867 -14.0708 267.761C-3.04735 257.729 5.1544 242.296 13.8381 225.957C24.8576 205.223 36.2519 183.784 54.7732 170.441C75.8432 155.262 103.019 153.43 137.854 164.841C175.298 176.53 206.603 194.968 230.9 219.64C252.837 241.916 268.357 268.986 275.781 297.924C281.099 318.652 282.232 339.633 279.15 360.286C276.056 381.014 268.882 400.273 257.827 417.527C245.061 436.961 217.116 458.981 156.495 453.497C115.937 449.828 76.9786 435.073 57.9447 422.917C27.8884 403.779 18.8477 401.197 3.87049 396.921C0.644659 396 -3.01087 394.956 -7.16803 393.654C-9.95012 392.766 -12.862 392.027 -15.9448 391.245C-19.9148 390.238 -24.0691 389.184 -28.3934 387.705Z" fill="#C0C0C0"/>
</g>
<mask id="mask5_22_3592" style="mask-type:alpha" maskUnits="userSpaceOnUse" x="-68" y="181" width="329" height="261">
<path d="M139.115 188.017C110.766 178.322 88.1214 178.954 69.9586 189.932C53.4377 199.917 42.5966 216.937 32.1122 233.396C23.3757 247.111 15.1238 260.066 4.08464 268.459C-20.9212 290.707 -37.7648 296.612 -48.9109 300.519C-57.8039 303.637 -63.1717 305.519 -66.135 313.379C-70.6892 323.778 -62.1426 348.55 -43.8724 366.1C-30.0775 380.53 -17.9123 384.28 -6.14614 387.905L-4.80964 388.318C0.872222 390.032 5.75481 391.104 10.4769 392.142C23.1346 394.921 35.0904 397.548 59.1185 412.173C76.6099 422.863 111.684 436.136 147.357 440.013C177.423 443.281 217.689 440.818 238.775 410.521C258.989 380.45 265.641 342.149 257.03 305.431C251.165 280.424 238.376 256.917 220.046 237.452C200.006 216.172 173.999 199.966 142.738 189.275C142.367 189.148 141.997 189.023 141.626 188.897C140.784 188.595 139.947 188.302 139.115 188.017ZM-12.9354 384.819C-22.456 381.563 -32.3842 376.891 -43.3402 365.43C-62.8714 346.668 -69.3797 322.644 -65.4522 313.674C-62.6361 306.207 -57.4109 304.375 -48.754 301.34C-37.549 297.412 -20.6161 291.476 4.48856 269.139C15.6312 260.668 23.9279 247.644 32.7117 233.854C43.1374 217.486 53.9185 200.561 70.2618 190.683C88.7579 179.504 111.998 179.195 141.34 189.723C141.709 189.847 142.082 189.974 142.449 190.099C173.619 200.759 199.533 216.905 219.499 238.108C237.739 257.476 250.463 280.859 256.296 305.728C260.558 323.903 261.138 342.264 258.018 360.302C254.891 378.386 248.221 395.119 238.194 410.036C217.35 439.985 177.37 442.403 147.502 439.156C111.925 435.289 76.9598 422.06 59.5268 411.405C35.4073 396.724 23.4008 394.087 10.6906 391.296C5.98016 390.261 1.10956 389.191 -4.54872 387.484L-5.8819 387.073C-8.21369 386.354 -10.5623 385.63 -12.9354 384.819Z" fill="url(#paint5_linear_22_3592)"/>
</mask>
<g mask="url(#mask5_22_3592)">
<path d="M139.115 188.017C110.766 178.322 88.1214 178.954 69.9586 189.932C53.4377 199.917 42.5966 216.937 32.1122 233.396C23.3757 247.111 15.1238 260.066 4.08464 268.459C-20.9212 290.707 -37.7648 296.612 -48.9109 300.519C-57.8039 303.637 -63.1717 305.519 -66.135 313.379C-70.6892 323.778 -62.1426 348.55 -43.8724 366.1C-30.0775 380.53 -17.9123 384.28 -6.14614 387.905L-4.80964 388.318C0.872222 390.032 5.75481 391.104 10.4769 392.142C23.1346 394.921 35.0904 397.548 59.1185 412.173C76.6099 422.863 111.684 436.136 147.357 440.013C177.423 443.281 217.689 440.818 238.775 410.521C258.989 380.45 265.641 342.149 257.03 305.431C251.165 280.424 238.376 256.917 220.046 237.452C200.006 216.172 173.999 199.966 142.738 189.275C142.367 189.148 141.997 189.023 141.626 188.897C140.784 188.595 139.947 188.302 139.115 188.017ZM-12.9354 384.819C-22.456 381.563 -32.3842 376.891 -43.3402 365.43C-62.8714 346.668 -69.3797 322.644 -65.4522 313.674C-62.6361 306.207 -57.4109 304.375 -48.754 301.34C-37.549 297.412 -20.6161 291.476 4.48856 269.139C15.6312 260.668 23.9279 247.644 32.7117 233.854C43.1374 217.486 53.9185 200.561 70.2618 190.683C88.7579 179.504 111.998 179.195 141.34 189.723C141.709 189.847 142.082 189.974 142.449 190.099C173.619 200.759 199.533 216.905 219.499 238.108C237.739 257.476 250.463 280.859 256.296 305.728C260.558 323.903 261.138 342.264 258.018 360.302C254.891 378.386 248.221 395.119 238.194 410.036C217.35 439.985 177.37 442.403 147.502 439.156C111.925 435.289 76.9598 422.06 59.5268 411.405C35.4073 396.724 23.4008 394.087 10.6906 391.296C5.98016 390.261 1.10956 389.191 -4.54872 387.484L-5.8819 387.073C-8.21369 386.354 -10.5623 385.63 -12.9354 384.819Z" fill="#C0C0C0"/>
</g>
<mask id="mask6_22_3592" style="mask-type:alpha" maskUnits="userSpaceOnUse" x="-47" y="205" width="287" height="223">
<path d="M137.619 211.062C116.885 203.97 99.7283 203.788 85.3475 210.468C71.031 217.118 60.8446 229.731 50.9939 241.928C42.5778 252.348 33.8754 263.124 22.7372 269.848C0.424246 286.422 -15.3451 291.933 -25.7798 295.579C-35.4873 298.971 -41.3468 301.019 -44.4931 308.868C-49.0428 318.619 -46.612 343.143 -32.4233 359.324C-22.8002 371.822 -13.7463 378.629 -2.16202 382.077L-2.15966 382.078C4.00926 383.854 9.59529 384.669 15.5092 385.532C28.0075 387.355 40.932 389.24 60.7474 400.601C76.7285 409.816 107.834 421.568 138.363 425.596C164.819 429.087 200.297 428.002 219.075 403.009C237.308 377.57 244.044 344.842 237.564 313.21C233.276 292.284 223.272 272.481 208.633 255.94C192.44 237.643 171.065 223.485 145.102 213.858C142.559 212.83 140.062 211.897 137.619 211.062ZM-3.9703 380.662C-14.4644 377.073 -22.9205 370.414 -31.8962 358.759C-45.8955 342.793 -48.3397 318.721 -43.8776 309.157C-40.8685 301.651 -35.4584 299.761 -25.6375 296.329C-15.1615 292.668 0.669864 287.136 23.0441 270.514C34.2716 263.738 43.0214 252.904 51.4828 242.427C61.2744 230.303 71.3996 217.766 85.5537 211.192C101.459 203.804 120.843 204.922 144.823 214.605C170.701 224.201 191.995 238.303 208.121 256.524C222.68 272.974 232.628 292.661 236.888 313.458C243.319 344.848 236.64 377.318 218.562 402.542C200.011 427.232 164.789 428.283 138.509 424.815C108.059 420.797 77.0406 409.079 61.1072 399.893C41.1953 388.476 28.2161 386.583 15.6631 384.752C9.76952 383.892 4.20255 383.08 -1.92865 381.315C-2.61807 381.109 -3.29853 380.892 -3.9703 380.662Z" fill="url(#paint6_linear_22_3592)"/>
</mask>
<g mask="url(#mask6_22_3592)">
<path d="M137.619 211.062C116.885 203.97 99.7283 203.788 85.3475 210.468C71.031 217.118 60.8446 229.731 50.9939 241.928C42.5778 252.348 33.8754 263.124 22.7372 269.848C0.424246 286.422 -15.3451 291.933 -25.7798 295.579C-35.4873 298.971 -41.3468 301.019 -44.4931 308.868C-49.0428 318.619 -46.612 343.143 -32.4233 359.324C-22.8002 371.822 -13.7463 378.629 -2.16202 382.077L-2.15966 382.078C4.00926 383.854 9.59529 384.669 15.5092 385.532C28.0075 387.355 40.932 389.24 60.7474 400.601C76.7285 409.816 107.834 421.568 138.363 425.596C164.819 429.087 200.297 428.002 219.075 403.009C237.308 377.57 244.044 344.842 237.564 313.21C233.276 292.284 223.272 272.481 208.633 255.94C192.44 237.643 171.065 223.485 145.102 213.858C142.559 212.83 140.062 211.897 137.619 211.062ZM-3.9703 380.662C-14.4644 377.073 -22.9205 370.414 -31.8962 358.759C-45.8955 342.793 -48.3397 318.721 -43.8776 309.157C-40.8685 301.651 -35.4584 299.761 -25.6375 296.329C-15.1615 292.668 0.669864 287.136 23.0441 270.514C34.2716 263.738 43.0214 252.904 51.4828 242.427C61.2744 230.303 71.3996 217.766 85.5537 211.192C101.459 203.804 120.843 204.922 144.823 214.605C170.701 224.201 191.995 238.303 208.121 256.524C222.68 272.974 232.628 292.661 236.888 313.458C243.319 344.848 236.64 377.318 218.562 402.542C200.011 427.232 164.789 428.283 138.509 424.815C108.059 420.797 77.0406 409.079 61.1072 399.893C41.1953 388.476 28.2161 386.583 15.6631 384.752C9.76952 383.892 4.20255 383.08 -1.92865 381.315C-2.61807 381.109 -3.29853 380.892 -3.9703 380.662Z" fill="#C0C0C0"/>
</g>
<mask id="mask7_22_3592" style="mask-type:alpha" maskUnits="userSpaceOnUse" x="-28" y="229" width="248" height="185">
<path d="M135.953 233.64C102.548 222.215 86.4319 236.424 69.4736 251.374C61.11 258.747 52.4619 266.372 41.3903 271.244C22.4566 282.224 8.67299 286.859 -1.39102 290.243C-13.0002 294.146 -19.395 296.297 -22.851 304.358C-25.4687 309.643 -27.1642 318.246 -27.2654 326.79C-27.3878 337.116 -25.155 346.261 -20.9781 352.54C-14.8109 364.037 -9.30526 373.069 0.487804 375.838L0.490486 375.838C6.68876 377.52 13.0955 377.988 19.8781 378.483C32.1209 379.376 45.997 380.389 62.3775 389.03C73.706 395.053 100.566 406.495 129.369 411.179C144.354 413.616 157.621 413.835 168.803 411.83C182.011 409.462 192.297 403.967 199.372 395.5C215.7 374.682 222.576 347.488 218.244 320.88C215.501 304.04 208.249 287.949 197.271 274.349C185.132 259.309 168.75 247.355 148.582 238.819C144.11 236.706 139.91 234.993 135.953 233.64ZM-0.375627 374.813C-9.30499 371.759 -14.564 363.072 -20.4495 352.102C-29.9982 337.746 -26.7284 313.575 -22.3024 304.637C-18.9748 296.877 -12.6859 294.762 -1.26914 290.923C8.8206 287.531 22.639 282.885 41.5975 271.888C52.7322 266.989 61.4223 259.329 69.8263 251.92C79.4078 243.473 88.4579 235.495 100.452 232.001C113.969 228.064 129.173 230.443 148.304 239.485C168.399 247.99 184.71 259.89 196.791 274.857C207.699 288.371 214.904 304.353 217.627 321.075C221.923 347.459 215.108 374.421 198.931 395.048C191.973 403.373 181.821 408.787 168.765 411.127C157.646 413.121 144.441 412.901 129.517 410.475C100.782 405.802 73.9885 394.388 62.6868 388.38C46.2095 379.687 32.274 378.67 19.9792 377.773C13.2234 377.28 6.84147 376.814 0.692114 375.146C0.330633 375.043 -0.0256501 374.932 -0.375627 374.813Z" fill="url(#paint7_linear_22_3592)"/>
</mask>
<g mask="url(#mask7_22_3592)">
</g>
</g>
<defs>
<linearGradient id="paint0_linear_22_3592" x1="-126.744" y1="196.665" x2="369.337" y2="366.316" gradientUnits="userSpaceOnUse">
<stop stop-color="white"/>
<stop offset="0.0436152" stop-color="#B4B4B4"/>
<stop offset="0.150732"/>
<stop offset="0.171421" stop-color="#171717"/>
<stop offset="0.385884" stop-color="white"/>
<stop offset="0.632551" stop-color="#E6E6E6"/>
<stop offset="0.856667" stop-color="#1A1A1A"/>
<stop offset="0.998739"/>
</linearGradient>
<linearGradient id="paint1_linear_22_3592" x1="-110.47" y1="207.894" x2="347.688" y2="364.576" gradientUnits="userSpaceOnUse">
<stop stop-color="white"/>
<stop offset="0.0436152" stop-color="#B4B4B4"/>
<stop offset="0.150732"/>
<stop offset="0.171421" stop-color="#171717"/>
<stop offset="0.385884" stop-color="white"/>
<stop offset="0.632551" stop-color="#E6E6E6"/>
<stop offset="0.856667" stop-color="#1A1A1A"/>
<stop offset="0.998739"/>
</linearGradient>
<linearGradient id="paint2_linear_22_3592" x1="-94.197" y1="219.103" x2="326.066" y2="362.825" gradientUnits="userSpaceOnUse">
<stop stop-color="white"/>
<stop offset="0.0436152" stop-color="#B4B4B4"/>
<stop offset="0.150732"/>
<stop offset="0.171421" stop-color="#171717"/>
<stop offset="0.385884" stop-color="white"/>
<stop offset="0.632551" stop-color="#E6E6E6"/>
<stop offset="0.856667" stop-color="#1A1A1A"/>
<stop offset="0.998739"/>
</linearGradient>
<linearGradient id="paint3_linear_22_3592" x1="-77.9222" y1="230.288" x2="304.485" y2="361.065" gradientUnits="userSpaceOnUse">
<stop stop-color="white"/>
<stop offset="0.0436152" stop-color="#B4B4B4"/>
<stop offset="0.150732"/>
<stop offset="0.171421" stop-color="#171717"/>
<stop offset="0.385884" stop-color="white"/>
<stop offset="0.632551" stop-color="#E6E6E6"/>
<stop offset="0.856667" stop-color="#1A1A1A"/>
<stop offset="0.998739"/>
</linearGradient>
<linearGradient id="paint4_linear_22_3592" x1="-61.6556" y1="241.459" x2="282.951" y2="359.309" gradientUnits="userSpaceOnUse">
<stop stop-color="white"/>
<stop offset="0.0436152" stop-color="#B4B4B4"/>
<stop offset="0.150732"/>
<stop offset="0.171421" stop-color="#171717"/>
<stop offset="0.385884" stop-color="white"/>
<stop offset="0.632551" stop-color="#E6E6E6"/>
<stop offset="0.856667" stop-color="#1A1A1A"/>
<stop offset="0.998739"/>
</linearGradient>
<linearGradient id="paint5_linear_22_3592" x1="-45.3728" y1="252.546" x2="261.476" y2="357.483" gradientUnits="userSpaceOnUse">
<stop stop-color="white"/>
<stop offset="0.0436152" stop-color="#B4B4B4"/>
<stop offset="0.150732"/>
<stop offset="0.171421" stop-color="#171717"/>
<stop offset="0.385884" stop-color="white"/>
<stop offset="0.632551" stop-color="#E6E6E6"/>
<stop offset="0.856667" stop-color="#1A1A1A"/>
<stop offset="0.998739"/>
</linearGradient>
<linearGradient id="paint6_linear_22_3592" x1="-29.0677" y1="263.491" x2="240.213" y2="355.58" gradientUnits="userSpaceOnUse">
<stop stop-color="white"/>
<stop offset="0.0436152" stop-color="#B4B4B4"/>
<stop offset="0.150732"/>
<stop offset="0.171421" stop-color="#171717"/>
<stop offset="0.385884" stop-color="white"/>
<stop offset="0.632551" stop-color="#E6E6E6"/>
<stop offset="0.856667" stop-color="#1A1A1A"/>
<stop offset="0.998739"/>
</linearGradient>
<linearGradient id="paint7_linear_22_3592" x1="-13.6547" y1="276.755" x2="218.354" y2="356.098" gradientUnits="userSpaceOnUse">
<stop stop-color="white"/>
<stop offset="0.0436152" stop-color="#B4B4B4"/>
<stop offset="0.150732"/>
<stop offset="0.171421" stop-color="#171717"/>
<stop offset="0.385884" stop-color="white"/>
<stop offset="0.632551" stop-color="#E6E6E6"/>
<stop offset="0.856667" stop-color="#1A1A1A"/>
<stop offset="0.998739"/>
</linearGradient>
</defs>
</svg>
