<svg width="42" height="42" viewBox="0 0 42 42" fill="none" xmlns="http://www.w3.org/2000/svg">
<path d="M41.9995 27.2243C41.9983 26.9999 41.9331 26.7774 41.8156 26.5863L36.0734 17.3168C35.8491 16.9548 35.4533 16.7344 35.0273 16.7344H28.875V11.5664C28.875 10.8869 28.3241 10.3359 27.6445 10.3359H23.7645C23.2147 5.67689 19.2419 2.05078 14.4375 2.05078C9.63309 2.05078 5.66032 5.67689 5.11055 10.3359H1.23047C0.550922 10.3359 0 10.8869 0 11.5664V35.4375C0 36.117 0.550922 36.668 1.23047 36.668H5.09381C5.63087 38.5594 7.37239 39.9492 9.43359 39.9492C11.4948 39.9492 13.2362 38.5594 13.7734 36.668H28.2267C28.7638 38.5594 30.5053 39.9492 32.5665 39.9492C34.6277 39.9492 36.3691 38.5594 36.9063 36.668H40.7695C41.4491 36.668 42 36.117 42 35.4375C42 35.4375 41.9995 27.2277 41.9995 27.2243ZM34.3421 19.1953L38.5599 26.0039H33.7969V23.9448C33.7969 23.2652 33.246 22.7143 32.5664 22.7143C31.8869 22.7143 31.3359 23.2652 31.3359 23.9448V26.0039H28.875V19.1953H34.3421ZM14.4375 4.51172C18.2596 4.51172 21.3691 7.6212 21.3691 11.4434C21.3691 15.2655 18.2596 18.375 14.4375 18.375C10.6154 18.375 7.50586 15.2655 7.50586 11.4434C7.50586 7.6212 10.6154 4.51172 14.4375 4.51172ZM2.46094 12.7969H5.14279C5.80092 17.3369 9.71791 20.8359 14.4375 20.8359C19.1571 20.8359 23.074 17.3369 23.7322 12.7969H26.4141V26.0039H2.46094V12.7969ZM9.43359 37.4883C8.30279 37.4883 7.38281 36.5683 7.38281 35.4375C7.38281 34.3067 8.30279 33.3867 9.43359 33.3867C10.5644 33.3867 11.4844 34.3067 11.4844 35.4375C11.4844 36.5683 10.5644 37.4883 9.43359 37.4883ZM32.5664 37.4883C31.4356 37.4883 30.5156 36.5683 30.5156 35.4375C30.5156 34.3067 31.4356 33.3867 32.5664 33.3867C33.6972 33.3867 34.6172 34.3067 34.6172 35.4375C34.6172 36.5683 33.6972 37.4883 32.5664 37.4883ZM39.5391 34.207H36.9062C36.3691 32.3156 34.6276 30.9258 32.5664 30.9258C30.5052 30.9258 28.7638 32.3156 28.2266 34.207H13.7734C13.2363 32.3156 11.4948 30.9258 9.43359 30.9258C7.37239 30.9258 5.63095 32.3156 5.09381 34.207H2.46094V28.4648H39.5391V34.207Z" fill="#1F1F1F"/>
<path d="M12.7213 14.5618C12.952 14.7926 13.265 14.9223 13.5913 14.9223C13.9176 14.9223 14.2305 14.7927 14.4613 14.5618L18.0968 10.9265C18.5773 10.446 18.5773 9.66687 18.0968 9.18633C17.6163 8.70579 16.8373 8.70579 16.3566 9.18633L13.5913 11.9517L12.3373 10.6977C11.8567 10.2171 11.0778 10.2171 10.5972 10.6977C10.1167 11.1781 10.1167 11.9573 10.5972 12.4378L12.7213 14.5618Z" fill="#005E9E"/>
</svg>
