<svg width="572" height="323" viewBox="0 0 572 323" fill="none" xmlns="http://www.w3.org/2000/svg">
<g opacity="0.35">
<mask id="mask0_22_3690" style="mask-type:alpha" maskUnits="userSpaceOnUse" x="19" y="-184" width="542" height="457">
<path d="M348.487 -166.825C338.643 -170.191 328.558 -173.219 318.249 -175.9C260.258 -190.983 216.783 -182.387 185.341 -149.619C158.097 -121.225 143.999 -79.1323 131.56 -41.9944C123.258 -17.2051 115.416 6.20941 104.846 21.5479C69.6594 72.6095 47.8604 79.208 34.8363 83.1505C27.2945 85.4334 22.3125 86.9415 19.6544 95.9379C17.0498 104.754 40.3096 125.088 92.8544 159.928C115.579 174.998 136.896 175.965 154.024 176.743C162.605 177.133 170.027 177.47 175.94 179.516L176.144 178.923L175.94 179.516C192.222 185.14 195.96 188.754 204.149 196.673C210.978 203.277 221.298 213.256 244.978 230.03C265.788 244.771 301.44 258.557 338.026 266.008C358.842 270.247 379.25 272.389 398.682 272.372C420.434 272.352 440.464 269.601 458.216 264.192C491.1 254.173 515.676 235.297 531.26 208.087C546.613 181.281 555.941 151.677 558.984 120.1C562.007 88.7332 558.68 57.0188 549.098 25.8377C535.149 -19.5504 508.255 -61.4956 471.321 -95.4627C451.631 -113.571 429.063 -129.472 404.244 -142.727C386.805 -152.04 368.137 -160.104 348.487 -166.825ZM114.92 169.455C107.976 167.08 100.794 163.702 93.4699 158.846C69.5725 143 52.064 130.384 39.9431 120.275C22.4596 105.693 19.8193 99.1475 20.6829 96.2241C23.1301 87.9408 27.3524 86.6628 35.0174 84.3426C48.1888 80.3554 70.2337 73.6825 105.677 22.2477C116.363 6.74139 124.236 -16.7681 132.573 -41.6579C144.963 -78.6512 159.006 -120.581 186.032 -148.747C217.163 -181.19 260.3 -189.678 317.909 -174.694C348.727 -166.679 377.593 -155.543 403.704 -141.599C428.454 -128.382 450.957 -112.526 470.587 -94.4727C507.385 -60.6307 534.177 -18.8527 548.066 26.3445C557.598 57.3609 560.908 88.9004 557.902 120.086C554.879 151.457 545.615 180.863 530.365 207.488C514.954 234.396 490.618 253.073 458.033 263.001C440.377 268.38 420.444 271.117 398.788 271.136C379.419 271.153 359.074 269.018 338.319 264.791C301.85 257.364 266.329 243.635 245.617 228.964C221.996 212.232 211.708 202.283 204.9 195.7C196.608 187.681 192.823 184.022 176.348 178.33C176.32 178.321 176.291 178.311 176.263 178.302C170.228 176.237 162.786 175.899 154.174 175.508C142.695 174.987 129.32 174.38 114.92 169.455Z" fill="url(#paint0_linear_22_3690)"/>
</mask>
<g mask="url(#mask0_22_3690)">
<path d="M348.487 -166.825C338.643 -170.191 328.558 -173.219 318.249 -175.9C260.258 -190.983 216.783 -182.387 185.341 -149.619C158.097 -121.225 143.999 -79.1323 131.56 -41.9944C123.258 -17.2051 115.416 6.20941 104.846 21.5479C69.6594 72.6095 47.8604 79.208 34.8363 83.1505C27.2945 85.4334 22.3125 86.9415 19.6544 95.9379C17.0498 104.754 40.3096 125.088 92.8544 159.928C115.579 174.998 136.896 175.965 154.024 176.743C162.605 177.133 170.027 177.47 175.94 179.516L176.144 178.923L175.94 179.516C192.222 185.14 195.96 188.754 204.149 196.673C210.978 203.277 221.298 213.256 244.978 230.03C265.788 244.771 301.44 258.557 338.026 266.008C358.842 270.247 379.25 272.389 398.682 272.372C420.434 272.352 440.464 269.601 458.216 264.192C491.1 254.173 515.676 235.297 531.26 208.087C546.613 181.281 555.941 151.677 558.984 120.1C562.007 88.7332 558.68 57.0188 549.098 25.8377C535.149 -19.5504 508.255 -61.4956 471.321 -95.4627C451.631 -113.571 429.063 -129.472 404.244 -142.727C386.805 -152.04 368.137 -160.104 348.487 -166.825ZM114.92 169.455C107.976 167.08 100.794 163.702 93.4699 158.846C69.5725 143 52.064 130.384 39.9431 120.275C22.4596 105.693 19.8193 99.1475 20.6829 96.2241C23.1301 87.9408 27.3524 86.6628 35.0174 84.3426C48.1888 80.3554 70.2337 73.6825 105.677 22.2477C116.363 6.74139 124.236 -16.7681 132.573 -41.6579C144.963 -78.6512 159.006 -120.581 186.032 -148.747C217.163 -181.19 260.3 -189.678 317.909 -174.694C348.727 -166.679 377.593 -155.543 403.704 -141.599C428.454 -128.382 450.957 -112.526 470.587 -94.4727C507.385 -60.6307 534.177 -18.8527 548.066 26.3445C557.598 57.3609 560.908 88.9004 557.902 120.086C554.879 151.457 545.615 180.863 530.365 207.488C514.954 234.396 490.618 253.073 458.033 263.001C440.377 268.38 420.444 271.117 398.788 271.136C379.419 271.153 359.074 269.018 338.319 264.791C301.85 257.364 266.329 243.635 245.617 228.964C221.996 212.232 211.708 202.283 204.9 195.7C196.608 187.681 192.823 184.022 176.348 178.33C176.32 178.321 176.291 178.311 176.263 178.302C170.228 176.237 162.786 175.899 154.174 175.508C142.695 174.987 129.32 174.38 114.92 169.455Z" fill="#C0C0C0"/>
</g>
<mask id="mask1_22_3690" style="mask-type:alpha" maskUnits="userSpaceOnUse" x="41" y="-159" width="498" height="418">
<path d="M346.114 -143.506C338.155 -146.228 330.021 -148.708 321.725 -150.94C269.539 -165.123 230.103 -158.272 201.164 -129.997C176.024 -105.433 162.405 -68.2923 150.39 -35.5235C142.021 -12.6976 134.116 8.86204 123.491 22.9288C90.1403 68.1949 69.1305 74.8078 56.5778 78.7588C48.9913 81.1468 43.979 82.7241 41.2978 91.4262C39.7133 96.3181 45.1481 104.719 57.4533 116.385C68.5234 126.881 84.727 139.599 104.312 153.166C124.722 167.441 143.916 169.028 159.338 170.304C166.793 170.921 173.232 171.453 178.591 173.277L178.591 173.277C195.59 179.027 199.26 182.045 210.154 190.972C217.473 196.97 227.498 205.185 246.607 218.459C266.179 232.062 299.458 244.875 333.457 251.898C352.902 255.914 371.92 257.983 389.984 258.045C410.251 258.115 428.872 255.632 445.33 250.665C475.022 241.704 497.306 224.85 511.565 200.573C525.858 176.123 534.654 149.073 537.71 120.175C540.747 91.4593 537.965 62.4013 529.44 33.8086C517.121 -7.50649 493.06 -45.7703 459.856 -76.8457C442.152 -93.4146 421.821 -108.005 399.426 -120.21C382.822 -129.259 364.965 -137.058 346.114 -143.506ZM126.826 163.346C119.767 160.931 112.418 157.413 104.907 152.16C63.4813 123.465 39.4759 100.306 42.2566 91.7196C44.7404 83.6578 49.264 82.2342 56.7583 79.8753C69.4394 75.8841 90.6636 69.2037 124.244 23.6262C134.984 9.40615 142.923 -12.2466 151.329 -35.1706C163.294 -67.8041 176.857 -104.792 201.786 -129.149C230.433 -157.14 269.559 -163.898 321.397 -149.81C349.277 -142.306 375.357 -131.992 398.912 -119.154C421.242 -106.984 441.512 -92.4383 459.161 -75.921C492.238 -44.9646 516.203 -6.85953 528.468 34.2754C536.946 62.7121 539.714 91.6043 536.696 120.15C533.66 148.854 524.925 175.719 510.731 199.999C496.636 223.997 474.575 240.668 445.161 249.545C423.421 256.106 386.443 261.642 333.734 250.755C299.842 243.755 266.684 230.993 247.201 217.453C228.121 204.199 218.112 195.997 210.804 190.009C200.116 181.25 196.106 177.974 178.97 172.162C173.512 170.305 167.024 169.768 159.512 169.147C149.883 168.35 138.771 167.431 126.826 163.346Z" fill="url(#paint1_linear_22_3690)"/>
</mask>
<g mask="url(#mask1_22_3690)">
<path d="M346.114 -143.506C338.154 -146.228 330.02 -148.708 321.724 -150.941C269.539 -165.123 230.103 -158.272 201.164 -129.997C176.024 -105.433 162.405 -68.2926 150.39 -35.5237C142.02 -12.6978 134.115 8.8618 123.491 22.9286C90.1399 68.1947 69.1301 74.8076 56.5773 78.7586C48.9908 81.1465 43.9785 82.7238 41.2973 91.426C39.7129 96.3178 45.1476 104.719 57.4528 116.385C68.5229 126.881 84.7265 139.599 104.312 153.165C124.722 167.441 143.915 169.028 159.337 170.304C166.793 170.92 173.232 171.453 178.59 173.277L178.59 173.277C195.59 179.026 199.259 182.045 210.153 190.972C217.473 196.97 227.497 205.185 246.606 218.459C266.178 232.062 299.458 244.875 333.456 251.898C352.901 255.914 371.92 257.982 389.983 258.045C410.25 258.115 428.872 255.632 445.33 250.665C475.021 241.703 497.306 224.85 511.565 200.573C525.858 176.122 534.654 149.073 537.71 120.175C540.747 91.4591 537.964 62.401 529.439 33.8083C517.121 -7.50673 493.059 -45.7705 459.856 -76.8459C442.152 -93.4148 421.82 -108.005 399.425 -120.21C382.822 -129.26 364.965 -137.059 346.114 -143.506ZM126.825 163.345C119.766 160.931 112.417 157.413 104.906 152.16C63.4808 123.465 39.4754 100.306 42.2561 91.7194C44.74 83.6575 49.2635 82.234 56.7578 79.8751C69.4389 75.8839 90.6631 69.2034 124.243 23.626C134.983 9.4059 142.923 -12.2469 151.328 -35.1709C163.294 -67.8044 176.856 -104.792 201.785 -129.15C230.433 -157.14 269.558 -163.898 321.397 -149.81C349.277 -142.306 375.357 -131.992 398.912 -119.155C421.241 -106.984 441.512 -92.4386 459.161 -75.9212C492.237 -44.9649 516.203 -6.85977 528.468 34.2752C536.946 62.7118 539.714 91.6041 536.695 120.15C533.66 148.853 524.924 175.718 510.731 199.999C496.636 223.997 474.574 240.667 445.16 249.545C423.421 256.106 386.442 261.642 333.733 250.755C299.841 243.755 266.683 230.993 247.201 217.453C228.12 204.199 218.112 195.997 210.803 190.008C200.115 181.25 196.105 177.974 178.969 172.162C173.511 170.304 167.023 169.768 159.511 169.146C149.883 168.35 138.771 167.43 126.825 163.345Z" fill="#C0C0C0"/>
</g>
<mask id="mask2_22_3690" style="mask-type:alpha" maskUnits="userSpaceOnUse" x="62" y="-134" width="456" height="378">
<path d="M344.02 -120.138C337.876 -122.239 331.606 -124.186 325.198 -125.981C278.777 -139.264 243.369 -134.122 216.954 -110.262C193.936 -89.4705 180.828 -57.251 169.263 -28.824C160.814 -8.05658 152.834 11.5588 142.136 24.3088C110.683 63.7919 90.4815 70.3834 78.4114 74.3216C70.7296 76.8283 65.6548 78.4842 62.9382 86.9132C58.9209 98.3168 87.5056 125.747 115.766 146.401C133.951 159.981 151.099 162.188 164.879 163.961C171.128 164.765 176.524 165.46 181.239 167.036L181.24 167.037C200.592 173.448 203.77 175.708 221.418 188.229C228.064 192.944 236.334 198.812 248.233 206.887C260.395 215.151 278.33 223.3 298.734 229.83C321.694 237.18 345.762 241.825 368.335 243.263C395.049 244.964 418.759 242.215 438.805 235.09C462.157 226.79 480.01 212.649 491.868 193.059C505.104 170.962 513.372 146.464 516.444 120.243C519.498 94.1735 517.26 67.7679 509.793 41.7599C499.1 4.51881 477.868 -30.0611 448.391 -58.2419C420.031 -85.3556 384.983 -106.128 344.02 -120.138ZM139.059 157.516C131.8 155.033 124.165 151.316 116.342 145.474C82.6837 120.876 60.5997 96.3738 63.8274 87.2114C66.36 79.3539 70.9633 77.8517 78.5896 75.3633C90.7693 71.3891 111.154 64.7379 142.806 25.0041C153.621 12.1162 161.637 -7.58924 170.125 -28.4518C181.638 -56.7538 194.689 -88.8318 217.502 -109.438C243.647 -133.053 278.771 -138.12 324.882 -124.926C373.889 -111.193 415.219 -88.4689 447.735 -57.3831C477.093 -29.3156 498.237 5.11499 508.88 42.1858C516.306 68.0467 518.532 94.2959 515.496 120.205C512.446 146.245 504.236 170.572 491.095 192.508C479.382 211.861 461.72 225.84 438.604 234.056C418.673 241.14 395.08 243.873 368.482 242.179C345.974 240.745 321.974 236.113 299.076 228.783C278.744 222.272 260.882 214.162 248.781 205.94C236.89 197.87 228.623 192.005 221.981 187.292C204.248 174.712 201.054 172.448 181.589 165.992C176.801 164.391 171.368 163.692 165.078 162.882C157.334 161.885 148.517 160.75 139.059 157.516Z" fill="url(#paint2_linear_22_3690)"/>
</mask>
<g mask="url(#mask2_22_3690)">
<path d="M344.02 -120.138C337.876 -122.239 331.606 -124.186 325.198 -125.981C278.777 -139.264 243.369 -134.122 216.954 -110.262C193.936 -89.4705 180.828 -57.251 169.263 -28.824C160.814 -8.05658 152.834 11.5588 142.136 24.3088C110.683 63.7919 90.4815 70.3834 78.4114 74.3216C70.7296 76.8283 65.6548 78.4842 62.9382 86.9132C58.9209 98.3168 87.5056 125.747 115.766 146.401C133.951 159.981 151.099 162.188 164.879 163.961C171.128 164.765 176.524 165.46 181.239 167.036L181.24 167.037C200.592 173.448 203.77 175.708 221.418 188.229C228.064 192.944 236.334 198.812 248.233 206.887C260.395 215.151 278.33 223.3 298.734 229.83C321.694 237.18 345.762 241.825 368.335 243.263C395.049 244.964 418.759 242.215 438.805 235.09C462.157 226.79 480.01 212.649 491.868 193.059C505.104 170.962 513.372 146.464 516.444 120.243C519.498 94.1735 517.26 67.7679 509.793 41.7599C499.1 4.51881 477.868 -30.0611 448.391 -58.2419C420.031 -85.3556 384.983 -106.128 344.02 -120.138ZM139.059 157.516C131.8 155.033 124.165 151.316 116.342 145.474C82.6837 120.876 60.5997 96.3738 63.8274 87.2114C66.36 79.3539 70.9633 77.8517 78.5896 75.3633C90.7693 71.3891 111.154 64.7379 142.806 25.0041C153.621 12.1162 161.637 -7.58924 170.125 -28.4518C181.638 -56.7538 194.689 -88.8318 217.502 -109.438C243.647 -133.053 278.771 -138.12 324.882 -124.926C373.889 -111.193 415.219 -88.4689 447.735 -57.3831C477.093 -29.3156 498.237 5.11499 508.88 42.1858C516.306 68.0467 518.532 94.2959 515.496 120.205C512.446 146.245 504.236 170.572 491.095 192.508C479.382 211.861 461.72 225.84 438.604 234.056C418.673 241.14 395.08 243.873 368.482 242.179C345.974 240.745 321.974 236.113 299.076 228.783C278.744 222.272 260.882 214.162 248.781 205.94C236.89 197.87 228.623 192.005 221.981 187.292C204.248 174.712 201.054 172.448 181.589 165.992C176.801 164.391 171.368 163.692 165.078 162.882C157.334 161.885 148.517 160.75 139.059 157.516Z" fill="#C0C0C0"/>
</g>
<mask id="mask3_22_3690" style="mask-type:alpha" maskUnits="userSpaceOnUse" x="84" y="-109" width="413" height="339">
<path d="M341.601 -96.9154C337.363 -98.3648 333.055 -99.7333 328.674 -101.022C287.964 -113.405 256.57 -109.926 232.702 -90.3858C211.826 -73.2957 199.808 -47.1335 188.184 -21.8327C179.645 -3.24415 171.579 14.3135 160.784 25.6906C131.321 59.4054 112.704 65.6755 100.385 69.8245C92.2566 72.5623 87.3504 74.215 84.5811 82.4015C80.6518 92.7203 99.3787 117.87 127.222 139.636C143.344 152.711 158.597 155.544 170.854 157.82C175.543 158.691 179.971 159.514 183.889 160.797L183.89 160.797L185.877 161.438C208.726 168.808 210.59 169.411 249.861 195.315C260.891 202.605 277.684 210.173 295.925 216.084C316.908 222.879 338.838 227.293 359.343 228.846C383.706 230.693 405.328 228.537 423.607 222.439C444.93 215.325 461.269 202.912 472.171 185.545C484.357 165.802 492.102 143.853 495.194 120.303C498.27 96.8754 496.579 73.1171 490.169 49.6881C481.096 16.5231 462.688 -14.3705 436.934 -39.6521C411.32 -64.797 379.296 -84.024 341.601 -96.9154ZM151.881 152.175C144.279 149.575 136.144 145.572 127.78 138.789C100.695 117.616 81.6862 92.4575 85.401 82.7016C87.9987 75.0222 92.7263 73.4299 100.559 70.7917C112.22 66.8641 131.738 60.2903 161.369 26.3826C172.279 14.8854 180.384 -2.75808 188.966 -21.4375C200.534 -46.6187 212.495 -72.6572 233.174 -89.5855C256.793 -108.922 287.932 -112.342 328.37 -100.043C371.594 -87.3262 407.912 -66.7426 436.315 -38.8601C461.959 -13.6853 480.287 17.0668 489.316 50.0727C495.688 73.3628 497.369 96.9743 494.314 120.252C491.244 143.633 483.556 165.424 471.461 185.018C460.698 202.164 444.538 214.43 423.436 221.471C405.262 227.534 383.747 229.676 359.489 227.838C339.043 226.288 317.174 221.887 296.245 215.109C278.064 209.222 261.339 201.683 250.364 194.429C211.007 168.468 209.132 167.861 186.197 160.464L184.212 159.823C180.247 158.525 175.795 157.698 171.081 156.822C165.279 155.745 158.801 154.542 151.881 152.175Z" fill="url(#paint3_linear_22_3690)"/>
</mask>
<g mask="url(#mask3_22_3690)">
<path d="M341.601 -96.9154C337.363 -98.3648 333.055 -99.7333 328.674 -101.022C287.964 -113.405 256.57 -109.926 232.702 -90.3858C211.826 -73.2957 199.808 -47.1335 188.184 -21.8327C179.645 -3.24415 171.579 14.3135 160.784 25.6906C131.321 59.4054 112.704 65.6755 100.385 69.8245C92.2566 72.5623 87.3504 74.215 84.5811 82.4015C80.6518 92.7203 99.3787 117.87 127.222 139.636C143.344 152.711 158.597 155.544 170.854 157.82C175.543 158.691 179.971 159.514 183.889 160.797L183.89 160.797L185.877 161.438C208.726 168.808 210.59 169.411 249.861 195.315C260.891 202.605 277.684 210.173 295.925 216.084C316.908 222.879 338.838 227.293 359.343 228.846C383.706 230.693 405.328 228.537 423.607 222.439C444.93 215.325 461.269 202.912 472.171 185.545C484.357 165.802 492.102 143.853 495.194 120.303C498.27 96.8754 496.579 73.1171 490.169 49.6881C481.096 16.5231 462.688 -14.3705 436.934 -39.6521C411.32 -64.797 379.296 -84.024 341.601 -96.9154ZM151.881 152.175C144.279 149.575 136.144 145.572 127.78 138.789C100.695 117.616 81.6862 92.4575 85.401 82.7016C87.9987 75.0222 92.7263 73.4299 100.559 70.7917C112.22 66.8641 131.738 60.2903 161.369 26.3826C172.279 14.8854 180.384 -2.75808 188.966 -21.4375C200.534 -46.6187 212.495 -72.6572 233.174 -89.5855C256.793 -108.922 287.932 -112.342 328.37 -100.043C371.594 -87.3262 407.912 -66.7426 436.315 -38.8601C461.959 -13.6853 480.287 17.0668 489.316 50.0727C495.688 73.3628 497.369 96.9743 494.314 120.252C491.244 143.633 483.556 165.424 471.461 185.018C460.698 202.164 444.538 214.43 423.436 221.471C405.262 227.534 383.747 229.676 359.489 227.838C339.043 226.288 317.174 221.887 296.245 215.109C278.064 209.222 261.339 201.683 250.364 194.429C211.007 168.468 209.132 167.861 186.197 160.464L184.212 159.823C180.247 158.525 175.795 157.698 171.081 156.822C165.279 155.745 158.801 154.542 151.881 152.175Z" fill="#C0C0C0"/>
</g>
<mask id="mask4_22_3690" style="mask-type:alpha" maskUnits="userSpaceOnUse" x="105" y="-84" width="371" height="300">
<path d="M339.175 -73.7651C336.856 -74.5579 334.516 -75.3234 332.148 -76.0623C253.561 -101.805 228.901 -55.4045 207.143 -14.4664C198.504 1.78839 190.345 17.1413 179.433 27.0737C152.093 55.0407 134.324 61.1781 122.566 65.2394C114.149 68.1466 109.069 69.9015 106.222 77.8898C104.187 82.8606 106.316 91.5197 112.072 101.623C118.184 112.351 127.632 123.448 138.675 132.869C153.096 145.893 166.221 149.222 177.802 152.159C180.874 152.939 183.776 153.675 186.538 154.557L186.54 154.558C190.706 155.863 194.367 156.908 197.597 157.83C212.515 162.089 221.519 164.66 251.489 183.744C270.591 195.944 309.677 210.751 350.349 214.43C372.364 216.421 391.897 214.859 408.406 209.787C427.7 203.859 442.526 193.175 452.473 178.032C463.616 160.641 470.845 141.236 473.962 120.352C477.066 99.5594 475.926 78.4409 470.575 57.5833C463.112 28.4956 447.52 1.29295 425.483 -21.0843C402.639 -44.2804 373.629 -61.982 339.175 -73.7651ZM165.607 147.705C157.402 144.899 148.582 140.564 139.218 132.108C115.492 111.866 103.184 87.4476 106.973 78.189C109.661 70.6479 114.581 68.9484 122.733 66.1327C134.569 62.0447 152.455 55.8666 179.929 27.761C190.953 17.7285 199.154 2.29577 207.838 -14.0429C218.858 -34.777 230.252 -56.2165 248.773 -69.5593C269.843 -84.7385 297.019 -86.5703 331.854 -75.1593C369.298 -63.4697 400.603 -45.0319 424.9 -20.3595C446.837 1.91616 462.357 28.9861 469.781 57.9244C475.099 78.6515 476.232 99.6327 473.15 120.286C470.056 141.014 462.882 160.273 451.827 177.527C439.061 196.961 411.116 218.981 350.495 213.497C309.937 209.828 270.979 195.073 251.945 182.917C221.888 163.779 212.848 161.197 197.87 156.921C194.645 156 190.989 154.956 186.832 153.654C184.05 152.766 181.138 152.027 178.055 151.245C174.085 150.238 169.931 149.184 165.607 147.705Z" fill="url(#paint4_linear_22_3690)"/>
</mask>
<g mask="url(#mask4_22_3690)">
<path d="M339.175 -73.7651C336.856 -74.5579 334.516 -75.3234 332.148 -76.0623C253.561 -101.805 228.901 -55.4045 207.143 -14.4664C198.504 1.78839 190.345 17.1413 179.433 27.0737C152.093 55.0407 134.324 61.1781 122.566 65.2394C114.149 68.1466 109.069 69.9015 106.222 77.8898C104.187 82.8606 106.316 91.5197 112.072 101.623C118.184 112.351 127.632 123.448 138.675 132.869C153.096 145.893 166.221 149.222 177.802 152.159C180.874 152.939 183.776 153.675 186.538 154.557L186.54 154.558C190.706 155.863 194.367 156.908 197.597 157.83C212.515 162.089 221.519 164.66 251.489 183.744C270.591 195.944 309.677 210.751 350.349 214.43C372.364 216.421 391.897 214.859 408.406 209.787C427.7 203.859 442.526 193.175 452.473 178.032C463.616 160.641 470.845 141.236 473.962 120.352C477.066 99.5594 475.926 78.4409 470.575 57.5833C463.112 28.4956 447.52 1.29295 425.483 -21.0843C402.639 -44.2804 373.629 -61.982 339.175 -73.7651ZM165.607 147.705C157.402 144.899 148.582 140.564 139.218 132.108C115.492 111.866 103.184 87.4476 106.973 78.189C109.661 70.6479 114.581 68.9484 122.733 66.1327C134.569 62.0447 152.455 55.8666 179.929 27.761C190.953 17.7285 199.154 2.29577 207.838 -14.0429C218.858 -34.777 230.252 -56.2165 248.773 -69.5593C269.843 -84.7385 297.019 -86.5703 331.854 -75.1593C369.298 -63.4697 400.603 -45.0319 424.9 -20.3595C446.837 1.91616 462.357 28.9861 469.781 57.9244C475.099 78.6515 476.232 99.6327 473.15 120.286C470.056 141.014 462.882 160.273 451.827 177.527C439.061 196.961 411.116 218.981 350.495 213.497C309.937 209.828 270.979 195.073 251.945 182.917C221.888 163.779 212.848 161.197 197.87 156.921C194.645 156 190.989 154.956 186.832 153.654C184.05 152.766 181.138 152.027 178.055 151.245C174.085 150.238 169.931 149.184 165.607 147.705Z" fill="#C0C0C0"/>
</g>
<mask id="mask5_22_3690" style="mask-type:alpha" maskUnits="userSpaceOnUse" x="126" y="-59" width="329" height="261">
<path d="M333.115 -51.9827C304.766 -61.6776 282.121 -61.0459 263.959 -50.0683C247.438 -40.0832 236.597 -23.0632 226.112 -6.60418C217.376 7.11143 209.124 20.0664 198.085 28.4592C173.079 50.7073 156.235 56.6122 145.089 60.5194C136.196 63.6373 130.828 65.519 127.865 73.3789C123.311 83.7783 131.857 108.55 150.128 126.1C163.922 140.53 176.088 144.28 187.854 147.905L189.19 148.318C194.872 150.032 199.755 151.104 204.477 152.142C217.135 154.921 229.09 157.548 253.118 172.173C270.61 182.863 305.684 196.136 341.357 200.013C371.423 203.281 411.689 200.818 432.775 170.521C452.989 140.45 459.641 102.149 451.03 65.4313C445.165 40.4237 432.376 16.9168 414.046 -2.54782C394.006 -23.8285 367.999 -40.034 336.738 -50.7252C336.367 -50.852 335.997 -50.9773 335.626 -51.1027C334.784 -51.4049 333.947 -51.6982 333.115 -51.9827ZM181.065 144.819C171.544 141.563 161.616 136.891 150.66 125.43C131.129 106.668 124.62 82.6437 128.548 73.6742C131.364 66.207 136.589 64.3753 145.246 61.3403C156.451 57.4123 173.384 51.476 198.489 29.1386C209.631 20.6684 217.928 7.64367 226.712 -6.14592C237.137 -22.5139 247.918 -39.4386 264.262 -49.3168C282.758 -60.4961 305.998 -60.8046 335.34 -50.2771C335.709 -50.1526 336.082 -50.0262 336.449 -49.9006C367.619 -39.241 393.533 -23.0953 413.499 -1.89235C431.739 17.4763 444.463 40.8591 450.296 65.728C454.558 83.9027 455.138 102.264 452.018 120.302C448.891 138.386 442.221 155.119 432.194 170.036C411.35 199.985 371.37 202.403 341.502 199.156C305.925 195.289 270.96 182.06 253.527 171.405C229.407 156.724 217.401 154.087 204.691 151.296C199.98 150.261 195.11 149.191 189.451 147.484L188.118 147.073C185.786 146.354 183.438 145.63 181.065 144.819Z" fill="url(#paint5_linear_22_3690)"/>
</mask>
<g mask="url(#mask5_22_3690)">
<path d="M333.115 -51.9827C304.766 -61.6776 282.121 -61.0459 263.959 -50.0683C247.438 -40.0832 236.597 -23.0632 226.112 -6.60418C217.376 7.11143 209.124 20.0664 198.085 28.4592C173.079 50.7073 156.235 56.6122 145.089 60.5194C136.196 63.6373 130.828 65.519 127.865 73.3789C123.311 83.7783 131.857 108.55 150.128 126.1C163.922 140.53 176.088 144.28 187.854 147.905L189.19 148.318C194.872 150.032 199.755 151.104 204.477 152.142C217.135 154.921 229.09 157.548 253.118 172.173C270.61 182.863 305.684 196.136 341.357 200.013C371.423 203.281 411.689 200.818 432.775 170.521C452.989 140.45 459.641 102.149 451.03 65.4313C445.165 40.4237 432.376 16.9168 414.046 -2.54782C394.006 -23.8285 367.999 -40.034 336.738 -50.7252C336.367 -50.852 335.997 -50.9773 335.626 -51.1027C334.784 -51.4049 333.947 -51.6982 333.115 -51.9827ZM181.065 144.819C171.544 141.563 161.616 136.891 150.66 125.43C131.129 106.668 124.62 82.6437 128.548 73.6742C131.364 66.207 136.589 64.3753 145.246 61.3403C156.451 57.4123 173.384 51.476 198.489 29.1386C209.631 20.6684 217.928 7.64367 226.712 -6.14592C237.137 -22.5139 247.918 -39.4386 264.262 -49.3168C282.758 -60.4961 305.998 -60.8046 335.34 -50.2771C335.709 -50.1526 336.082 -50.0262 336.449 -49.9006C367.619 -39.241 393.533 -23.0953 413.499 -1.89235C431.739 17.4763 444.463 40.8591 450.296 65.728C454.558 83.9027 455.138 102.264 452.018 120.302C448.891 138.386 442.221 155.119 432.194 170.036C411.35 199.985 371.37 202.403 341.502 199.156C305.925 195.289 270.96 182.06 253.527 171.405C229.407 156.724 217.401 154.087 204.691 151.296C199.98 150.261 195.11 149.191 189.451 147.484L188.118 147.073C185.786 146.354 183.438 145.63 181.065 144.819Z" fill="#C0C0C0"/>
</g>
<mask id="mask6_22_3690" style="mask-type:alpha" maskUnits="userSpaceOnUse" x="147" y="-35" width="287" height="223">
<path d="M331.619 -28.938C310.885 -36.0297 293.728 -36.2124 279.348 -29.5322C265.031 -22.882 254.845 -10.2695 244.994 1.92781C236.578 12.3482 227.875 23.1241 216.737 29.8485C194.424 46.4223 178.655 51.9327 168.22 55.5792C158.513 58.9715 152.653 61.019 149.507 68.8677C144.957 78.619 147.388 103.143 161.577 119.324C171.2 131.822 180.254 138.629 191.838 142.077L191.84 142.078C198.009 143.854 203.595 144.669 209.509 145.532C222.007 147.355 234.932 149.24 254.747 160.601C270.728 169.816 301.834 181.568 332.363 185.596C358.819 189.087 394.297 188.002 413.075 163.009C431.308 137.57 438.044 104.842 431.564 73.2095C427.276 52.2845 417.272 32.4809 402.633 15.9398C386.44 -2.35656 365.065 -16.5149 339.102 -26.1421C336.559 -27.1698 334.062 -28.1025 331.619 -28.938ZM190.03 140.662C179.536 137.073 171.079 130.414 162.104 118.759C148.104 102.793 145.66 78.7209 150.122 69.1566C153.131 61.6512 158.542 59.7608 168.362 56.3289C178.838 52.6681 194.67 47.136 217.044 30.5143C228.272 23.7379 237.021 12.904 245.483 2.42706C255.274 -9.69676 265.4 -22.2336 279.554 -28.8084C295.459 -36.1965 314.843 -35.0776 338.823 -25.3954C364.701 -15.7989 385.995 -1.69655 402.121 16.5237C416.68 32.974 426.628 52.6612 430.888 73.4576C437.319 104.848 430.64 137.318 412.562 162.542C394.011 187.232 358.789 188.283 332.509 184.815C302.059 180.797 271.041 169.079 255.107 159.893C235.195 148.476 222.216 146.583 209.663 144.752C203.77 143.892 198.203 143.08 192.071 141.315C191.382 141.109 190.701 140.892 190.03 140.662Z" fill="url(#paint6_linear_22_3690)"/>
</mask>
<g mask="url(#mask6_22_3690)">
<path d="M331.619 -28.938C310.885 -36.0297 293.728 -36.2124 279.348 -29.5322C265.031 -22.882 254.845 -10.2695 244.994 1.92781C236.578 12.3482 227.875 23.1241 216.737 29.8485C194.424 46.4223 178.655 51.9327 168.22 55.5792C158.513 58.9715 152.653 61.019 149.507 68.8677C144.957 78.619 147.388 103.143 161.577 119.324C171.2 131.822 180.254 138.629 191.838 142.077L191.84 142.078C198.009 143.854 203.595 144.669 209.509 145.532C222.007 147.355 234.932 149.24 254.747 160.601C270.728 169.816 301.834 181.568 332.363 185.596C358.819 189.087 394.297 188.002 413.075 163.009C431.308 137.57 438.044 104.842 431.564 73.2095C427.276 52.2845 417.272 32.4809 402.633 15.9398C386.44 -2.35656 365.065 -16.5149 339.102 -26.1421C336.559 -27.1698 334.062 -28.1025 331.619 -28.938ZM190.03 140.662C179.536 137.073 171.079 130.414 162.104 118.759C148.104 102.793 145.66 78.7209 150.122 69.1566C153.131 61.6512 158.542 59.7608 168.362 56.3289C178.838 52.6681 194.67 47.136 217.044 30.5143C228.272 23.7379 237.021 12.904 245.483 2.42706C255.274 -9.69676 265.4 -22.2336 279.554 -28.8084C295.459 -36.1965 314.843 -35.0776 338.823 -25.3954C364.701 -15.7989 385.995 -1.69655 402.121 16.5237C416.68 32.974 426.628 52.6612 430.888 73.4576C437.319 104.848 430.64 137.318 412.562 162.542C394.011 187.232 358.789 188.283 332.509 184.815C302.059 180.797 271.041 169.079 255.107 159.893C235.195 148.476 222.216 146.583 209.663 144.752C203.77 143.892 198.203 143.08 192.071 141.315C191.382 141.109 190.701 140.892 190.03 140.662Z" fill="#C0C0C0"/>
</g>
<mask id="mask7_22_3690" style="mask-type:alpha" maskUnits="userSpaceOnUse" x="166" y="-11" width="248" height="185">
<path d="M329.953 -6.36025C296.548 -17.7851 280.432 -3.57588 263.474 11.3745C255.11 18.7473 246.462 26.3717 235.39 31.2439C216.457 42.2245 202.673 46.8589 192.609 50.2429C181 54.1462 174.605 56.2966 171.149 64.3576C168.531 69.6429 166.836 78.2463 166.735 86.7898C166.612 97.1161 168.845 106.261 173.022 112.54C179.189 124.037 184.695 133.069 194.488 135.838L194.49 135.838C200.689 137.52 207.095 137.988 213.878 138.483C226.121 139.376 239.997 140.389 256.377 149.03C267.706 155.053 294.566 166.495 323.369 171.179C338.354 173.616 351.621 173.835 362.803 171.83C376.011 169.462 386.297 163.967 393.372 155.5C409.7 134.682 416.576 107.488 412.244 80.8802C409.501 64.0395 402.249 47.9495 391.271 34.3491C379.132 19.309 362.75 7.35506 342.582 -1.18069C338.11 -3.29424 333.91 -5.00721 329.953 -6.36025ZM193.624 134.813C184.695 131.759 179.436 123.072 173.55 112.102C164.002 97.7457 167.272 73.5754 171.698 64.6371C175.025 56.8768 181.314 54.7621 192.731 50.9233C202.821 47.5309 216.639 42.8846 235.597 31.8876C246.732 26.9895 255.422 19.3285 263.826 11.92C273.408 3.47306 282.458 -4.50549 294.452 -7.99886C307.969 -11.9356 323.173 -9.557 342.304 -0.515362C362.399 7.98991 378.71 19.8896 390.791 34.8571C401.699 48.3711 408.904 64.353 411.627 81.0752C415.923 107.459 409.108 134.421 392.931 155.048C385.973 163.373 375.821 168.787 362.765 171.127C351.646 173.121 338.441 172.901 323.517 170.475C294.782 165.802 267.988 154.388 256.687 148.38C240.21 139.687 226.274 138.67 213.979 137.773C207.223 137.28 200.841 136.814 194.692 135.146C194.331 135.043 193.974 134.932 193.624 134.813Z" fill="url(#paint7_linear_22_3690)"/>
</mask>
<g mask="url(#mask7_22_3690)">
<path d="M329.953 -6.36025C296.548 -17.7851 280.432 -3.57588 263.474 11.3745C255.11 18.7473 246.462 26.3717 235.39 31.2439C216.457 42.2245 202.673 46.8589 192.609 50.2429C181 54.1462 174.605 56.2966 171.149 64.3576C168.531 69.6429 166.836 78.2463 166.735 86.7898C166.612 97.1161 168.845 106.261 173.022 112.54C179.189 124.037 184.695 133.069 194.488 135.838L194.49 135.838C200.689 137.52 207.095 137.988 213.878 138.483C226.121 139.376 239.997 140.389 256.377 149.03C267.706 155.053 294.566 166.495 323.369 171.179C338.354 173.616 351.621 173.835 362.803 171.83C376.011 169.462 386.297 163.967 393.372 155.5C409.7 134.682 416.576 107.488 412.244 80.8802C409.501 64.0395 402.249 47.9495 391.271 34.3491C379.132 19.309 362.75 7.35506 342.582 -1.18069C338.11 -3.29424 333.91 -5.00721 329.953 -6.36025ZM193.624 134.813C184.695 131.759 179.436 123.072 173.55 112.102C164.002 97.7457 167.272 73.5754 171.698 64.6371C175.025 56.8768 181.314 54.7621 192.731 50.9233C202.821 47.5309 216.639 42.8846 235.597 31.8876C246.732 26.9895 255.422 19.3285 263.826 11.92C273.408 3.47306 282.458 -4.50549 294.452 -7.99886C307.969 -11.9356 323.173 -9.557 342.304 -0.515362C362.399 7.98991 378.71 19.8896 390.791 34.8571C401.699 48.3711 408.904 64.353 411.627 81.0752C415.923 107.459 409.108 134.421 392.931 155.048C385.973 163.373 375.821 168.787 362.765 171.127C351.646 173.121 338.441 172.901 323.517 170.475C294.782 165.802 267.988 154.388 256.687 148.38C240.21 139.687 226.274 138.67 213.979 137.773C207.223 137.28 200.841 136.814 194.692 135.146C194.331 135.043 193.974 134.932 193.624 134.813Z" fill="#C0C0C0"/>
</g>
<mask id="mask8_22_3690" style="mask-type:alpha" maskUnits="userSpaceOnUse" x="183" y="12" width="211" height="148">
<path d="M328.021 15.1906C307.845 8.28928 295.302 14.5124 280.265 21.9712C272.414 25.8642 264.298 29.8904 254.041 32.6471C240.069 38.2143 229.104 41.4736 220.293 44.0924C205.176 48.5859 196.848 51.061 192.791 59.8485C187.748 69.4728 179.848 93.5995 184.457 105.713C184.667 106.608 184.871 107.51 185.076 108.412C187.217 117.831 189.434 127.57 197.138 129.598L197.141 129.599C203.159 131.109 210.428 131.134 218.124 131.161C230.576 131.204 244.689 131.252 258.009 137.459C272.405 144.236 345.64 176.595 373.666 147.994C388.235 131.794 395.36 110.069 393.224 88.3778C391.949 75.4358 387.51 63.4051 380.029 52.6195C371.877 40.8658 360.45 31.1638 346.064 23.7841C339.375 19.8271 333.423 17.0379 328.021 15.1906ZM196.627 128.77C189.761 126.422 187.657 117.162 185.62 108.197C185.413 107.287 185.207 106.377 184.995 105.473L184.983 105.432C180.434 93.528 188.272 69.6627 193.274 60.1156C197.208 51.5958 205.44 49.1491 220.384 44.7074C229.205 42.0852 240.184 38.8221 254.148 33.2554C264.428 30.4947 272.57 26.4561 280.445 22.5503C299.368 13.1646 314.316 5.75165 345.781 24.3616C360.106 31.7113 371.472 41.3588 379.576 53.0429C386.998 63.7447 391.403 75.6772 392.666 88.5093C394.783 109.996 387.725 131.515 373.305 147.55C362.138 158.945 342.359 161.837 314.525 156.135C290.026 151.116 267.019 140.989 258.265 136.867C244.851 130.618 230.682 130.568 218.181 130.524C210.515 130.498 203.274 130.473 197.312 128.976C197.079 128.915 196.851 128.846 196.627 128.77Z" fill="url(#paint8_linear_22_3690)"/>
</mask>
<g mask="url(#mask8_22_3690)">
<path d="M328.021 15.1906C307.845 8.28928 295.302 14.5124 280.265 21.9712C272.414 25.8642 264.298 29.8904 254.041 32.6471C240.069 38.2143 229.104 41.4736 220.293 44.0924C205.176 48.5859 196.848 51.061 192.791 59.8485C187.748 69.4728 179.848 93.5995 184.457 105.713C184.667 106.608 184.871 107.51 185.076 108.412C187.217 117.831 189.434 127.57 197.138 129.598L197.141 129.599C203.159 131.109 210.428 131.134 218.124 131.161C230.576 131.204 244.689 131.252 258.009 137.459C272.405 144.236 345.64 176.595 373.666 147.994C388.235 131.794 395.36 110.069 393.224 88.3778C391.949 75.4358 387.51 63.4051 380.029 52.6195C371.877 40.8658 360.45 31.1638 346.064 23.7841C339.375 19.8271 333.423 17.0379 328.021 15.1906ZM196.627 128.77C189.761 126.422 187.657 117.162 185.62 108.197C185.413 107.287 185.207 106.377 184.995 105.473L184.983 105.432C180.434 93.528 188.272 69.6627 193.274 60.1156C197.208 51.5958 205.44 49.1491 220.384 44.7074C229.205 42.0852 240.184 38.8221 254.148 33.2554C264.428 30.4947 272.57 26.4561 280.445 22.5503C299.368 13.1646 314.316 5.75165 345.781 24.3616C360.106 31.7113 371.472 41.3588 379.576 53.0429C386.998 63.7447 391.403 75.6772 392.666 88.5093C394.783 109.996 387.725 131.515 373.305 147.55C362.138 158.945 342.359 161.837 314.525 156.135C290.026 151.116 267.019 140.989 258.265 136.867C244.851 130.618 230.682 130.568 218.181 130.524C210.515 130.498 203.274 130.473 197.312 128.976C197.079 128.915 196.851 128.846 196.627 128.77Z" fill="#C0C0C0"/>
</g>
<mask id="mask9_22_3690" style="mask-type:alpha" maskUnits="userSpaceOnUse" x="194" y="30" width="181" height="117">
<path d="M325.049 33.7175C313.119 29.6378 301.999 30.8854 286.626 32.61C282.257 33.1004 277.74 33.6072 272.687 34.0587C268.923 34.7916 265.401 35.4645 262.085 36.0976C233.227 41.6083 220.056 44.1235 214.433 55.3403C209.904 63.5342 196.111 88.4914 195.922 98.8544C194.099 109.41 192.908 121.724 199.789 123.358L199.791 123.359C205.549 124.655 213.872 124.136 222.685 123.587C235.112 122.812 249.196 121.936 259.643 125.889C261.627 126.651 263.988 127.605 266.72 128.709C277.917 133.235 294.836 140.073 311.318 143.813C331.038 148.289 345.382 147.171 353.951 140.491C366.886 129.13 374.727 112.36 374.938 95.6211C375.171 77.0604 366.157 60.4168 349.554 48.7552C340.251 40.8833 332.492 36.2632 325.049 33.7175ZM199.435 122.664C193.479 120.627 194.674 108.938 196.411 98.8845L196.416 98.8344C196.581 88.6501 210.332 63.7683 214.851 55.5921C220.348 44.628 233.438 42.1282 262.119 36.6514C265.436 36.0178 268.959 35.3452 272.7 34.6152C277.735 34.1667 282.255 33.6595 286.626 33.1691C311.474 30.3815 325.16 28.8462 349.25 49.229C365.733 60.8075 374.675 77.296 374.443 95.6685C374.235 112.225 366.475 128.816 353.686 140.049C345.253 146.622 331.042 147.707 311.46 143.262C295.01 139.528 278.11 132.698 266.926 128.178C264.191 127.073 261.83 126.118 259.841 125.355C249.306 121.368 235.177 122.249 222.706 123.026C213.927 123.573 205.634 124.09 199.934 122.808C199.763 122.767 199.596 122.719 199.435 122.664Z" fill="url(#paint9_linear_22_3690)"/>
</mask>
<g mask="url(#mask9_22_3690)">
<path d="M325.049 33.7175C313.119 29.6378 301.999 30.8854 286.626 32.61C282.257 33.1004 277.74 33.6072 272.687 34.0587C268.923 34.7916 265.401 35.4645 262.085 36.0976C233.227 41.6083 220.056 44.1235 214.433 55.3403C209.904 63.5342 196.111 88.4914 195.922 98.8544C194.099 109.41 192.908 121.724 199.789 123.358L199.791 123.359C205.549 124.655 213.872 124.136 222.685 123.587C235.112 122.812 249.196 121.936 259.643 125.889C261.627 126.651 263.988 127.605 266.72 128.709C277.917 133.235 294.836 140.073 311.318 143.813C331.038 148.289 345.382 147.171 353.951 140.491C366.886 129.13 374.727 112.36 374.938 95.6211C375.171 77.0604 366.157 60.4168 349.554 48.7552C340.251 40.8833 332.492 36.2632 325.049 33.7175ZM199.435 122.664C193.479 120.627 194.674 108.938 196.411 98.8845L196.416 98.8344C196.581 88.6501 210.332 63.7683 214.851 55.5921C220.348 44.628 233.438 42.1282 262.119 36.6514C265.436 36.0178 268.959 35.3452 272.7 34.6152C277.735 34.1667 282.255 33.6595 286.626 33.1691C311.474 30.3815 325.16 28.8462 349.25 49.229C365.733 60.8075 374.675 77.296 374.443 95.6685C374.235 112.225 366.475 128.816 353.686 140.049C345.253 146.622 331.042 147.707 311.46 143.262C295.01 139.528 278.11 132.698 266.926 128.178C264.191 127.073 261.83 126.118 259.841 125.355C249.306 121.368 235.177 122.249 222.706 123.026C213.927 123.573 205.634 124.09 199.934 122.808C199.763 122.767 199.596 122.719 199.435 122.664Z" fill="#C0C0C0"/>
</g>
<mask id="mask10_22_3690" style="mask-type:alpha" maskUnits="userSpaceOnUse" x="199" y="35" width="161" height="100">
<path d="M315.048 40.3402C308.11 37.9675 300.243 36.3596 291.325 35.4786C259.126 34.3605 242.607 38.9528 236.075 50.8332C232.934 56.2352 225.737 66.1914 219.386 74.9755C214.358 81.931 209.608 88.5006 207.443 92.0052C205.288 94.878 203.094 99.1746 201.59 103.478C199.942 108.192 199.377 112.11 200 114.511C200.384 115.993 201.206 116.869 202.441 117.119L202.442 117.119C207.983 118.179 217.875 116.939 228.348 115.625C240.792 114.064 253.66 112.45 261.283 114.318C265.424 115.353 271.649 117.94 278.858 120.936C296.75 128.373 321.257 138.56 334.219 132.988C346.257 126.781 355.672 115.261 358.805 102.917C361.437 92.5466 359.451 82.4619 353.062 73.7534C346.432 61.9358 339.212 53.6733 330.355 47.7728C325.838 44.7633 320.758 42.2927 315.048 40.3402ZM202.205 116.545C201.316 116.241 200.714 115.499 200.412 114.332C199.143 109.434 203.398 98.112 207.772 92.2781C209.94 88.7701 214.684 82.2082 219.706 75.2614C226.065 66.4668 233.271 56.4986 236.429 51.0666C242.861 39.3681 259.257 34.8533 291.258 35.9642C307.442 37.5633 320.155 41.5651 330.112 48.199C338.916 54.0643 346.096 62.2835 352.708 74.0643C359.024 82.6762 360.985 92.6145 358.394 102.826C355.299 115.02 345.986 126.406 334.089 132.542C321.294 138.041 296.873 127.889 279.039 120.477C271.817 117.476 265.581 114.883 261.412 113.842C253.724 111.958 240.821 113.576 228.343 115.141C217.9 116.451 208.036 117.688 202.553 116.639C202.433 116.614 202.317 116.583 202.205 116.545Z" fill="url(#paint10_linear_22_3690)"/>
</mask>
<g mask="url(#mask10_22_3690)">
<path d="M315.048 40.3402C308.11 37.9675 300.243 36.3596 291.325 35.4786C259.126 34.3605 242.607 38.9528 236.075 50.8332C232.934 56.2352 225.737 66.1914 219.386 74.9755C214.358 81.931 209.608 88.5006 207.443 92.0052C205.288 94.878 203.094 99.1746 201.59 103.478C199.942 108.192 199.377 112.11 200 114.511C200.384 115.993 201.206 116.869 202.441 117.119L202.442 117.119C207.983 118.179 217.875 116.939 228.348 115.625C240.792 114.064 253.66 112.45 261.283 114.318C265.424 115.353 271.649 117.94 278.858 120.936C296.75 128.373 321.257 138.56 334.219 132.988C346.257 126.781 355.672 115.261 358.805 102.917C361.437 92.5466 359.451 82.4619 353.062 73.7534C346.432 61.9358 339.212 53.6733 330.355 47.7728C325.838 44.7633 320.758 42.2927 315.048 40.3402ZM202.205 116.545C201.316 116.241 200.714 115.499 200.412 114.332C199.143 109.434 203.398 98.112 207.772 92.2781C209.94 88.7701 214.684 82.2082 219.706 75.2614C226.065 66.4668 233.271 56.4986 236.429 51.0666C242.861 39.3681 259.257 34.8533 291.258 35.9642C307.442 37.5633 320.155 41.5651 330.112 48.199C338.916 54.0643 346.096 62.2835 352.708 74.0643C359.024 82.6762 360.985 92.6145 358.394 102.826C355.299 115.02 345.986 126.406 334.089 132.542C321.294 138.041 296.873 127.889 279.039 120.477C271.817 117.476 265.581 114.883 261.412 113.842C253.724 111.958 240.821 113.576 228.343 115.141C217.9 116.451 208.036 117.688 202.553 116.639C202.433 116.614 202.317 116.583 202.205 116.545Z" fill="#C0C0C0"/>
</g>
<mask id="mask11_22_3690" style="mask-type:alpha" maskUnits="userSpaceOnUse" x="203" y="32" width="155" height="94">
<path d="M312.576 37.7417C311.707 37.4444 310.831 37.1654 309.949 36.9037C295.59 32.6487 283.574 31.7875 274.235 34.3443C266.903 36.3518 261.345 40.3837 257.717 46.328C251.776 56.0612 228.61 79.328 218.986 85.2271C215.4 87.4252 211.473 91.7514 208.213 97.0966C205.263 101.933 203.492 106.624 203.702 109.049C203.795 110.127 204.278 110.76 205.092 110.879C210.795 111.71 224.678 109.072 238.103 106.521C248.513 104.543 258.346 102.675 262.932 102.745C268.133 102.824 277.307 107.912 287.018 113.299C297.022 118.848 307.367 124.587 314.458 125.464C321.876 126.382 331.419 124.243 339.364 119.882C348.65 114.785 354.753 107.323 356.549 98.8707C358.651 88.98 355.15 76.0581 347.183 64.3047C338.756 51.8712 326.542 42.5182 312.576 37.7417ZM204.926 110.411C204.415 110.236 204.132 109.762 204.063 108.969C203.656 104.271 211.244 90.4207 219.133 85.5853C228.792 79.6646 252.044 56.31 258.008 46.5392C261.577 40.6928 267.054 36.7246 274.286 34.7445C283.566 32.204 295.523 33.0649 309.826 37.3032C324.813 41.7431 337.978 51.4304 346.888 64.5752C354.676 76.0656 358.243 89.1845 356.197 98.8123C354.43 107.127 348.405 114.479 339.233 119.514C331.35 123.842 321.885 125.964 314.532 125.055C307.5 124.184 297.181 118.461 287.202 112.925C277.457 107.519 268.252 102.413 262.972 102.333C258.354 102.262 248.505 104.134 238.078 106.115C224.679 108.661 210.824 111.294 205.173 110.47C205.085 110.457 205.003 110.438 204.926 110.411Z" fill="url(#paint11_linear_22_3690)"/>
</mask>
<g mask="url(#mask11_22_3690)">
<path d="M312.576 37.7417C311.707 37.4444 310.831 37.1654 309.949 36.9037C295.59 32.6487 283.574 31.7875 274.235 34.3443C266.903 36.3518 261.345 40.3837 257.717 46.328C251.776 56.0612 228.61 79.328 218.986 85.2271C215.4 87.4252 211.473 91.7514 208.213 97.0966C205.263 101.933 203.492 106.624 203.702 109.049C203.795 110.127 204.278 110.76 205.092 110.879C210.795 111.71 224.678 109.072 238.103 106.521C248.513 104.543 258.346 102.675 262.932 102.745C268.133 102.824 277.307 107.912 287.018 113.299C297.022 118.848 307.367 124.587 314.458 125.464C321.876 126.382 331.419 124.243 339.364 119.882C348.65 114.785 354.753 107.323 356.549 98.8707C358.651 88.98 355.15 76.0581 347.183 64.3047C338.756 51.8712 326.542 42.5182 312.576 37.7417ZM204.926 110.411C204.415 110.236 204.132 109.762 204.063 108.969C203.656 104.271 211.244 90.4207 219.133 85.5853C228.792 79.6646 252.044 56.31 258.008 46.5392C261.577 40.6928 267.054 36.7246 274.286 34.7445C283.566 32.204 295.523 33.0649 309.826 37.3032C324.813 41.7431 337.978 51.4304 346.888 64.5752C354.676 76.0656 358.243 89.1845 356.197 98.8123C354.43 107.127 348.405 114.479 339.233 119.514C331.35 123.842 321.885 125.964 314.532 125.055C307.5 124.184 297.181 118.461 287.202 112.925C277.457 107.519 268.252 102.413 262.972 102.333C258.354 102.262 248.505 104.134 238.078 106.115C224.679 108.661 210.824 111.294 205.173 110.47C205.085 110.457 205.003 110.438 204.926 110.411Z" fill="#C0C0C0"/>
</g>
</g>
<defs>
<linearGradient id="paint0_linear_22_3690" x1="67.256" y1="-43.3346" x2="563.337" y2="126.316" gradientUnits="userSpaceOnUse">
<stop stop-color="white"/>
<stop offset="0.0436152" stop-color="#B4B4B4"/>
<stop offset="0.150732"/>
<stop offset="0.171421" stop-color="#171717"/>
<stop offset="0.385884" stop-color="white"/>
<stop offset="0.632551" stop-color="#E6E6E6"/>
<stop offset="0.856667" stop-color="#1A1A1A"/>
<stop offset="0.998739"/>
</linearGradient>
<linearGradient id="paint1_linear_22_3690" x1="83.5297" y1="-32.1056" x2="541.688" y2="124.576" gradientUnits="userSpaceOnUse">
<stop stop-color="white"/>
<stop offset="0.0436152" stop-color="#B4B4B4"/>
<stop offset="0.150732"/>
<stop offset="0.171421" stop-color="#171717"/>
<stop offset="0.385884" stop-color="white"/>
<stop offset="0.632551" stop-color="#E6E6E6"/>
<stop offset="0.856667" stop-color="#1A1A1A"/>
<stop offset="0.998739"/>
</linearGradient>
<linearGradient id="paint2_linear_22_3690" x1="99.803" y1="-20.8974" x2="520.066" y2="122.825" gradientUnits="userSpaceOnUse">
<stop stop-color="white"/>
<stop offset="0.0436152" stop-color="#B4B4B4"/>
<stop offset="0.150732"/>
<stop offset="0.171421" stop-color="#171717"/>
<stop offset="0.385884" stop-color="white"/>
<stop offset="0.632551" stop-color="#E6E6E6"/>
<stop offset="0.856667" stop-color="#1A1A1A"/>
<stop offset="0.998739"/>
</linearGradient>
<linearGradient id="paint3_linear_22_3690" x1="116.078" y1="-9.71167" x2="498.485" y2="121.065" gradientUnits="userSpaceOnUse">
<stop stop-color="white"/>
<stop offset="0.0436152" stop-color="#B4B4B4"/>
<stop offset="0.150732"/>
<stop offset="0.171421" stop-color="#171717"/>
<stop offset="0.385884" stop-color="white"/>
<stop offset="0.632551" stop-color="#E6E6E6"/>
<stop offset="0.856667" stop-color="#1A1A1A"/>
<stop offset="0.998739"/>
</linearGradient>
<linearGradient id="paint4_linear_22_3690" x1="132.344" y1="1.4593" x2="476.951" y2="119.309" gradientUnits="userSpaceOnUse">
<stop stop-color="white"/>
<stop offset="0.0436152" stop-color="#B4B4B4"/>
<stop offset="0.150732"/>
<stop offset="0.171421" stop-color="#171717"/>
<stop offset="0.385884" stop-color="white"/>
<stop offset="0.632551" stop-color="#E6E6E6"/>
<stop offset="0.856667" stop-color="#1A1A1A"/>
<stop offset="0.998739"/>
</linearGradient>
<linearGradient id="paint5_linear_22_3690" x1="148.627" y1="12.5456" x2="455.476" y2="117.483" gradientUnits="userSpaceOnUse">
<stop stop-color="white"/>
<stop offset="0.0436152" stop-color="#B4B4B4"/>
<stop offset="0.150732"/>
<stop offset="0.171421" stop-color="#171717"/>
<stop offset="0.385884" stop-color="white"/>
<stop offset="0.632551" stop-color="#E6E6E6"/>
<stop offset="0.856667" stop-color="#1A1A1A"/>
<stop offset="0.998739"/>
</linearGradient>
<linearGradient id="paint6_linear_22_3690" x1="164.932" y1="23.4912" x2="434.213" y2="115.58" gradientUnits="userSpaceOnUse">
<stop stop-color="white"/>
<stop offset="0.0436152" stop-color="#B4B4B4"/>
<stop offset="0.150732"/>
<stop offset="0.171421" stop-color="#171717"/>
<stop offset="0.385884" stop-color="white"/>
<stop offset="0.632551" stop-color="#E6E6E6"/>
<stop offset="0.856667" stop-color="#1A1A1A"/>
<stop offset="0.998739"/>
</linearGradient>
<linearGradient id="paint7_linear_22_3690" x1="180.345" y1="36.7554" x2="412.354" y2="116.098" gradientUnits="userSpaceOnUse">
<stop stop-color="white"/>
<stop offset="0.0436152" stop-color="#B4B4B4"/>
<stop offset="0.150732"/>
<stop offset="0.171421" stop-color="#171717"/>
<stop offset="0.385884" stop-color="white"/>
<stop offset="0.632551" stop-color="#E6E6E6"/>
<stop offset="0.856667" stop-color="#1A1A1A"/>
<stop offset="0.998739"/>
</linearGradient>
<linearGradient id="paint8_linear_22_3690" x1="195.501" y1="49.4691" x2="391.05" y2="116.343" gradientUnits="userSpaceOnUse">
<stop stop-color="white"/>
<stop offset="0.0436152" stop-color="#B4B4B4"/>
<stop offset="0.150732"/>
<stop offset="0.171421" stop-color="#171717"/>
<stop offset="0.385884" stop-color="white"/>
<stop offset="0.632551" stop-color="#E6E6E6"/>
<stop offset="0.856667" stop-color="#1A1A1A"/>
<stop offset="0.998739"/>
</linearGradient>
<linearGradient id="paint9_linear_22_3690" x1="208.119" y1="59.9832" x2="371.091" y2="115.716" gradientUnits="userSpaceOnUse">
<stop stop-color="white"/>
<stop offset="0.0436152" stop-color="#B4B4B4"/>
<stop offset="0.150732"/>
<stop offset="0.171421" stop-color="#171717"/>
<stop offset="0.385884" stop-color="white"/>
<stop offset="0.632551" stop-color="#E6E6E6"/>
<stop offset="0.856667" stop-color="#1A1A1A"/>
<stop offset="0.998739"/>
</linearGradient>
<linearGradient id="paint10_linear_22_3690" x1="215.146" y1="63.8343" x2="355.852" y2="111.953" gradientUnits="userSpaceOnUse">
<stop stop-color="white"/>
<stop offset="0.0436152" stop-color="#B4B4B4"/>
<stop offset="0.150732"/>
<stop offset="0.171421" stop-color="#171717"/>
<stop offset="0.385884" stop-color="white"/>
<stop offset="0.632551" stop-color="#E6E6E6"/>
<stop offset="0.856667" stop-color="#1A1A1A"/>
<stop offset="0.998739"/>
</linearGradient>
<linearGradient id="paint11_linear_22_3690" x1="219.499" y1="60.8735" x2="354.007" y2="106.873" gradientUnits="userSpaceOnUse">
<stop stop-color="white"/>
<stop offset="0.0436152" stop-color="#B4B4B4"/>
<stop offset="0.150732"/>
<stop offset="0.171421" stop-color="#171717"/>
<stop offset="0.385884" stop-color="white"/>
<stop offset="0.632551" stop-color="#E6E6E6"/>
<stop offset="0.856667" stop-color="#1A1A1A"/>
<stop offset="0.998739"/>
</linearGradient>
</defs>
</svg>
