<?xml version="1.0" encoding="utf-8"?><svg width="42" height="42" fill="none" xmlns="http://www.w3.org/2000/svg" viewBox="0 0 42 42"><path d="M35.355 6.07h-6.299V4.844c0-.68-.55-1.23-1.23-1.23h-2.14A4.853 4.853 0 0021 0a4.853 4.853 0 00-4.686 3.614h-2.14c-.68 0-1.23.55-1.23 1.23V6.07h-6.3c-.679 0-1.23.551-1.23 1.23v33.47c0 .68.551 1.23 1.23 1.23h28.712c.679 0 1.23-.55 1.23-1.23V7.3c0-.679-.551-1.23-1.23-1.23zm-17.969.005c.68 0 1.23-.551 1.23-1.23A2.386 2.386 0 0121 2.46a2.386 2.386 0 012.383 2.383c0 .68.551 1.23 1.23 1.23h1.982v2.457h-11.19V6.075h1.981zm16.739 33.464H7.875V8.531h5.069v1.23c0 .68.55 1.231 1.23 1.231h13.652c.68 0 1.23-.55 1.23-1.23v-1.23h5.069v31.007z" fill="#1F1F1F"/><path d="M22.355 20.13l-2.042 2.042-.832-.831a1.23 1.23 0 00-1.74 1.74l1.702 1.701a1.226 1.226 0 001.74 0l2.912-2.912a1.23 1.23 0 10-1.74-1.74z" fill="#005E9E"/><path d="M29.613 22.066c0-4.749-3.864-8.613-8.613-8.613-4.75 0-8.613 3.864-8.613 8.613 0 4.75 3.864 8.614 8.613 8.614 4.75 0 8.613-3.864 8.613-8.614zM21 28.22a6.16 6.16 0 01-6.152-6.153A6.16 6.16 0 0121 15.914a6.16 6.16 0 016.152 6.152A6.16 6.16 0 0121 28.22zM22.23 34.371c0 .68.551 1.23 1.23 1.23h6.974a1.23 1.23 0 000-2.46H23.46c-.68 0-1.23.55-1.23 1.23zM18.54 33.14h-6.974a1.23 1.23 0 000 2.462h6.973a1.23 1.23 0 000-2.461z" fill="#1F1F1F"/></svg>