<?xml version="1.0" encoding="utf-8"?><svg width="42" height="42" fill="none" xmlns="http://www.w3.org/2000/svg" viewBox="0 0 42 42"><g clip-path="url(#jclip0_22_3474)"><path d="M36.623 29.746a4.525 4.525 0 00.537-2.142 4.558 4.558 0 00-4.553-4.553 4.558 4.558 0 00-4.552 4.553c0 .754.185 1.464.51 2.091h-3.523a4.524 4.524 0 00.51-2.091A4.558 4.558 0 0021 23.05a4.558 4.558 0 00-4.553 4.553c0 .754.186 1.464.511 2.091h-3.524a4.524 4.524 0 00.511-2.091 4.558 4.558 0 00-4.552-4.553 4.558 4.558 0 00-4.553 4.553c0 .774.195 1.503.537 2.142C2.349 30.129 0 32.718 0 35.848A6.16 6.16 0 006.152 42h29.696A6.16 6.16 0 0042 35.848c0-3.13-2.35-5.72-5.377-6.102zm-6.107-2.142c0-1.154.938-2.092 2.091-2.092 1.154 0 2.092.938 2.092 2.091a2.094 2.094 0 01-2.092 2.092 2.094 2.094 0 01-2.091-2.091zm-11.608 0c0-1.154.939-2.092 2.092-2.092s2.092.938 2.092 2.091A2.094 2.094 0 0121 29.695a2.094 2.094 0 01-2.092-2.091zm-9.515-2.092c1.153 0 2.091.938 2.091 2.091a2.094 2.094 0 01-2.091 2.092A2.094 2.094 0 017.3 27.604c0-1.154.938-2.092 2.092-2.092zm26.455 14.027H6.152a3.696 3.696 0 01-3.691-3.691 3.696 3.696 0 013.691-3.692h29.696a3.696 3.696 0 013.691 3.692 3.696 3.696 0 01-3.691 3.691z" fill="#1F1F1F"/><path d="M1.23 4.922h11.957a2.799 2.799 0 002.774 2.46h.972c.185 0 .335.15.335.335v1.71a2.799 2.799 0 002.502 2.78v2.477h-2.058a3.284 3.284 0 00-3.056 4.5l.77 1.942a1.23 1.23 0 002.288-.908l-.77-1.942a.82.82 0 01.084-.77.819.819 0 01.684-.361h6.412c.395 0 .61.253.684.362.073.109.23.401.084.769l-.77 1.942a1.23 1.23 0 102.288.907l.77-1.942a3.284 3.284 0 00-.337-3.06 3.284 3.284 0 00-2.72-1.44H22.23v-2.476a2.799 2.799 0 002.502-2.78v-1.71c0-.184.15-.334.335-.334h.972a2.799 2.799 0 002.774-2.461H40.77a1.23 1.23 0 100-2.461H28.813A2.799 2.799 0 0026.04 0H15.96a2.799 2.799 0 00-2.774 2.46H1.23a1.23 1.23 0 000 2.462zm14.397-2.127c0-.184.15-.334.334-.334H26.04c.184 0 .334.15.334.334v1.793c0 .184-.15.334-.334.334h-.973a2.798 2.798 0 00-2.794 2.795v1.71c0 .185-.15.335-.335.335h-1.874a.334.334 0 01-.334-.334V7.717a2.798 2.798 0 00-2.796-2.795h-.972a.334.334 0 01-.334-.334V2.795z" fill="#005E9E"/><path d="M6.234 37.078a1.23 1.23 0 100-2.46 1.23 1.23 0 000 2.46zM11.156 37.078a1.23 1.23 0 100-2.46 1.23 1.23 0 000 2.46zM16.078 37.078a1.23 1.23 0 100-2.46 1.23 1.23 0 000 2.46zM21 37.078a1.23 1.23 0 100-2.46 1.23 1.23 0 000 2.46zM25.922 37.078a1.23 1.23 0 100-2.46 1.23 1.23 0 000 2.46zM30.844 37.078a1.23 1.23 0 100-2.46 1.23 1.23 0 000 2.46zM35.766 37.078a1.23 1.23 0 100-2.46 1.23 1.23 0 000 2.46z" fill="#1F1F1F"/></g><defs><clipPath id="jclip0_22_3474"><path fill="#fff" d="M0 0h42v42H0z"/></clipPath></defs></svg>