<?xml version="1.0" encoding="utf-8"?><svg width="42" height="42" fill="none" xmlns="http://www.w3.org/2000/svg" viewBox="0 0 42 42"><g clip-path="url(#mclip0_22_3486)"><path d="M12.387 29.203H7.465c-.68 0-1.23.551-1.23 1.23v4.922c0 .68.55 1.23 1.23 1.23h4.922c.68 0 1.23-.55 1.23-1.23v-4.921c0-.68-.55-1.23-1.23-1.23zm-1.23 4.922H8.694v-2.46h2.461v2.46z" fill="#1F1F1F"/><path d="M7.258 11.687a1.226 1.226 0 001.74 0l3.11-3.11a1.23 1.23 0 00-1.74-1.74l-2.24 2.24-.947-.947a1.23 1.23 0 00-1.74 1.74l1.817 1.817z" fill="#005E9E"/><path d="M8.86 17.719c4.884 0 8.859-3.975 8.859-8.86S13.744 0 8.859 0 0 3.974 0 8.86c0 4.885 3.974 8.859 8.86 8.859zm0-15.258a6.406 6.406 0 016.398 6.398 6.406 6.406 0 01-6.399 6.399 6.406 6.406 0 01-6.398-6.399 6.406 6.406 0 016.398-6.398zM41.159 23.934l-1.532-.51-.619-16.58a1.23 1.23 0 00-1.23-1.184h-4.921a1.23 1.23 0 00-1.23 1.185l-.514 13.74-12.103-4.034c-.765-.278-1.642.354-1.62 1.168v2.995L.842 26.231A1.23 1.23 0 000 27.398V40.77C0 41.45.55 42 1.23 42h39.54c.68 0 1.23-.55 1.23-1.23V25.102c0-.53-.339-1-.841-1.168zM17.39 39.54H2.46V28.285l14.93-4.976v16.23zM34.042 8.121h2.551l.092 2.461H33.95l.092-2.46zm-.184 4.922h2.919l.356 9.55-3.588-1.197.313-8.353zm-2.932 26.496h-2.461v-7.875h2.46v7.875zm8.613 0h-6.152v-9.105c0-.68-.551-1.23-1.23-1.23h-4.923c-.68 0-1.23.55-1.23 1.23v9.105h-6.152V19.426l19.687 6.563v13.55z" fill="#1F1F1F"/></g><defs><clipPath id="mclip0_22_3486"><path fill="#fff" d="M0 0h42v42H0z"/></clipPath></defs></svg>