<?xml version="1.0" encoding="utf-8"?><svg width="42" height="42" fill="none" xmlns="http://www.w3.org/2000/svg" viewBox="0 0 42 42"><path d="M42 27.224a1.237 1.237 0 00-.184-.638l-5.743-9.27a1.23 1.23 0 00-1.046-.582h-6.152v-5.168c0-.68-.55-1.23-1.23-1.23h-3.88c-.55-4.66-4.523-8.285-9.328-8.285-4.804 0-8.777 3.626-9.326 8.285H1.23c-.68 0-1.231.55-1.231 1.23v23.871c0 .68.55 1.231 1.23 1.231h3.864a4.519 4.519 0 004.34 3.281 4.519 4.519 0 004.34-3.281h14.453a4.519 4.519 0 004.34 3.281 4.519 4.519 0 004.34-3.281h3.863c.68 0 1.23-.551 1.23-1.23v-8.214zm-7.658-8.029l4.218 6.809h-4.763v-2.06a1.23 1.23 0 10-2.461 0v2.06h-2.461v-6.809h5.467zM14.438 4.512a6.94 6.94 0 016.931 6.931 6.94 6.94 0 01-6.931 6.932 6.94 6.94 0 01-6.932-6.932 6.94 6.94 0 016.931-6.931zM2.46 12.797h2.682c.658 4.54 4.575 8.039 9.294 8.039 4.72 0 8.637-3.5 9.295-8.04h2.682v13.208H2.461V12.797zm6.973 24.691c-1.131 0-2.051-.92-2.051-2.05 0-1.131.92-2.051 2.05-2.051 1.131 0 2.051.92 2.051 2.05 0 1.131-.92 2.051-2.05 2.051zm23.132 0c-1.13 0-2.05-.92-2.05-2.05 0-1.131.92-2.051 2.05-2.051 1.131 0 2.051.92 2.051 2.05 0 1.131-.92 2.051-2.05 2.051zm6.973-3.281h-2.633a4.519 4.519 0 00-4.34-3.281 4.519 4.519 0 00-4.34 3.281H13.774a4.519 4.519 0 00-4.34-3.281 4.519 4.519 0 00-4.34 3.281H2.462v-5.742h37.078v5.742z" fill="#1F1F1F"/><path d="M12.721 14.562a1.23 1.23 0 001.74 0l3.636-3.635a1.23 1.23 0 00-1.74-1.74l-2.766 2.765-1.254-1.254a1.23 1.23 0 10-1.74 1.74l2.124 2.124z" fill="#005E9E"/></svg>