<?xml version="1.0" encoding="utf-8"?><svg width="731" height="197" fill="none" xmlns="http://www.w3.org/2000/svg" viewBox="0 0 731 197"><g opacity=".1"><mask id="wa" style="mask-type:alpha" maskUnits="userSpaceOnUse" x="22" y="-390" width="627" height="529"><path d="M403.465-370.28a487.433 487.433 0 00-35.008-10.508c-67.14-17.463-117.474-7.509-153.876 30.428-31.543 32.873-47.865 81.606-62.266 124.603-9.612 28.7-18.691 55.809-30.929 73.567-40.737 59.117-65.975 66.757-81.054 71.321-8.732 2.643-14.5 4.39-17.577 14.805C19.74-55.857 46.67-32.316 107.503 8.022c26.31 17.446 50.99 18.566 70.82 19.467 9.934.451 18.528.841 25.373 3.21l.237-.686-.237.686c18.851 6.512 23.179 10.696 32.66 19.865 7.906 7.645 19.854 19.199 47.27 38.619 24.093 17.066 65.37 33.027 107.727 41.653 24.101 4.909 47.728 7.388 70.226 7.368 25.183-.022 48.374-3.208 68.926-9.47 38.072-11.599 66.525-33.454 84.568-64.956C632.848 32.743 643.647-1.531 647.17-38.09c3.5-36.315-.351-73.033-11.445-109.133-16.149-52.549-47.287-101.111-90.048-140.437-22.796-20.965-48.924-39.376-77.658-54.721-20.191-10.782-41.804-20.119-64.554-27.899zM133.05 19.051c-8.039-2.749-16.355-6.66-24.834-12.283-27.668-18.345-47.938-32.952-61.971-44.656-20.242-16.882-23.299-24.46-22.3-27.845 2.834-9.59 7.723-11.07 16.597-13.756 15.25-4.616 40.772-12.341 81.807-71.891 12.371-17.952 21.487-45.171 31.139-73.987 14.344-42.83 30.603-91.374 61.893-123.984 36.042-37.562 85.985-47.388 152.681-30.04 35.681 9.279 69.1 22.171 99.331 38.316 28.655 15.302 54.707 33.659 77.435 54.561 42.603 39.181 73.621 87.55 89.702 139.877 11.036 35.91 14.867 72.425 11.388 108.531-3.5 36.32-14.226 70.365-31.881 101.19-17.843 31.153-46.018 52.777-83.744 64.271-20.442 6.228-43.519 9.397-68.591 9.419-22.425.019-45.98-2.452-70.01-7.346-42.221-8.599-83.346-24.494-107.326-41.48-27.347-19.371-39.258-30.89-47.14-38.511-9.601-9.284-13.983-13.521-33.057-20.11l-.098-.034c-6.988-2.39-15.604-2.78-25.574-3.233-13.291-.604-28.775-1.307-45.447-7.009z" fill="url(#wpaint0_linear_21_3375)"/></mask><g mask="url(#wa)"><path d="M403.465-370.28a487.433 487.433 0 00-35.008-10.508c-67.14-17.463-117.474-7.509-153.876 30.428-31.543 32.873-47.865 81.606-62.266 124.603-9.612 28.7-18.691 55.809-30.929 73.567-40.737 59.117-65.975 66.757-81.054 71.321-8.732 2.643-14.5 4.39-17.577 14.805C19.74-55.857 46.67-32.316 107.503 8.022c26.31 17.446 50.99 18.566 70.82 19.467 9.934.451 18.528.841 25.373 3.21l.237-.686-.237.686c18.851 6.512 23.179 10.696 32.66 19.865 7.906 7.645 19.854 19.199 47.27 38.619 24.093 17.066 65.37 33.027 107.727 41.653 24.101 4.909 47.728 7.388 70.226 7.368 25.183-.022 48.374-3.208 68.926-9.47 38.072-11.599 66.525-33.454 84.568-64.956C632.848 32.743 643.647-1.531 647.17-38.09c3.5-36.315-.351-73.033-11.445-109.133-16.149-52.549-47.287-101.111-90.048-140.437-22.796-20.965-48.924-39.376-77.658-54.721-20.191-10.782-41.804-20.119-64.554-27.899zM133.05 19.051c-8.039-2.749-16.355-6.66-24.834-12.283-27.668-18.345-47.938-32.952-61.971-44.656-20.242-16.882-23.299-24.46-22.3-27.845 2.834-9.59 7.723-11.07 16.597-13.756 15.25-4.616 40.772-12.341 81.807-71.891 12.371-17.952 21.487-45.171 31.139-73.987 14.344-42.83 30.603-91.374 61.893-123.984 36.042-37.562 85.985-47.388 152.681-30.04 35.681 9.279 69.1 22.171 99.331 38.316 28.655 15.302 54.707 33.659 77.435 54.561 42.603 39.181 73.621 87.55 89.702 139.877 11.036 35.91 14.867 72.425 11.388 108.531-3.5 36.32-14.226 70.365-31.881 101.19-17.843 31.153-46.018 52.777-83.744 64.271-20.442 6.228-43.519 9.397-68.591 9.419-22.425.019-45.98-2.452-70.01-7.346-42.221-8.599-83.346-24.494-107.326-41.48-27.347-19.371-39.258-30.89-47.14-38.511-9.601-9.284-13.983-13.521-33.057-20.11l-.098-.034c-6.988-2.39-15.604-2.78-25.574-3.233-13.291-.604-28.775-1.307-45.447-7.009z" fill="#004BBB"/></g><mask id="wb" style="mask-type:alpha" maskUnits="userSpaceOnUse" x="47" y="-361" width="577" height="483"><path d="M400.716-343.283a443.499 443.499 0 00-28.237-8.608c-60.418-16.42-106.076-8.488-139.58 24.248-29.106 28.439-44.873 71.439-58.784 109.377-9.69 26.427-18.843 51.388-31.143 67.674-38.612 52.408-62.937 60.064-77.47 64.638-8.783 2.765-14.586 4.59-17.69 14.666-1.835 5.663 4.457 15.39 18.704 28.897C79.332-30.24 98.092-15.515 120.768.192c23.629 16.527 45.851 18.365 63.706 19.842 8.632.713 16.086 1.33 22.29 3.441 19.681 6.657 23.93 10.152 36.543 20.488 8.474 6.944 20.08 16.454 42.204 31.823C308.17 91.536 346.7 106.37 386.062 114.5c22.513 4.65 44.532 7.045 65.445 7.117 23.465.081 45.023-2.794 64.078-8.545 34.375-10.375 60.176-29.887 76.685-57.994 16.547-28.308 26.731-59.624 30.269-93.082 3.516-33.246.295-66.888-9.575-99.992-14.262-47.833-42.119-92.133-80.562-128.111-20.496-19.183-44.036-36.075-69.963-50.206-19.224-10.476-39.897-19.506-61.723-26.97zM146.833 11.977c-8.173-2.795-16.681-6.868-25.377-12.95-47.961-33.222-75.754-60.034-72.534-69.975 2.875-9.334 8.113-10.982 16.79-13.713 14.681-4.621 39.253-12.355 78.131-65.123 12.435-16.464 21.627-41.533 31.358-68.073 13.854-37.782 29.556-80.605 58.417-108.805 33.167-32.406 78.465-40.231 138.482-23.92 32.279 8.688 62.473 20.629 89.744 35.492 25.852 14.09 49.321 30.931 69.754 50.054 38.295 35.84 66.041 79.956 80.241 127.581 9.816 32.923 13.02 66.373 9.525 99.423-3.514 33.231-13.628 64.335-30.06 92.445-16.319 27.785-41.861 47.085-75.915 57.363-25.17 7.596-67.982 14.006-129.006 1.401-39.239-8.105-77.628-22.88-100.184-38.556-22.091-15.345-33.679-24.841-42.14-31.774-12.374-10.14-17.017-13.933-36.856-20.663-6.319-2.15-13.83-2.771-22.528-3.49-11.147-.923-24.012-1.987-37.842-6.717z" fill="url(#wpaint1_linear_21_3375)"/></mask><g mask="url(#wb)"><path d="M400.716-343.283a443.499 443.499 0 00-28.237-8.608c-60.418-16.42-106.076-8.488-139.58 24.248-29.106 28.439-44.873 71.439-58.784 109.377-9.69 26.427-18.843 51.388-31.143 67.674-38.612 52.408-62.937 60.064-77.47 64.638-8.783 2.765-14.586 4.59-17.69 14.666-1.835 5.663 4.457 15.39 18.704 28.897C79.332-30.24 98.092-15.515 120.768.192c23.629 16.527 45.851 18.365 63.706 19.842 8.632.713 16.086 1.33 22.29 3.441 19.681 6.657 23.93 10.152 36.543 20.488 8.474 6.944 20.08 16.454 42.204 31.823C308.17 91.536 346.7 106.37 386.062 114.5c22.513 4.65 44.532 7.045 65.445 7.117 23.465.081 45.023-2.794 64.078-8.545 34.375-10.375 60.176-29.887 76.685-57.994 16.547-28.308 26.731-59.624 30.269-93.082 3.516-33.246.295-66.888-9.575-99.992-14.262-47.833-42.119-92.133-80.562-128.111-20.496-19.183-44.036-36.075-69.963-50.206-19.224-10.476-39.897-19.506-61.723-26.97zM146.833 11.977c-8.173-2.795-16.681-6.868-25.377-12.95-47.961-33.222-75.754-60.034-72.534-69.975 2.875-9.334 8.113-10.982 16.79-13.713 14.681-4.621 39.253-12.355 78.131-65.123 12.435-16.464 21.627-41.533 31.358-68.073 13.854-37.782 29.556-80.605 58.417-108.805 33.167-32.406 78.465-40.231 138.482-23.92 32.279 8.688 62.473 20.629 89.744 35.492 25.852 14.09 49.321 30.931 69.754 50.054 38.295 35.84 66.041 79.956 80.241 127.581 9.816 32.923 13.02 66.373 9.525 99.423-3.514 33.231-13.628 64.335-30.06 92.445-16.319 27.785-41.861 47.085-75.915 57.363-25.17 7.596-67.982 14.006-129.006 1.401-39.239-8.105-77.628-22.88-100.184-38.556-22.091-15.345-33.679-24.841-42.14-31.774-12.374-10.14-17.017-13.933-36.856-20.663-6.319-2.15-13.83-2.771-22.528-3.49-11.147-.923-24.012-1.987-37.842-6.717z" fill="#004BBB"/></g><mask id="wc" style="mask-type:alpha" maskUnits="userSpaceOnUse" x="72" y="-332" width="528" height="438"><path d="M398.293-316.228a404.765 404.765 0 00-21.791-6.766c-53.745-15.378-94.738-9.424-125.321 18.2-26.65 24.071-41.825 61.374-55.215 94.285-9.781 24.044-19.02 46.754-31.407 61.515-36.414 45.712-59.803 53.344-73.777 57.903-8.894 2.902-14.77 4.82-17.914 14.578C68.216-63.31 101.31-31.552 134.03-7.64c21.054 15.722 40.907 18.277 56.861 20.33 7.234.932 13.482 1.736 18.94 3.56l.001.001c22.406 7.423 26.085 10.04 46.518 24.536 7.693 5.459 17.269 12.252 31.045 21.601 14.081 9.568 34.845 19.003 58.468 26.563 26.583 8.51 54.447 13.887 80.581 15.552 30.929 1.97 58.379-1.214 81.588-9.462 27.036-9.61 47.705-25.981 61.434-48.662 15.324-25.583 24.897-53.945 28.453-84.304 3.536-30.182.945-60.753-7.7-90.864-12.38-43.117-36.961-83.152-71.089-115.779-32.834-31.391-73.412-55.441-120.837-71.66zM160.997 5.228c-8.403-2.874-17.244-7.178-26.301-13.942C95.728-37.192 70.16-65.559 73.897-76.167c2.932-9.097 8.262-10.837 17.091-13.718 14.101-4.6 37.702-12.301 74.347-58.304 12.521-14.921 21.803-37.735 31.629-61.889 13.33-32.767 28.439-69.905 54.852-93.763 30.269-27.341 70.935-33.206 124.32-17.931 56.739 15.899 104.589 42.209 142.234 78.199 33.99 32.495 58.469 72.358 70.792 115.277 8.597 29.94 11.174 60.33 7.66 90.328-3.532 30.148-13.037 58.312-28.251 83.71-13.561 22.405-34.009 38.59-60.772 48.102-23.076 8.201-50.39 11.365-81.185 9.404-26.058-1.66-53.845-7.023-80.355-15.509-23.54-7.538-44.22-16.927-58.23-26.447-13.767-9.343-23.338-16.133-31.028-21.59-20.53-14.565-24.229-17.186-46.764-24.66-5.544-1.854-11.833-2.664-19.115-3.6-8.966-1.155-19.174-2.469-30.125-6.214z" fill="url(#wpaint2_linear_21_3375)"/></mask><g mask="url(#wc)"><path d="M398.293-316.228a404.765 404.765 0 00-21.791-6.766c-53.745-15.378-94.738-9.424-125.321 18.2-26.65 24.071-41.825 61.374-55.215 94.285-9.781 24.044-19.02 46.754-31.407 61.515-36.414 45.712-59.803 53.344-73.777 57.903-8.894 2.902-14.77 4.82-17.914 14.578C68.216-63.31 101.31-31.552 134.03-7.64c21.054 15.722 40.907 18.277 56.861 20.33 7.234.932 13.482 1.736 18.94 3.56l.001.001c22.406 7.423 26.085 10.04 46.518 24.536 7.693 5.459 17.269 12.252 31.045 21.601 14.081 9.568 34.845 19.003 58.468 26.563 26.583 8.51 54.447 13.887 80.581 15.552 30.929 1.97 58.379-1.214 81.588-9.462 27.036-9.61 47.705-25.981 61.434-48.662 15.324-25.583 24.897-53.945 28.453-84.304 3.536-30.182.945-60.753-7.7-90.864-12.38-43.117-36.961-83.152-71.089-115.779-32.834-31.391-73.412-55.441-120.837-71.66zM160.997 5.228c-8.403-2.874-17.244-7.178-26.301-13.942C95.728-37.192 70.16-65.559 73.897-76.167c2.932-9.097 8.262-10.837 17.091-13.718 14.101-4.6 37.702-12.301 74.347-58.304 12.521-14.921 21.803-37.735 31.629-61.889 13.33-32.767 28.439-69.905 54.852-93.763 30.269-27.341 70.935-33.206 124.32-17.931 56.739 15.899 104.589 42.209 142.234 78.199 33.99 32.495 58.469 72.358 70.792 115.277 8.597 29.94 11.174 60.33 7.66 90.328-3.532 30.148-13.037 58.312-28.251 83.71-13.561 22.405-34.009 38.59-60.772 48.102-23.076 8.201-50.39 11.365-81.185 9.404-26.058-1.66-53.845-7.023-80.355-15.509-23.54-7.538-44.22-16.927-58.23-26.447-13.767-9.343-23.338-16.133-31.028-21.59-20.53-14.565-24.229-17.186-46.764-24.66-5.544-1.854-11.833-2.664-19.115-3.6-8.966-1.155-19.174-2.469-30.125-6.214z" fill="#004BBB"/></g><mask id="wd" style="mask-type:alpha" maskUnits="userSpaceOnUse" x="97" y="-303" width="479" height="392"><path d="M395.492-289.343a361.764 361.764 0 00-14.966-4.754c-47.132-14.336-83.479-10.309-111.113 12.314-24.169 19.786-38.084 50.076-51.54 79.368-9.887 21.521-19.226 41.849-31.724 55.021-34.111 39.034-55.664 46.293-69.927 51.097-9.411 3.17-15.091 5.083-18.297 14.56-4.55 11.947 17.132 41.065 49.368 66.264C165.958-.334 183.618 2.945 197.808 5.581c5.428 1.008 10.555 1.96 15.091 3.446h.002l2.3.743c26.454 8.532 28.612 9.23 74.079 39.221 12.769 8.44 32.212 17.201 53.33 24.045 24.294 7.867 49.684 12.977 73.423 14.776 28.207 2.138 53.24-.359 74.403-7.419 24.686-8.236 43.603-22.607 56.226-42.713 14.108-22.858 23.075-48.27 26.654-75.535 3.561-27.124 1.604-54.63-5.817-81.756-10.505-38.397-31.817-74.164-61.634-103.434-29.655-29.112-66.731-51.372-110.373-66.298zM175.841-.955c-8.8-3.01-18.219-7.645-27.903-15.498-31.357-24.513-53.365-53.64-49.064-64.936 3.007-8.89 8.481-10.734 17.549-13.789 13.501-4.547 36.098-12.158 70.404-51.415 12.631-13.311 22.015-33.738 31.95-55.364 13.393-29.154 27.242-59.3 51.183-78.899 27.345-22.387 63.397-26.347 110.214-12.107 50.044 14.722 92.091 38.553 124.975 70.835 29.689 29.146 50.909 64.75 61.363 102.963 7.377 26.964 9.323 54.3 5.785 81.25-3.553 27.07-12.455 52.299-26.457 74.985-12.462 19.85-31.171 34.051-55.602 42.202-21.041 7.02-45.951 9.5-74.036 7.372-23.671-1.794-48.991-6.89-73.221-14.736-21.049-6.816-40.413-15.545-53.119-23.944-45.567-30.056-47.737-30.758-74.291-39.323l-2.298-.741c-4.59-1.504-9.745-2.461-15.203-3.475-6.716-1.247-14.216-2.64-22.229-5.38z" fill="url(#wpaint3_linear_21_3375)"/></mask><g mask="url(#wd)"><path d="M395.492-289.343a361.764 361.764 0 00-14.966-4.754c-47.132-14.336-83.479-10.309-111.113 12.314-24.169 19.786-38.084 50.076-51.54 79.368-9.887 21.521-19.226 41.849-31.724 55.021-34.111 39.034-55.664 46.293-69.927 51.097-9.411 3.17-15.091 5.083-18.297 14.56-4.55 11.947 17.132 41.065 49.368 66.264C165.958-.334 183.618 2.945 197.808 5.581c5.428 1.008 10.555 1.96 15.091 3.446h.002l2.3.743c26.454 8.532 28.612 9.23 74.079 39.221 12.769 8.44 32.212 17.201 53.33 24.045 24.294 7.867 49.684 12.977 73.423 14.776 28.207 2.138 53.24-.359 74.403-7.419 24.686-8.236 43.603-22.607 56.226-42.713 14.108-22.858 23.075-48.27 26.654-75.535 3.561-27.124 1.604-54.63-5.817-81.756-10.505-38.397-31.817-74.164-61.634-103.434-29.655-29.112-66.731-51.372-110.373-66.298zM175.841-.955c-8.8-3.01-18.219-7.645-27.903-15.498-31.357-24.513-53.365-53.64-49.064-64.936 3.007-8.89 8.481-10.734 17.549-13.789 13.501-4.547 36.098-12.158 70.404-51.415 12.631-13.311 22.015-33.738 31.95-55.364 13.393-29.154 27.242-59.3 51.183-78.899 27.345-22.387 63.397-26.347 110.214-12.107 50.044 14.722 92.091 38.553 124.975 70.835 29.689 29.146 50.909 64.75 61.363 102.963 7.377 26.964 9.323 54.3 5.785 81.25-3.553 27.07-12.455 52.299-26.457 74.985-12.462 19.85-31.171 34.051-55.602 42.202-21.041 7.02-45.951 9.5-74.036 7.372-23.671-1.794-48.991-6.89-73.221-14.736-21.049-6.816-40.413-15.545-53.119-23.944-45.567-30.056-47.737-30.758-74.291-39.323l-2.298-.741c-4.59-1.504-9.745-2.461-15.203-3.475-6.716-1.247-14.216-2.64-22.229-5.38z" fill="#004BBB"/></g><mask id="we" style="mask-type:alpha" maskUnits="userSpaceOnUse" x="122" y="-274" width="429" height="347"><path d="M392.684-262.54a318.598 318.598 0 00-8.135-2.66c-90.985-29.804-119.536 23.917-144.726 71.314-10.002 18.819-19.449 36.594-32.082 48.093-31.653 32.379-52.225 39.485-65.838 44.187-9.745 3.366-15.627 5.398-18.923 14.646-2.355 5.755.109 15.78 6.773 27.477 7.076 12.42 18.014 25.268 30.8 36.176C177.249-8.229 192.445-4.374 205.852-.973c3.557.902 6.917 1.755 10.115 2.776h.002c4.823 1.511 9.062 2.721 12.801 3.79 17.272 4.93 27.696 7.907 62.395 30.001 22.116 14.125 67.367 31.267 114.456 35.527 25.488 2.306 48.102.497 67.217-5.376 22.337-6.863 39.502-19.232 51.019-36.763 12.901-20.136 21.27-42.602 24.879-66.78 3.593-24.073 2.273-48.524-3.922-72.672-8.64-33.676-26.693-65.171-52.206-91.078-26.448-26.856-60.035-47.35-99.924-60.992zM191.733-6.13c-9.499-3.249-19.71-8.268-30.551-18.058-27.47-23.436-41.719-51.706-37.332-62.425 3.112-8.731 8.808-10.699 18.246-13.959 13.703-4.733 34.411-11.885 66.219-44.425 12.763-11.615 22.259-29.483 32.312-48.399 12.758-24.005 25.95-48.827 47.393-64.275 24.394-17.574 55.858-19.694 96.188-6.483 43.351 13.534 79.595 34.88 107.726 63.445 25.397 25.79 43.366 57.13 51.961 90.634 6.157 23.997 7.469 48.288 3.9 72.2-3.582 23.998-11.888 46.295-24.687 66.272-14.78 22.499-47.134 47.993-117.318 41.644-46.956-4.248-92.061-21.33-114.098-35.404-34.798-22.158-45.265-25.147-62.605-30.098-3.735-1.066-7.967-2.274-12.78-3.782-3.221-1.028-6.592-1.884-10.161-2.789-4.597-1.166-9.406-2.386-14.413-4.098z" fill="url(#wpaint4_linear_21_3375)"/></mask><g mask="url(#we)"><path d="M392.684-262.54a318.598 318.598 0 00-8.135-2.66c-90.985-29.804-119.536 23.917-144.726 71.314-10.002 18.819-19.449 36.594-32.082 48.093-31.653 32.379-52.225 39.485-65.838 44.187-9.745 3.366-15.627 5.398-18.923 14.646-2.355 5.755.109 15.78 6.773 27.477 7.076 12.42 18.014 25.268 30.8 36.176C177.249-8.229 192.445-4.374 205.852-.973c3.557.902 6.917 1.755 10.115 2.776h.002c4.823 1.511 9.062 2.721 12.801 3.79 17.272 4.93 27.696 7.907 62.395 30.001 22.116 14.125 67.367 31.267 114.456 35.527 25.488 2.306 48.102.497 67.217-5.376 22.337-6.863 39.502-19.232 51.019-36.763 12.901-20.136 21.27-42.602 24.879-66.78 3.593-24.073 2.273-48.524-3.922-72.672-8.64-33.676-26.693-65.171-52.206-91.078-26.448-26.856-60.035-47.35-99.924-60.992zM191.733-6.13c-9.499-3.249-19.71-8.268-30.551-18.058-27.47-23.436-41.719-51.706-37.332-62.425 3.112-8.731 8.808-10.699 18.246-13.959 13.703-4.733 34.411-11.885 66.219-44.425 12.763-11.615 22.259-29.483 32.312-48.399 12.758-24.005 25.95-48.827 47.393-64.275 24.394-17.574 55.858-19.694 96.188-6.483 43.351 13.534 79.595 34.88 107.726 63.445 25.397 25.79 43.366 57.13 51.961 90.634 6.157 23.997 7.469 48.288 3.9 72.2-3.582 23.998-11.888 46.295-24.687 66.272-14.78 22.499-47.134 47.993-117.318 41.644-46.956-4.248-92.061-21.33-114.098-35.404-34.798-22.158-45.265-25.147-62.605-30.098-3.735-1.066-7.967-2.274-12.78-3.782-3.221-1.028-6.592-1.884-10.161-2.789-4.597-1.166-9.406-2.386-14.413-4.098z" fill="#004BBB"/></g><mask id="wf" style="mask-type:alpha" maskUnits="userSpaceOnUse" x="146" y="-246" width="381" height="302"><path d="M385.668-237.321c-32.822-11.225-59.039-10.493-80.067 2.216-19.127 11.561-31.679 31.266-43.817 50.321-10.115 15.88-19.669 30.878-32.449 40.595-28.951 25.758-48.452 32.595-61.356 37.118-10.296 3.61-16.511 5.789-19.942 14.889-5.273 12.04 4.622 40.72 25.775 61.038 15.971 16.707 30.055 21.048 43.678 25.246l1.547.477c6.579 1.985 12.231 3.226 17.698 4.427 14.655 3.218 28.497 6.26 56.316 23.191 20.251 12.377 60.858 27.744 102.159 32.233 34.809 3.784 81.427.931 105.841-34.145 23.402-34.815 31.103-79.159 21.134-121.669-6.79-28.953-21.596-56.168-42.819-78.703-23.201-24.638-53.31-43.401-89.504-55.778-.429-.147-.857-.292-1.288-.438-.974-.349-1.943-.689-2.906-1.018zM209.63-9.472c-11.023-3.77-22.518-9.179-35.202-22.448-22.612-21.721-30.148-49.536-25.6-59.92 3.26-8.646 9.31-10.766 19.332-14.28 12.973-4.548 32.577-11.421 61.642-37.282 12.901-9.807 22.507-24.886 32.676-40.851 12.071-18.95 24.552-38.545 43.474-49.982 21.414-12.943 48.321-13.3 82.291-1.112l1.285.436c36.087 12.342 66.089 31.034 89.206 55.582 21.117 22.425 35.848 49.496 42.601 78.289 4.935 21.042 5.606 42.3 1.994 63.183-3.62 20.937-11.342 40.31-22.952 57.58-24.132 34.674-70.419 37.473-104.999 33.715-41.189-4.478-81.671-19.794-101.854-32.13-27.925-16.997-41.826-20.05-56.541-23.282-5.454-1.197-11.093-2.436-17.644-4.412l-1.543-.477c-2.7-.831-5.419-1.67-8.166-2.609z" fill="url(#wpaint5_linear_21_3375)"/></mask><g mask="url(#wf)"><path d="M385.668-237.321c-32.822-11.225-59.039-10.493-80.067 2.216-19.127 11.561-31.679 31.266-43.817 50.321-10.115 15.88-19.669 30.878-32.449 40.595-28.951 25.758-48.452 32.595-61.356 37.118-10.296 3.61-16.511 5.789-19.942 14.889-5.273 12.04 4.622 40.72 25.775 61.038 15.971 16.707 30.055 21.048 43.678 25.246l1.547.477c6.579 1.985 12.231 3.226 17.698 4.427 14.655 3.218 28.497 6.26 56.316 23.191 20.251 12.377 60.858 27.744 102.159 32.233 34.809 3.784 81.427.931 105.841-34.145 23.402-34.815 31.103-79.159 21.134-121.669-6.79-28.953-21.596-56.168-42.819-78.703-23.201-24.638-53.31-43.401-89.504-55.778-.429-.147-.857-.292-1.288-.438-.974-.349-1.943-.689-2.906-1.018zM209.63-9.472c-11.023-3.77-22.518-9.179-35.202-22.448-22.612-21.721-30.148-49.536-25.6-59.92 3.26-8.646 9.31-10.766 19.332-14.28 12.973-4.548 32.577-11.421 61.642-37.282 12.901-9.807 22.507-24.886 32.676-40.851 12.071-18.95 24.552-38.545 43.474-49.982 21.414-12.943 48.321-13.3 82.291-1.112l1.285.436c36.087 12.342 66.089 31.034 89.206 55.582 21.117 22.425 35.848 49.496 42.601 78.289 4.935 21.042 5.606 42.3 1.994 63.183-3.62 20.937-11.342 40.31-22.952 57.58-24.132 34.674-70.419 37.473-104.999 33.715-41.189-4.478-81.671-19.794-101.854-32.13-27.925-16.997-41.826-20.05-56.541-23.282-5.454-1.197-11.093-2.436-17.644-4.412l-1.543-.477c-2.7-.831-5.419-1.67-8.166-2.609z" fill="#004BBB"/></g><mask id="wg" style="mask-type:alpha" maskUnits="userSpaceOnUse" x="170" y="-217" width="333" height="257"><path d="M383.936-210.641c-24.005-8.21-43.868-8.422-60.518-.688-16.575 7.7-28.368 22.302-39.773 36.423-9.744 12.065-19.819 24.541-32.715 32.326-25.833 19.188-44.09 25.568-56.171 29.79-11.239 3.927-18.023 6.298-21.665 15.385-5.268 11.29-2.454 39.683 13.974 58.417 11.141 14.468 21.623 22.35 35.035 26.342h.003c7.142 2.058 13.609 3 20.456 4 14.47 2.11 29.434 4.293 52.375 17.446 18.502 10.669 54.515 24.275 89.861 28.939 30.629 4.041 71.704 2.785 93.445-26.15 21.109-29.453 28.908-67.345 21.405-103.967-4.964-24.227-16.546-47.154-33.495-66.305-18.747-21.183-43.494-37.575-73.553-48.721a169.42 169.42 0 00-8.664-3.237zM220.009-14.284c-12.149-4.155-21.939-11.865-32.331-25.36-16.208-18.484-19.038-46.354-13.872-57.427 3.484-8.689 9.748-10.878 21.118-14.851 12.129-4.238 30.458-10.643 56.362-29.887 12.998-7.846 23.129-20.389 32.925-32.519 11.336-14.036 23.059-28.551 39.446-36.163 18.414-8.553 40.856-7.258 68.619 3.952 29.961 11.11 54.615 27.437 73.284 48.532 16.856 19.045 28.373 41.839 33.306 65.916 7.446 36.343-.288 73.935-21.218 103.139-21.477 28.584-62.256 29.8-92.681 25.786-35.255-4.652-71.166-18.218-89.613-28.854C272.3-5.238 257.274-7.43 242.74-9.55c-6.823-.995-13.268-1.935-20.367-3.979a61.776 61.776 0 01-2.364-.755z" fill="url(#wpaint6_linear_21_3375)"/></mask><g mask="url(#wg)"><path d="M383.936-210.641c-24.005-8.21-43.868-8.422-60.518-.688-16.575 7.7-28.368 22.302-39.773 36.423-9.744 12.065-19.819 24.541-32.715 32.326-25.833 19.188-44.09 25.568-56.171 29.79-11.239 3.927-18.023 6.298-21.665 15.385-5.268 11.29-2.454 39.683 13.974 58.417 11.141 14.468 21.623 22.35 35.035 26.342h.003c7.142 2.058 13.609 3 20.456 4 14.47 2.11 29.434 4.293 52.375 17.446 18.502 10.669 54.515 24.275 89.861 28.939 30.629 4.041 71.704 2.785 93.445-26.15 21.109-29.453 28.908-67.345 21.405-103.967-4.964-24.227-16.546-47.154-33.495-66.305-18.747-21.183-43.494-37.575-73.553-48.721a169.42 169.42 0 00-8.664-3.237zM220.009-14.284c-12.149-4.155-21.939-11.865-32.331-25.36-16.208-18.484-19.038-46.354-13.872-57.427 3.484-8.689 9.748-10.878 21.118-14.851 12.129-4.238 30.458-10.643 56.362-29.887 12.998-7.846 23.129-20.389 32.925-32.519 11.336-14.036 23.059-28.551 39.446-36.163 18.414-8.553 40.856-7.258 68.619 3.952 29.961 11.11 54.615 27.437 73.284 48.532 16.856 19.045 28.373 41.839 33.306 65.916 7.446 36.343-.288 73.935-21.218 103.139-21.477 28.584-62.256 29.8-92.681 25.786-35.255-4.652-71.166-18.218-89.613-28.854C272.3-5.238 257.274-7.43 242.74-9.55c-6.823-.995-13.268-1.935-20.367-3.979a61.776 61.776 0 01-2.364-.755z" fill="#004BBB"/></g><mask id="wh" style="mask-type:alpha" maskUnits="userSpaceOnUse" x="193" y="-190" width="286" height="214"><path d="M382.007-184.501c-38.675-13.227-57.333 3.224-76.967 20.533-9.683 8.536-19.696 17.363-32.514 23.004-21.921 12.713-37.879 18.078-49.53 21.996-13.441 4.519-20.845 7.009-24.846 16.341-3.031 6.12-4.994 16.08-5.111 25.972-.142 11.955 2.444 22.543 7.279 29.812 7.141 13.312 13.515 23.768 24.853 26.973l.003.001c7.176 1.948 14.594 2.489 22.446 3.062 14.174 1.034 30.24 2.207 49.204 12.211 13.116 6.973 44.214 20.22 77.56 25.643 17.35 2.821 32.71 3.075 45.655.754 15.293-2.742 27.201-9.103 35.393-18.906 18.904-24.102 26.864-55.587 21.848-86.392-3.175-19.498-11.571-38.126-24.281-53.872-14.055-17.413-33.021-31.253-56.371-41.135-5.177-2.447-10.04-4.43-14.621-5.997zM224.171-21.056c-10.338-3.536-16.427-13.594-23.241-26.294-11.055-16.621-7.269-44.604-2.145-54.953 3.853-8.985 11.134-11.433 24.352-15.877 11.681-3.928 27.68-9.307 49.629-22.039 12.891-5.671 22.952-14.54 32.682-23.118 11.093-9.779 21.571-19.017 35.458-23.061 15.649-4.558 33.252-1.804 55.401 8.664 23.265 9.847 42.149 23.624 56.136 40.953 12.629 15.646 20.971 34.149 24.123 53.51 4.974 30.546-2.916 61.762-21.645 85.642-8.056 9.64-19.809 15.906-34.925 18.617-12.873 2.308-28.161 2.053-45.44-.756-33.268-5.41-64.289-18.625-77.374-25.58-19.076-10.065-35.21-11.243-49.445-12.281-7.821-.57-15.21-1.11-22.33-3.042a24.237 24.237 0 01-1.236-.385z" fill="url(#wpaint7_linear_21_3375)"/></mask><g mask="url(#wh)"><path d="M382.007-184.501c-38.675-13.227-57.333 3.224-76.967 20.533-9.683 8.536-19.696 17.363-32.514 23.004-21.921 12.713-37.879 18.078-49.53 21.996-13.441 4.519-20.845 7.009-24.846 16.341-3.031 6.12-4.994 16.08-5.111 25.972-.142 11.955 2.444 22.543 7.279 29.812 7.141 13.312 13.515 23.768 24.853 26.973l.003.001c7.176 1.948 14.594 2.489 22.446 3.062 14.174 1.034 30.24 2.207 49.204 12.211 13.116 6.973 44.214 20.22 77.56 25.643 17.35 2.821 32.71 3.075 45.655.754 15.293-2.742 27.201-9.103 35.393-18.906 18.904-24.102 26.864-55.587 21.848-86.392-3.175-19.498-11.571-38.126-24.281-53.872-14.055-17.413-33.021-31.253-56.371-41.135-5.177-2.447-10.04-4.43-14.621-5.997zM224.171-21.056c-10.338-3.536-16.427-13.594-23.241-26.294-11.055-16.621-7.269-44.604-2.145-54.953 3.853-8.985 11.134-11.433 24.352-15.877 11.681-3.928 27.68-9.307 49.629-22.039 12.891-5.671 22.952-14.54 32.682-23.118 11.093-9.779 21.571-19.017 35.458-23.061 15.649-4.558 33.252-1.804 55.401 8.664 23.265 9.847 42.149 23.624 56.136 40.953 12.629 15.646 20.971 34.149 24.123 53.51 4.974 30.546-2.916 61.762-21.645 85.642-8.056 9.64-19.809 15.906-34.925 18.617-12.873 2.308-28.161 2.053-45.44-.756-33.268-5.41-64.289-18.625-77.374-25.58-19.076-10.065-35.21-11.243-49.445-12.281-7.821-.57-15.21-1.11-22.33-3.042a24.237 24.237 0 01-1.236-.385z" fill="#004BBB"/></g><mask id="wi" style="mask-type:alpha" maskUnits="userSpaceOnUse" x="211" y="-164" width="245" height="172"><path d="M379.771-159.55c-23.36-7.99-37.881-.785-55.291 7.85-9.089 4.507-18.486 9.169-30.361 12.36-16.176 6.446-28.871 10.219-39.072 13.251-17.502 5.203-27.143 8.068-31.84 18.242-5.839 11.143-14.986 39.076-9.65 53.1.243 1.037.48 2.081.718 3.125 2.478 10.904 5.045 22.18 13.964 24.528h.003c6.968 1.75 15.384 1.779 24.294 1.81 14.416.05 30.756.105 46.177 7.292 16.667 7.846 101.456 45.31 133.904 12.196 16.867-18.755 25.116-43.908 22.643-69.02-1.476-14.985-6.616-28.913-15.276-41.401-9.438-13.607-22.668-24.84-39.324-33.384-7.745-4.581-14.635-7.811-20.889-9.949zM227.648-28.053c-7.949-2.718-10.385-13.439-12.744-23.818a473.612 473.612 0 00-.724-3.154l-.014-.047c-5.266-13.782 3.808-41.413 9.6-52.466 4.554-9.864 14.085-12.696 31.386-17.839 10.213-3.036 22.924-6.814 39.092-13.258 11.9-3.197 21.327-7.873 30.445-12.394 21.908-10.867 39.214-19.449 75.643 2.097 16.586 8.509 29.745 19.678 39.127 33.206 8.593 12.39 13.692 26.205 15.155 41.061 2.45 24.876-5.72 49.79-22.416 68.356C419.27 6.884 396.37 10.23 364.146 3.63c-28.365-5.812-55.001-17.536-65.137-22.308-15.529-7.235-31.934-7.293-46.408-7.344-8.875-.03-17.258-.059-24.16-1.791-.27-.071-.535-.152-.793-.24z" fill="url(#wpaint8_linear_21_3375)"/></mask><g mask="url(#wi)"><path d="M379.771-159.55c-23.36-7.99-37.881-.785-55.291 7.85-9.089 4.507-18.486 9.169-30.361 12.36-16.176 6.446-28.871 10.219-39.072 13.251-17.502 5.203-27.143 8.068-31.84 18.242-5.839 11.143-14.986 39.076-9.65 53.1.243 1.037.48 2.081.718 3.125 2.478 10.904 5.045 22.18 13.964 24.528h.003c6.968 1.75 15.384 1.779 24.294 1.81 14.416.05 30.756.105 46.177 7.292 16.667 7.846 101.456 45.31 133.904 12.196 16.867-18.755 25.116-43.908 22.643-69.02-1.476-14.985-6.616-28.913-15.276-41.401-9.438-13.607-22.668-24.84-39.324-33.384-7.745-4.581-14.635-7.811-20.889-9.949zM227.648-28.053c-7.949-2.718-10.385-13.439-12.744-23.818a473.612 473.612 0 00-.724-3.154l-.014-.047c-5.266-13.782 3.808-41.413 9.6-52.466 4.554-9.864 14.085-12.696 31.386-17.839 10.213-3.036 22.924-6.814 39.092-13.258 11.9-3.197 21.327-7.873 30.445-12.394 21.908-10.867 39.214-19.449 75.643 2.097 16.586 8.509 29.745 19.678 39.127 33.206 8.593 12.39 13.692 26.205 15.155 41.061 2.45 24.876-5.72 49.79-22.416 68.356C419.27 6.884 396.37 10.23 364.146 3.63c-28.365-5.812-55.001-17.536-65.137-22.308-15.529-7.235-31.934-7.293-46.408-7.344-8.875-.03-17.258-.059-24.16-1.791-.27-.071-.535-.152-.793-.24z" fill="#004BBB"/></g><mask id="wj" style="mask-type:alpha" maskUnits="userSpaceOnUse" x="225" y="-142" width="210" height="135"><path d="M376.329-138.101c-13.812-4.723-26.686-3.279-44.484-1.282-5.058.568-10.288 1.154-16.138 1.677-4.358.849-8.436 1.628-12.275 2.361-33.411 6.38-48.659 9.292-55.169 22.278-5.244 9.487-21.213 38.381-21.432 50.38-2.11 12.22-3.49 26.477 4.477 28.369h.003c6.666 1.501 16.303.9 26.505.264 14.388-.896 30.694-1.911 42.789 2.666 2.297.882 5.03 1.986 8.194 3.265 12.963 5.24 32.551 13.156 51.633 17.487 22.831 5.182 39.438 3.887 49.359-3.847 14.976-13.153 24.054-32.569 24.298-51.948.27-21.49-10.166-40.759-29.388-54.26-10.771-9.114-19.754-14.463-28.372-17.41zM230.898-35.122c-6.895-2.358-5.512-15.891-3.5-27.531l.005-.058c.192-11.791 16.112-40.598 21.343-50.064 6.364-12.694 21.52-15.588 54.726-21.929 3.84-.734 7.919-1.512 12.25-2.358 5.829-.519 11.062-1.106 16.123-1.674 28.767-3.227 44.613-5.005 72.504 18.594 19.083 13.405 29.435 32.495 29.167 53.766-.241 19.168-9.225 38.376-24.031 51.381-9.764 7.61-26.217 8.866-48.888 3.72-19.045-4.322-38.612-12.23-51.56-17.463-3.166-1.28-5.9-2.385-8.203-3.269-12.197-4.615-28.555-3.596-42.993-2.696-10.164.634-19.766 1.232-26.365-.252a6.385 6.385 0 01-.578-.167z" fill="url(#wpaint9_linear_21_3375)"/></mask><mask id="wk" style="mask-type:alpha" maskUnits="userSpaceOnUse" x="231" y="-137" width="186" height="116"><path d="M364.751-130.433c-8.033-2.747-17.141-4.609-27.467-5.629-37.278-1.294-56.403 4.022-63.965 17.777-3.637 6.254-11.97 17.781-19.322 27.951-5.822 8.053-11.321 15.659-13.827 19.716-2.495 3.326-5.035 8.301-6.777 13.283-1.908 5.458-2.562 9.993-1.841 12.773.444 1.717 1.396 2.731 2.826 3.02h.002c6.414 1.228 17.867-.209 29.992-1.73 14.408-1.806 29.305-3.675 38.131-1.512 4.795 1.197 12.002 4.193 20.348 7.662 20.715 8.61 49.088 20.404 64.094 13.953 13.938-7.186 24.839-20.524 28.465-34.815 3.048-12.007.749-23.682-6.648-33.765-7.677-13.682-16.035-23.248-26.289-30.079-5.23-3.484-11.112-6.345-17.722-8.605zM234.105-42.207c-1.029-.351-1.726-1.21-2.076-2.561-1.469-5.67 3.457-18.78 8.521-25.534 2.511-4.061 8.003-11.658 13.818-19.7 7.361-10.183 15.704-21.724 19.361-28.013 7.446-13.544 26.429-18.771 63.478-17.485 18.737 1.852 33.456 6.485 44.984 14.165 10.193 6.791 18.506 16.307 26.16 29.946 7.313 9.97 9.584 21.477 6.584 33.3-3.583 14.117-14.366 27.3-28.14 34.403-14.813 6.366-43.087-5.386-63.734-13.968-8.361-3.475-15.581-6.477-20.408-7.681-8.902-2.182-23.84-.308-38.286 1.504-12.091 1.516-23.511 2.948-29.858 1.733a3.156 3.156 0 01-.404-.108z" fill="url(#wpaint10_linear_21_3375)"/></mask><mask id="wl" style="mask-type:alpha" maskUnits="userSpaceOnUse" x="235" y="-140" width="179" height="109"><path d="M361.888-133.442a77.33 77.33 0 00-3.041-.97c-16.624-4.926-30.536-5.923-41.348-2.963-8.489 2.324-14.923 6.992-19.124 13.874-6.879 11.269-33.699 38.206-44.841 45.036-4.152 2.545-8.698 7.554-12.473 13.742-3.416 5.6-5.466 11.03-5.223 13.838.108 1.248.667 1.98 1.61 2.118 6.602.963 22.675-2.091 38.218-5.045 12.052-2.29 23.437-4.453 28.746-4.372 6.022.092 16.643 5.983 27.886 12.22 11.583 6.424 23.56 13.069 31.769 14.084 8.588 1.063 19.638-1.414 28.836-6.463 10.75-5.901 17.816-14.54 19.896-24.326 2.433-11.451-1.62-26.411-10.844-40.019-9.756-14.395-23.897-25.224-40.067-30.754zM237.255-49.308c-.592-.202-.919-.752-.999-1.67-.471-5.439 8.315-21.474 17.448-27.072 11.183-6.855 38.103-33.894 45.008-45.206 4.132-6.769 10.473-11.363 18.846-13.656 10.743-2.941 24.587-1.944 41.146 2.963 17.352 5.14 32.594 16.356 42.909 31.574 9.017 13.303 13.147 28.492 10.778 39.639-2.046 9.626-9.021 18.138-19.64 23.967-9.126 5.01-20.085 7.468-28.598 6.415-8.141-1.008-20.088-7.634-31.641-14.043-11.284-6.259-21.94-12.17-28.053-12.264-5.347-.081-16.75 2.085-28.822 4.38-15.512 2.947-31.554 5.995-38.096 5.042a1.616 1.616 0 01-.286-.069z" fill="url(#wpaint11_linear_21_3375)"/></mask></g><defs><linearGradient id="wpaint0_linear_21_3375" x1="77.866" y1="-227.308" x2="652.21" y2="-30.893" gradientUnits="userSpaceOnUse"><stop stop-color="#fff"/><stop offset=".044" stop-color="#B4B4B4"/><stop offset=".151"/><stop offset=".171" stop-color="#171717"/><stop offset=".386" stop-color="#fff"/><stop offset=".633" stop-color="#E6E6E6"/><stop offset=".857" stop-color="#1A1A1A"/><stop offset=".999"/></linearGradient><linearGradient id="wpaint1_linear_21_3375" x1="96.706" y1="-214.309" x2="627.145" y2="-32.908" gradientUnits="userSpaceOnUse"><stop stop-color="#fff"/><stop offset=".044" stop-color="#B4B4B4"/><stop offset=".151"/><stop offset=".171" stop-color="#171717"/><stop offset=".386" stop-color="#fff"/><stop offset=".633" stop-color="#E6E6E6"/><stop offset=".857" stop-color="#1A1A1A"/><stop offset=".999"/></linearGradient><linearGradient id="wpaint2_linear_21_3375" x1="115.548" y1="-201.332" x2="602.112" y2="-34.935" gradientUnits="userSpaceOnUse"><stop stop-color="#fff"/><stop offset=".044" stop-color="#B4B4B4"/><stop offset=".151"/><stop offset=".171" stop-color="#171717"/><stop offset=".386" stop-color="#fff"/><stop offset=".633" stop-color="#E6E6E6"/><stop offset=".857" stop-color="#1A1A1A"/><stop offset=".999"/></linearGradient><linearGradient id="wpaint3_linear_21_3375" x1="134.39" y1="-188.381" x2="577.127" y2="-36.974" gradientUnits="userSpaceOnUse"><stop stop-color="#fff"/><stop offset=".044" stop-color="#B4B4B4"/><stop offset=".151"/><stop offset=".171" stop-color="#171717"/><stop offset=".386" stop-color="#fff"/><stop offset=".633" stop-color="#E6E6E6"/><stop offset=".857" stop-color="#1A1A1A"/><stop offset=".999"/></linearGradient><linearGradient id="wpaint4_linear_21_3375" x1="153.224" y1="-175.448" x2="552.196" y2="-39.007" gradientUnits="userSpaceOnUse"><stop stop-color="#fff"/><stop offset=".044" stop-color="#B4B4B4"/><stop offset=".151"/><stop offset=".171" stop-color="#171717"/><stop offset=".386" stop-color="#fff"/><stop offset=".633" stop-color="#E6E6E6"/><stop offset=".857" stop-color="#1A1A1A"/><stop offset=".999"/></linearGradient><linearGradient id="wpaint5_linear_21_3375" x1="172.075" y1="-162.613" x2="527.333" y2="-41.121" gradientUnits="userSpaceOnUse"><stop stop-color="#fff"/><stop offset=".044" stop-color="#B4B4B4"/><stop offset=".151"/><stop offset=".171" stop-color="#171717"/><stop offset=".386" stop-color="#fff"/><stop offset=".633" stop-color="#E6E6E6"/><stop offset=".857" stop-color="#1A1A1A"/><stop offset=".999"/></linearGradient><linearGradient id="wpaint6_linear_21_3375" x1="190.953" y1="-149.94" x2="502.716" y2="-43.323" gradientUnits="userSpaceOnUse"><stop stop-color="#fff"/><stop offset=".044" stop-color="#B4B4B4"/><stop offset=".151"/><stop offset=".171" stop-color="#171717"/><stop offset=".386" stop-color="#fff"/><stop offset=".633" stop-color="#E6E6E6"/><stop offset=".857" stop-color="#1A1A1A"/><stop offset=".999"/></linearGradient><linearGradient id="wpaint7_linear_21_3375" x1="208.797" y1="-134.583" x2="477.408" y2="-42.723" gradientUnits="userSpaceOnUse"><stop stop-color="#fff"/><stop offset=".044" stop-color="#B4B4B4"/><stop offset=".151"/><stop offset=".171" stop-color="#171717"/><stop offset=".386" stop-color="#fff"/><stop offset=".633" stop-color="#E6E6E6"/><stop offset=".857" stop-color="#1A1A1A"/><stop offset=".999"/></linearGradient><linearGradient id="wpaint8_linear_21_3375" x1="226.344" y1="-119.864" x2="452.743" y2="-42.439" gradientUnits="userSpaceOnUse"><stop stop-color="#fff"/><stop offset=".044" stop-color="#B4B4B4"/><stop offset=".151"/><stop offset=".171" stop-color="#171717"/><stop offset=".386" stop-color="#fff"/><stop offset=".633" stop-color="#E6E6E6"/><stop offset=".857" stop-color="#1A1A1A"/><stop offset=".999"/></linearGradient><linearGradient id="wpaint9_linear_21_3375" x1="240.953" y1="-107.692" x2="429.635" y2="-43.166" gradientUnits="userSpaceOnUse"><stop stop-color="#fff"/><stop offset=".044" stop-color="#B4B4B4"/><stop offset=".151"/><stop offset=".171" stop-color="#171717"/><stop offset=".386" stop-color="#fff"/><stop offset=".633" stop-color="#E6E6E6"/><stop offset=".857" stop-color="#1A1A1A"/><stop offset=".999"/></linearGradient><linearGradient id="wpaint10_linear_21_3375" x1="249.088" y1="-103.233" x2="411.991" y2="-47.523" gradientUnits="userSpaceOnUse"><stop stop-color="#fff"/><stop offset=".044" stop-color="#B4B4B4"/><stop offset=".151"/><stop offset=".171" stop-color="#171717"/><stop offset=".386" stop-color="#fff"/><stop offset=".633" stop-color="#E6E6E6"/><stop offset=".857" stop-color="#1A1A1A"/><stop offset=".999"/></linearGradient><linearGradient id="wpaint11_linear_21_3375" x1="254.127" y1="-106.661" x2="409.856" y2="-53.404" gradientUnits="userSpaceOnUse"><stop stop-color="#fff"/><stop offset=".044" stop-color="#B4B4B4"/><stop offset=".151"/><stop offset=".171" stop-color="#171717"/><stop offset=".386" stop-color="#fff"/><stop offset=".633" stop-color="#E6E6E6"/><stop offset=".857" stop-color="#1A1A1A"/><stop offset=".999"/></linearGradient></defs></svg>