<?xml version="1.0" encoding="utf-8"?><svg width="572" height="323" fill="none" xmlns="http://www.w3.org/2000/svg" viewBox="0 0 572 323"><g opacity=".35"><mask id="xa" style="mask-type:alpha" maskUnits="userSpaceOnUse" x="19" y="-184" width="542" height="457"><path d="M348.487-166.825a420.81 420.81 0 00-30.238-9.075c-57.991-15.083-101.466-6.487-132.908 26.281-27.244 28.394-41.342 70.487-53.781 107.625-8.302 24.789-16.144 48.203-26.714 63.542-35.187 51.061-56.986 57.66-70.01 61.602-7.541 2.283-12.523 3.791-15.182 12.788-2.604 8.816 20.656 29.15 73.2 63.99 22.725 15.07 44.042 16.037 61.17 16.815 8.581.39 16.003.727 21.916 2.773l.204-.593-.204.593c16.282 5.624 20.02 9.238 28.209 17.157 6.829 6.604 17.149 16.583 40.829 33.357 20.81 14.741 56.462 28.527 93.048 35.978 20.816 4.239 41.224 6.381 60.656 6.364 21.752-.02 41.782-2.771 59.534-8.18 32.884-10.019 57.46-28.895 73.044-56.105 15.353-26.806 24.681-56.41 27.724-87.987 3.023-31.367-.304-63.081-9.886-94.262-13.949-45.388-40.843-87.334-77.777-121.3-19.69-18.109-42.258-34.01-67.077-47.265-17.439-9.313-36.107-17.377-55.757-24.098zM114.92 169.455c-6.944-2.375-14.126-5.753-21.45-10.609C69.573 143 52.064 130.384 39.943 120.275c-17.483-14.582-20.124-21.128-19.26-24.05 2.447-8.284 6.67-9.562 14.334-11.882 13.172-3.988 35.217-10.66 70.66-62.095 10.686-15.507 18.559-39.016 26.896-63.906 12.39-36.993 26.433-78.923 53.459-107.089 31.131-32.443 74.268-40.931 131.877-25.947 30.818 8.015 59.684 19.151 85.795 33.095 24.75 13.217 47.253 29.073 66.883 47.126 36.798 33.842 63.59 75.62 77.479 120.817 9.532 31.017 12.842 62.556 9.836 93.742-3.023 31.371-12.287 60.777-27.537 87.402-15.411 26.908-39.747 45.585-72.332 55.513-17.656 5.379-37.589 8.116-59.245 8.135-19.369.017-39.714-2.118-60.469-6.345-36.469-7.427-71.99-21.156-92.702-35.827-23.621-16.732-33.909-26.681-40.717-33.264-8.292-8.019-12.077-11.678-28.552-17.37l-.085-.028c-6.035-2.065-13.477-2.403-22.089-2.794-11.479-.521-24.854-1.128-39.254-6.053z" fill="url(#xpaint0_linear_22_3690)"/></mask><g mask="url(#xa)"><path d="M348.487-166.825a420.81 420.81 0 00-30.238-9.075c-57.991-15.083-101.466-6.487-132.908 26.281-27.244 28.394-41.342 70.487-53.781 107.625-8.302 24.789-16.144 48.203-26.714 63.542-35.187 51.061-56.986 57.66-70.01 61.602-7.541 2.283-12.523 3.791-15.182 12.788-2.604 8.816 20.656 29.15 73.2 63.99 22.725 15.07 44.042 16.037 61.17 16.815 8.581.39 16.003.727 21.916 2.773l.204-.593-.204.593c16.282 5.624 20.02 9.238 28.209 17.157 6.829 6.604 17.149 16.583 40.829 33.357 20.81 14.741 56.462 28.527 93.048 35.978 20.816 4.239 41.224 6.381 60.656 6.364 21.752-.02 41.782-2.771 59.534-8.18 32.884-10.019 57.46-28.895 73.044-56.105 15.353-26.806 24.681-56.41 27.724-87.987 3.023-31.367-.304-63.081-9.886-94.262-13.949-45.388-40.843-87.334-77.777-121.3-19.69-18.109-42.258-34.01-67.077-47.265-17.439-9.313-36.107-17.377-55.757-24.098zM114.92 169.455c-6.944-2.375-14.126-5.753-21.45-10.609C69.573 143 52.064 130.384 39.943 120.275c-17.483-14.582-20.124-21.128-19.26-24.05 2.447-8.284 6.67-9.562 14.334-11.882 13.172-3.988 35.217-10.66 70.66-62.095 10.686-15.507 18.559-39.016 26.896-63.906 12.39-36.993 26.433-78.923 53.459-107.089 31.131-32.443 74.268-40.931 131.877-25.947 30.818 8.015 59.684 19.151 85.795 33.095 24.75 13.217 47.253 29.073 66.883 47.126 36.798 33.842 63.59 75.62 77.479 120.817 9.532 31.017 12.842 62.556 9.836 93.742-3.023 31.371-12.287 60.777-27.537 87.402-15.411 26.908-39.747 45.585-72.332 55.513-17.656 5.379-37.589 8.116-59.245 8.135-19.369.017-39.714-2.118-60.469-6.345-36.469-7.427-71.99-21.156-92.702-35.827-23.621-16.732-33.909-26.681-40.717-33.264-8.292-8.019-12.077-11.678-28.552-17.37l-.085-.028c-6.035-2.065-13.477-2.403-22.089-2.794-11.479-.521-24.854-1.128-39.254-6.053z" fill="silver"/></g><mask id="xb" style="mask-type:alpha" maskUnits="userSpaceOnUse" x="41" y="-159" width="498" height="418"><path d="M346.114-143.506a382.297 382.297 0 00-24.389-7.434c-52.186-14.183-91.622-7.332-120.561 20.943-25.14 24.564-38.759 61.705-50.774 94.474-8.369 22.825-16.274 44.385-26.899 58.452-33.35 45.266-54.36 51.879-66.913 55.83-7.587 2.388-12.599 3.965-15.28 12.667-1.585 4.892 3.85 13.293 16.155 24.959 11.07 10.496 27.274 23.214 46.859 36.781 20.41 14.275 39.604 15.862 55.026 17.138 7.455.617 13.894 1.149 19.253 2.973 16.999 5.75 20.669 8.768 31.563 17.695 7.319 5.998 17.344 14.213 36.453 27.487 19.572 13.603 52.851 26.416 86.85 33.439 19.445 4.016 38.463 6.085 56.527 6.147 20.267.07 38.888-2.413 55.346-7.38 29.692-8.961 51.976-25.815 66.235-50.092 14.293-24.45 23.089-51.5 26.145-80.398 3.037-28.716.255-57.774-8.27-86.366-12.319-41.315-36.38-79.58-69.584-110.655-17.704-16.569-38.035-31.159-60.43-43.364-16.604-9.049-34.461-16.848-53.312-23.296zM126.826 163.346c-7.059-2.415-14.408-5.933-21.919-11.186-41.426-28.695-65.431-51.854-62.65-60.44 2.483-8.062 7.007-9.486 14.501-11.845 12.681-3.99 33.906-10.671 67.486-56.249 10.74-14.22 18.679-35.873 27.085-58.797 11.965-32.633 25.528-69.621 50.457-93.978 28.647-27.991 67.773-34.749 119.611-20.661 27.88 7.504 53.96 17.818 77.515 30.656 22.33 12.17 42.6 26.716 60.249 43.233 33.077 30.956 57.042 69.061 69.307 110.196 8.478 28.437 11.246 57.33 8.228 85.875-3.036 28.704-11.771 55.569-25.965 79.849-14.095 23.998-36.156 40.669-65.57 49.546-21.74 6.561-58.718 12.097-111.427 1.21-33.892-7-67.05-19.762-86.533-33.302-19.08-13.254-29.089-21.456-36.397-27.444-10.688-8.759-14.698-12.035-31.834-17.847-5.458-1.857-11.946-2.394-19.458-3.015-9.629-.797-20.741-1.716-32.686-5.801z" fill="url(#xpaint1_linear_22_3690)"/></mask><g mask="url(#xb)"><path d="M346.114-143.506a383.175 383.175 0 00-24.39-7.435c-52.185-14.182-91.621-7.331-120.56 20.944-25.14 24.564-38.759 61.704-50.774 94.473-8.37 22.826-16.275 44.386-26.899 58.453-33.351 45.266-54.36 51.879-66.914 55.83-7.586 2.388-12.599 3.965-15.28 12.667-1.584 4.892 3.85 13.293 16.156 24.959 11.07 10.496 27.273 23.214 46.859 36.78 20.41 14.276 39.603 15.863 55.025 17.139 7.456.616 13.895 1.149 19.253 2.973 17 5.749 20.669 8.768 31.563 17.695 7.32 5.998 17.344 14.213 36.453 27.487 19.572 13.603 52.852 26.416 86.85 33.439 19.445 4.016 38.464 6.084 56.527 6.147 20.267.07 38.889-2.413 55.347-7.38 29.691-8.962 51.976-25.815 66.235-50.092 14.293-24.451 23.089-51.5 26.145-80.398 3.037-28.716.254-57.774-8.271-86.367-12.318-41.315-36.38-79.578-69.583-110.654-17.704-16.569-38.036-31.159-60.431-43.364-16.603-9.05-34.46-16.849-53.311-23.296zM126.825 163.345c-7.059-2.414-14.408-5.932-21.919-11.185-41.425-28.695-65.43-51.854-62.65-60.44 2.484-8.063 7.008-9.486 14.502-11.845 12.68-3.991 33.905-10.672 67.485-56.249 10.74-14.22 18.68-35.873 27.085-58.797 11.966-32.633 25.528-69.621 50.457-93.979 28.648-27.99 67.773-34.748 119.612-20.66 27.88 7.504 53.96 17.818 77.515 30.655 22.329 12.171 42.6 26.716 60.249 43.234 33.076 30.956 57.042 69.061 69.307 110.196 8.478 28.437 11.246 57.33 8.227 85.875-3.035 28.703-11.771 55.568-25.964 79.849-14.095 23.998-36.157 40.668-65.571 49.546-21.739 6.561-58.718 12.097-111.427 1.21-33.892-7-67.05-19.762-86.532-33.302-19.081-13.254-29.089-21.456-36.398-27.445-10.688-8.758-14.698-12.034-31.834-17.846-5.458-1.858-11.946-2.394-19.458-3.016-9.628-.796-20.74-1.716-32.686-5.801z" fill="silver"/></g><mask id="xc" style="mask-type:alpha" maskUnits="userSpaceOnUse" x="62" y="-134" width="456" height="378"><path d="M344.02-120.138a349.49 349.49 0 00-18.822-5.843c-46.421-13.283-81.829-8.141-108.244 15.719-23.018 20.791-36.126 53.011-47.691 81.438-8.449 20.767-16.429 40.383-27.127 53.133-31.453 39.483-51.654 46.074-63.725 50.013-7.681 2.506-12.756 4.162-15.473 12.591-4.017 11.404 24.568 38.834 52.828 59.488 18.185 13.58 35.333 15.787 49.113 17.56 6.249.804 11.645 1.499 16.36 3.075l.001.001c19.352 6.411 22.53 8.671 40.178 21.192 6.646 4.715 14.916 10.583 26.815 18.658 12.162 8.264 30.097 16.413 50.501 22.943 22.96 7.35 47.028 11.995 69.601 13.433 26.714 1.701 50.424-1.048 70.47-8.173 23.352-8.3 41.205-22.441 53.063-42.031 13.236-22.097 21.504-46.595 24.576-72.816 3.054-26.07.816-52.475-6.651-78.483C499.1 4.519 477.868-30.061 448.391-58.242c-28.36-27.114-63.408-47.886-104.371-61.896zM139.059 157.516c-7.259-2.483-14.894-6.2-22.717-12.042-33.658-24.598-55.742-49.1-52.515-58.263 2.533-7.857 7.136-9.36 14.763-11.848 12.18-3.974 32.564-10.625 64.216-50.359 10.815-12.888 18.831-32.593 27.319-53.456 11.513-28.302 24.564-60.38 47.377-80.986 26.145-23.615 61.269-28.682 107.38-15.488 49.007 13.733 90.337 36.457 122.853 67.543 29.358 28.067 50.502 62.498 61.145 99.569 7.426 25.86 9.652 52.11 6.616 78.019-3.05 26.04-11.26 50.367-24.401 72.303-11.713 19.353-29.375 33.332-52.491 41.548-19.931 7.084-43.524 9.817-70.122 8.123-22.508-1.434-46.508-6.066-69.406-13.396-20.332-6.511-38.194-14.621-50.295-22.843-11.891-8.07-20.158-13.935-26.8-18.648-17.733-12.58-20.927-14.844-40.392-21.3-4.788-1.601-10.221-2.3-16.511-3.11-7.744-.997-16.561-2.132-26.019-5.366z" fill="url(#xpaint2_linear_22_3690)"/></mask><g mask="url(#xc)"><path d="M344.02-120.138a349.49 349.49 0 00-18.822-5.843c-46.421-13.283-81.829-8.141-108.244 15.719-23.018 20.791-36.126 53.011-47.691 81.438-8.449 20.767-16.429 40.383-27.127 53.133-31.453 39.483-51.654 46.074-63.725 50.013-7.681 2.506-12.756 4.162-15.473 12.591-4.017 11.404 24.568 38.834 52.828 59.488 18.185 13.58 35.333 15.787 49.113 17.56 6.249.804 11.645 1.499 16.36 3.075l.001.001c19.352 6.411 22.53 8.671 40.178 21.192 6.646 4.715 14.916 10.583 26.815 18.658 12.162 8.264 30.097 16.413 50.501 22.943 22.96 7.35 47.028 11.995 69.601 13.433 26.714 1.701 50.424-1.048 70.47-8.173 23.352-8.3 41.205-22.441 53.063-42.031 13.236-22.097 21.504-46.595 24.576-72.816 3.054-26.07.816-52.475-6.651-78.483C499.1 4.519 477.868-30.061 448.391-58.242c-28.36-27.114-63.408-47.886-104.371-61.896zM139.059 157.516c-7.259-2.483-14.894-6.2-22.717-12.042-33.658-24.598-55.742-49.1-52.515-58.263 2.533-7.857 7.136-9.36 14.763-11.848 12.18-3.974 32.564-10.625 64.216-50.359 10.815-12.888 18.831-32.593 27.319-53.456 11.513-28.302 24.564-60.38 47.377-80.986 26.145-23.615 61.269-28.682 107.38-15.488 49.007 13.733 90.337 36.457 122.853 67.543 29.358 28.067 50.502 62.498 61.145 99.569 7.426 25.86 9.652 52.11 6.616 78.019-3.05 26.04-11.26 50.367-24.401 72.303-11.713 19.353-29.375 33.332-52.491 41.548-19.931 7.084-43.524 9.817-70.122 8.123-22.508-1.434-46.508-6.066-69.406-13.396-20.332-6.511-38.194-14.621-50.295-22.843-11.891-8.07-20.158-13.935-26.8-18.648-17.733-12.58-20.927-14.844-40.392-21.3-4.788-1.601-10.221-2.3-16.511-3.11-7.744-.997-16.561-2.132-26.019-5.366z" fill="silver"/></g><mask id="xd" style="mask-type:alpha" maskUnits="userSpaceOnUse" x="84" y="-109" width="413" height="339"><path d="M341.601-96.915a312.185 312.185 0 00-12.927-4.107c-40.71-12.383-72.104-8.904-95.972 10.636-20.876 17.09-32.894 43.252-44.518 68.553-8.539 18.589-16.605 36.146-27.4 47.524-29.463 33.714-48.08 39.984-60.399 44.133-8.128 2.738-13.035 4.391-15.804 12.578-3.93 10.318 14.798 35.468 42.641 57.234 16.122 13.075 31.375 15.908 43.632 18.184 4.689.871 9.117 1.694 13.035 2.977h.001l1.987.641c22.849 7.37 24.713 7.973 63.984 33.877 11.03 7.29 27.823 14.858 46.064 20.769 20.983 6.795 42.913 11.209 63.418 12.762 24.363 1.847 45.985-.309 64.264-6.407 21.323-7.114 37.662-19.527 48.564-36.894 12.186-19.743 19.931-41.692 23.023-65.242 3.076-23.428 1.385-47.186-5.025-70.615-9.073-33.165-27.481-64.058-53.235-89.34-25.614-25.145-57.638-44.372-95.333-57.263zm-189.72 249.09c-7.602-2.6-15.737-6.603-24.101-13.386-27.085-21.173-46.094-46.331-42.379-56.087 2.598-7.68 7.325-9.272 15.158-11.91 11.661-3.928 31.179-10.502 60.81-44.41 10.91-11.497 19.015-29.14 27.597-47.82 11.568-25.18 23.529-51.22 44.208-68.147 23.619-19.337 54.758-22.757 95.196-10.458 43.224 12.717 79.542 33.3 107.945 61.183 25.644 25.175 43.972 55.927 53.001 88.933 6.372 23.29 8.053 46.901 4.998 70.179-3.07 23.381-10.758 45.172-22.853 64.766-10.763 17.146-26.923 29.412-48.025 36.453-18.174 6.063-39.689 8.205-63.947 6.367-20.446-1.55-42.315-5.951-63.244-12.729-18.181-5.887-34.906-13.426-45.881-20.68-39.357-25.961-41.232-26.568-64.167-33.965l-1.985-.641c-3.965-1.298-8.417-2.125-13.131-3.001-5.802-1.077-12.28-2.28-19.2-4.647z" fill="url(#xpaint3_linear_22_3690)"/></mask><g mask="url(#xd)"><path d="M341.601-96.915a312.185 312.185 0 00-12.927-4.107c-40.71-12.383-72.104-8.904-95.972 10.636-20.876 17.09-32.894 43.252-44.518 68.553-8.539 18.589-16.605 36.146-27.4 47.524-29.463 33.714-48.08 39.984-60.399 44.133-8.128 2.738-13.035 4.391-15.804 12.578-3.93 10.318 14.798 35.468 42.641 57.234 16.122 13.075 31.375 15.908 43.632 18.184 4.689.871 9.117 1.694 13.035 2.977h.001l1.987.641c22.849 7.37 24.713 7.973 63.984 33.877 11.03 7.29 27.823 14.858 46.064 20.769 20.983 6.795 42.913 11.209 63.418 12.762 24.363 1.847 45.985-.309 64.264-6.407 21.323-7.114 37.662-19.527 48.564-36.894 12.186-19.743 19.931-41.692 23.023-65.242 3.076-23.428 1.385-47.186-5.025-70.615-9.073-33.165-27.481-64.058-53.235-89.34-25.614-25.145-57.638-44.372-95.333-57.263zm-189.72 249.09c-7.602-2.6-15.737-6.603-24.101-13.386-27.085-21.173-46.094-46.331-42.379-56.087 2.598-7.68 7.325-9.272 15.158-11.91 11.661-3.928 31.179-10.502 60.81-44.41 10.91-11.497 19.015-29.14 27.597-47.82 11.568-25.18 23.529-51.22 44.208-68.147 23.619-19.337 54.758-22.757 95.196-10.458 43.224 12.717 79.542 33.3 107.945 61.183 25.644 25.175 43.972 55.927 53.001 88.933 6.372 23.29 8.053 46.901 4.998 70.179-3.07 23.381-10.758 45.172-22.853 64.766-10.763 17.146-26.923 29.412-48.025 36.453-18.174 6.063-39.689 8.205-63.947 6.367-20.446-1.55-42.315-5.951-63.244-12.729-18.181-5.887-34.906-13.426-45.881-20.68-39.357-25.961-41.232-26.568-64.167-33.965l-1.985-.641c-3.965-1.298-8.417-2.125-13.131-3.001-5.802-1.077-12.28-2.28-19.2-4.647z" fill="silver"/></g><mask id="xe" style="mask-type:alpha" maskUnits="userSpaceOnUse" x="105" y="-84" width="371" height="300"><path d="M339.175-73.765a274.15 274.15 0 00-7.027-2.297c-78.587-25.743-103.247 20.657-125.005 61.596-8.639 16.254-16.798 31.607-27.71 41.54-27.34 27.967-45.109 34.104-56.867 38.165-8.417 2.908-13.497 4.662-16.344 12.65-2.035 4.972.094 13.63 5.85 23.734 6.112 10.728 15.56 21.825 26.603 31.246 14.421 13.024 27.546 16.353 39.127 19.29 3.072.78 5.974 1.516 8.736 2.398l.002.001c4.166 1.305 7.827 2.35 11.057 3.272 14.918 4.259 23.922 6.83 53.892 25.914 19.102 12.2 58.188 27.007 98.86 30.686 22.015 1.991 41.548.429 58.057-4.643 19.294-5.928 34.12-16.612 44.067-31.755 11.143-17.391 18.372-36.796 21.489-57.68 3.104-20.793 1.964-41.911-3.387-62.769-7.463-29.087-23.055-56.29-45.092-78.667-22.844-23.196-51.854-40.898-86.308-52.681zm-173.568 221.47c-8.205-2.806-17.025-7.141-26.389-15.597-23.726-20.242-36.034-44.66-32.245-53.919 2.688-7.541 7.608-9.24 15.76-12.056 11.836-4.088 29.722-10.266 57.196-38.372 11.024-10.032 19.225-25.465 27.909-41.804 11.02-20.734 22.414-42.174 40.935-55.516 21.07-15.18 48.246-17.011 83.081-5.6 37.444 11.69 68.749 30.127 93.046 54.8 21.937 22.275 37.457 49.345 44.881 78.283 5.318 20.727 6.451 41.709 3.369 62.362-3.094 20.728-10.268 39.987-21.323 57.241-12.766 19.434-40.711 41.454-101.332 35.97-40.558-3.669-79.516-18.424-98.55-30.58-30.057-19.138-39.097-21.72-54.075-25.996-3.225-.921-6.881-1.965-11.038-3.267-2.782-.888-5.694-1.627-8.777-2.409-3.97-1.007-8.124-2.061-12.448-3.54z" fill="url(#xpaint4_linear_22_3690)"/></mask><g mask="url(#xe)"><path d="M339.175-73.765a274.15 274.15 0 00-7.027-2.297c-78.587-25.743-103.247 20.657-125.005 61.596-8.639 16.254-16.798 31.607-27.71 41.54-27.34 27.967-45.109 34.104-56.867 38.165-8.417 2.908-13.497 4.662-16.344 12.65-2.035 4.972.094 13.63 5.85 23.734 6.112 10.728 15.56 21.825 26.603 31.246 14.421 13.024 27.546 16.353 39.127 19.29 3.072.78 5.974 1.516 8.736 2.398l.002.001c4.166 1.305 7.827 2.35 11.057 3.272 14.918 4.259 23.922 6.83 53.892 25.914 19.102 12.2 58.188 27.007 98.86 30.686 22.015 1.991 41.548.429 58.057-4.643 19.294-5.928 34.12-16.612 44.067-31.755 11.143-17.391 18.372-36.796 21.489-57.68 3.104-20.793 1.964-41.911-3.387-62.769-7.463-29.087-23.055-56.29-45.092-78.667-22.844-23.196-51.854-40.898-86.308-52.681zm-173.568 221.47c-8.205-2.806-17.025-7.141-26.389-15.597-23.726-20.242-36.034-44.66-32.245-53.919 2.688-7.541 7.608-9.24 15.76-12.056 11.836-4.088 29.722-10.266 57.196-38.372 11.024-10.032 19.225-25.465 27.909-41.804 11.02-20.734 22.414-42.174 40.935-55.516 21.07-15.18 48.246-17.011 83.081-5.6 37.444 11.69 68.749 30.127 93.046 54.8 21.937 22.275 37.457 49.345 44.881 78.283 5.318 20.727 6.451 41.709 3.369 62.362-3.094 20.728-10.268 39.987-21.323 57.241-12.766 19.434-40.711 41.454-101.332 35.97-40.558-3.669-79.516-18.424-98.55-30.58-30.057-19.138-39.097-21.72-54.075-25.996-3.225-.921-6.881-1.965-11.038-3.267-2.782-.888-5.694-1.627-8.777-2.409-3.97-1.007-8.124-2.061-12.448-3.54z" fill="silver"/></g><mask id="xf" style="mask-type:alpha" maskUnits="userSpaceOnUse" x="126" y="-59" width="329" height="261"><path d="M333.115-51.983c-28.349-9.695-50.994-9.063-69.156 1.915-16.521 9.985-27.362 27.005-37.847 43.464-8.736 13.715-16.988 26.67-28.027 35.063-25.006 22.248-41.85 28.153-52.996 32.06-8.893 3.118-14.261 5-17.224 12.86-4.554 10.4 3.992 35.171 22.263 52.721 13.794 14.43 25.96 18.18 37.726 21.805l1.336.413c5.682 1.714 10.565 2.786 15.287 3.824 12.658 2.779 24.613 5.406 48.641 20.031 17.492 10.69 52.566 23.963 88.239 27.84 30.066 3.268 70.332.805 91.418-29.492 20.214-30.071 26.866-68.372 18.255-105.09-5.865-25.007-18.654-48.514-36.984-67.979-20.04-21.28-46.047-37.486-77.308-48.177a346.75 346.75 0 00-1.112-.378c-.842-.302-1.679-.595-2.511-.88zM181.065 144.82c-9.521-3.256-19.449-7.928-30.405-19.389-19.531-18.762-26.04-42.786-22.112-51.756 2.816-7.467 8.041-9.299 16.698-12.334 11.205-3.928 28.138-9.864 53.243-32.201 11.142-8.47 19.439-21.495 28.223-35.285 10.425-16.368 21.206-33.293 37.55-43.17 18.496-11.18 41.736-11.489 71.078-.961.369.124.742.25 1.109.376 31.17 10.66 57.084 26.806 77.05 48.009 18.24 19.368 30.964 42.751 36.797 67.62 4.262 18.175 4.842 36.536 1.722 54.574-3.127 18.084-9.797 34.817-19.824 49.734-20.844 29.949-60.824 32.367-90.692 29.12-35.577-3.867-70.542-17.096-87.975-27.751-24.12-14.681-36.126-17.318-48.836-20.109-4.711-1.035-9.581-2.105-15.24-3.812l-1.333-.411c-2.332-.719-4.68-1.443-7.053-2.254z" fill="url(#xpaint5_linear_22_3690)"/></mask><g mask="url(#xf)"><path d="M333.115-51.983c-28.349-9.695-50.994-9.063-69.156 1.915-16.521 9.985-27.362 27.005-37.847 43.464-8.736 13.715-16.988 26.67-28.027 35.063-25.006 22.248-41.85 28.153-52.996 32.06-8.893 3.118-14.261 5-17.224 12.86-4.554 10.4 3.992 35.171 22.263 52.721 13.794 14.43 25.96 18.18 37.726 21.805l1.336.413c5.682 1.714 10.565 2.786 15.287 3.824 12.658 2.779 24.613 5.406 48.641 20.031 17.492 10.69 52.566 23.963 88.239 27.84 30.066 3.268 70.332.805 91.418-29.492 20.214-30.071 26.866-68.372 18.255-105.09-5.865-25.007-18.654-48.514-36.984-67.979-20.04-21.28-46.047-37.486-77.308-48.177a346.75 346.75 0 00-1.112-.378c-.842-.302-1.679-.595-2.511-.88zM181.065 144.82c-9.521-3.256-19.449-7.928-30.405-19.389-19.531-18.762-26.04-42.786-22.112-51.756 2.816-7.467 8.041-9.299 16.698-12.334 11.205-3.928 28.138-9.864 53.243-32.201 11.142-8.47 19.439-21.495 28.223-35.285 10.425-16.368 21.206-33.293 37.55-43.17 18.496-11.18 41.736-11.489 71.078-.961.369.124.742.25 1.109.376 31.17 10.66 57.084 26.806 77.05 48.009 18.24 19.368 30.964 42.751 36.797 67.62 4.262 18.175 4.842 36.536 1.722 54.574-3.127 18.084-9.797 34.817-19.824 49.734-20.844 29.949-60.824 32.367-90.692 29.12-35.577-3.867-70.542-17.096-87.975-27.751-24.12-14.681-36.126-17.318-48.836-20.109-4.711-1.035-9.581-2.105-15.24-3.812l-1.333-.411c-2.332-.719-4.68-1.443-7.053-2.254z" fill="silver"/></g><mask id="xg" style="mask-type:alpha" maskUnits="userSpaceOnUse" x="147" y="-35" width="287" height="223"><path d="M331.619-28.938c-20.734-7.092-37.891-7.274-52.271-.594-14.317 6.65-24.503 19.262-34.354 31.46-8.416 10.42-17.119 21.196-28.257 27.92-22.313 16.574-38.082 22.085-48.517 25.731-9.707 3.392-15.567 5.44-18.713 13.289-4.55 9.751-2.119 34.275 12.07 50.456 9.623 12.498 18.677 19.305 30.261 22.753l.002.001c6.169 1.776 11.755 2.591 17.669 3.454 12.498 1.823 25.423 3.708 45.238 15.069 15.981 9.215 47.087 20.967 77.616 24.995 26.456 3.491 61.934 2.406 80.712-22.587 18.233-25.439 24.969-58.167 18.489-89.8-4.288-20.925-14.292-40.728-28.931-57.27-16.193-18.296-37.568-32.454-63.531-42.081a146.645 146.645 0 00-7.483-2.796zm-141.589 169.6c-10.494-3.589-18.951-10.248-27.926-21.903-14-15.966-16.444-40.038-11.982-49.602 3.009-7.506 8.42-9.396 18.24-12.828 10.476-3.66 26.308-9.193 48.682-25.815 11.228-6.776 19.977-17.61 28.439-28.087 9.791-12.124 19.917-24.66 34.071-31.235 15.905-7.389 35.289-6.27 59.269 3.413 25.878 9.596 47.172 23.698 63.298 41.919 14.559 16.45 24.507 36.137 28.767 56.934 6.431 31.39-.248 63.86-18.326 89.084-18.551 24.69-53.773 25.741-80.053 22.273-30.45-4.018-61.468-15.736-77.402-24.922-19.912-11.417-32.891-13.31-45.444-15.141-5.893-.86-11.46-1.672-17.592-3.437a54.01 54.01 0 01-2.041-.653z" fill="url(#xpaint6_linear_22_3690)"/></mask><g mask="url(#xg)"><path d="M331.619-28.938c-20.734-7.092-37.891-7.274-52.271-.594-14.317 6.65-24.503 19.262-34.354 31.46-8.416 10.42-17.119 21.196-28.257 27.92-22.313 16.574-38.082 22.085-48.517 25.731-9.707 3.392-15.567 5.44-18.713 13.289-4.55 9.751-2.119 34.275 12.07 50.456 9.623 12.498 18.677 19.305 30.261 22.753l.002.001c6.169 1.776 11.755 2.591 17.669 3.454 12.498 1.823 25.423 3.708 45.238 15.069 15.981 9.215 47.087 20.967 77.616 24.995 26.456 3.491 61.934 2.406 80.712-22.587 18.233-25.439 24.969-58.167 18.489-89.8-4.288-20.925-14.292-40.728-28.931-57.27-16.193-18.296-37.568-32.454-63.531-42.081a146.645 146.645 0 00-7.483-2.796zm-141.589 169.6c-10.494-3.589-18.951-10.248-27.926-21.903-14-15.966-16.444-40.038-11.982-49.602 3.009-7.506 8.42-9.396 18.24-12.828 10.476-3.66 26.308-9.193 48.682-25.815 11.228-6.776 19.977-17.61 28.439-28.087 9.791-12.124 19.917-24.66 34.071-31.235 15.905-7.389 35.289-6.27 59.269 3.413 25.878 9.596 47.172 23.698 63.298 41.919 14.559 16.45 24.507 36.137 28.767 56.934 6.431 31.39-.248 63.86-18.326 89.084-18.551 24.69-53.773 25.741-80.053 22.273-30.45-4.018-61.468-15.736-77.402-24.922-19.912-11.417-32.891-13.31-45.444-15.141-5.893-.86-11.46-1.672-17.592-3.437a54.01 54.01 0 01-2.041-.653z" fill="silver"/></g><mask id="xh" style="mask-type:alpha" maskUnits="userSpaceOnUse" x="166" y="-11" width="248" height="185"><path d="M329.953-6.36c-33.405-11.425-49.521 2.784-66.479 17.734-8.364 7.373-17.012 14.998-28.084 19.87-18.933 10.98-32.717 15.615-42.781 18.999-11.609 3.903-18.004 6.054-21.46 14.115-2.618 5.285-4.313 13.888-4.414 22.432-.123 10.326 2.11 19.471 6.287 25.75 6.167 11.497 11.673 20.529 21.466 23.298h.002c6.199 1.682 12.605 2.15 19.388 2.645 12.243.893 26.119 1.906 42.499 10.547 11.329 6.023 38.189 17.465 66.992 22.149 14.985 2.437 28.252 2.656 39.434.651 13.208-2.368 23.494-7.863 30.569-16.33 16.328-20.818 23.204-48.012 18.872-74.62-2.743-16.84-9.995-32.93-20.973-46.53-12.139-15.041-28.521-26.995-48.689-35.53-4.472-2.114-8.672-3.827-12.629-5.18zM193.624 134.813c-8.929-3.054-14.188-11.741-20.074-22.711-9.548-14.356-6.278-38.527-1.852-47.465 3.327-7.76 9.616-9.875 21.033-13.714 10.09-3.392 23.908-8.038 42.866-19.035 11.135-4.899 19.825-12.56 28.229-19.968 9.582-8.447 18.632-16.425 30.626-19.919 13.517-3.937 28.721-1.558 47.852 7.484 20.095 8.505 36.406 20.405 48.487 35.372 10.908 13.514 18.113 29.496 20.836 46.218 4.296 26.384-2.519 53.346-18.696 73.973-6.958 8.325-17.11 13.739-30.166 16.079-11.119 1.994-24.324 1.774-39.248-.652-28.735-4.673-55.529-16.087-66.83-22.095-16.477-8.693-30.413-9.71-42.708-10.607-6.756-.493-13.138-.959-19.287-2.627a22.493 22.493 0 01-1.068-.333z" fill="url(#xpaint7_linear_22_3690)"/></mask><g mask="url(#xh)"><path d="M329.953-6.36c-33.405-11.425-49.521 2.784-66.479 17.734-8.364 7.373-17.012 14.998-28.084 19.87-18.933 10.98-32.717 15.615-42.781 18.999-11.609 3.903-18.004 6.054-21.46 14.115-2.618 5.285-4.313 13.888-4.414 22.432-.123 10.326 2.11 19.471 6.287 25.75 6.167 11.497 11.673 20.529 21.466 23.298h.002c6.199 1.682 12.605 2.15 19.388 2.645 12.243.893 26.119 1.906 42.499 10.547 11.329 6.023 38.189 17.465 66.992 22.149 14.985 2.437 28.252 2.656 39.434.651 13.208-2.368 23.494-7.863 30.569-16.33 16.328-20.818 23.204-48.012 18.872-74.62-2.743-16.84-9.995-32.93-20.973-46.53-12.139-15.041-28.521-26.995-48.689-35.53-4.472-2.114-8.672-3.827-12.629-5.18zM193.624 134.813c-8.929-3.054-14.188-11.741-20.074-22.711-9.548-14.356-6.278-38.527-1.852-47.465 3.327-7.76 9.616-9.875 21.033-13.714 10.09-3.392 23.908-8.038 42.866-19.035 11.135-4.899 19.825-12.56 28.229-19.968 9.582-8.447 18.632-16.425 30.626-19.919 13.517-3.937 28.721-1.558 47.852 7.484 20.095 8.505 36.406 20.405 48.487 35.372 10.908 13.514 18.113 29.496 20.836 46.218 4.296 26.384-2.519 53.346-18.696 73.973-6.958 8.325-17.11 13.739-30.166 16.079-11.119 1.994-24.324 1.774-39.248-.652-28.735-4.673-55.529-16.087-66.83-22.095-16.477-8.693-30.413-9.71-42.708-10.607-6.756-.493-13.138-.959-19.287-2.627a22.493 22.493 0 01-1.068-.333z" fill="silver"/></g><mask id="xi" style="mask-type:alpha" maskUnits="userSpaceOnUse" x="183" y="12" width="211" height="148"><path d="M328.021 15.19c-20.176-6.9-32.719-.678-47.756 6.781-7.851 3.893-15.967 7.92-26.224 10.676-13.972 5.567-24.937 8.827-33.748 11.445-15.117 4.494-23.445 6.969-27.502 15.757-5.043 9.624-12.943 33.75-8.334 45.864.21.895.414 1.797.619 2.699 2.141 9.419 4.358 19.158 12.062 21.186l.003.001c6.018 1.51 13.287 1.535 20.983 1.562 12.452.043 26.565.091 39.885 6.298 14.396 6.777 87.631 39.136 115.657 10.535 14.569-16.2 21.694-37.925 19.558-59.616-1.275-12.942-5.714-24.973-13.195-35.758-8.152-11.754-19.579-21.456-33.965-28.836-6.689-3.957-12.641-6.746-18.043-8.593zM196.627 128.77c-6.866-2.348-8.97-11.608-11.007-20.573-.207-.91-.413-1.82-.625-2.724l-.012-.041c-4.549-11.904 3.289-35.77 8.291-45.316 3.934-8.52 12.166-10.967 27.11-15.409 8.821-2.622 19.8-5.885 33.764-11.452 10.28-2.76 18.422-6.799 26.297-10.705 18.923-9.385 33.871-16.798 65.336 1.812 14.325 7.35 25.691 16.997 33.795 28.68 7.422 10.703 11.827 22.635 13.09 35.467 2.117 21.487-4.941 43.006-19.361 59.041-11.167 11.395-30.946 14.287-58.78 8.585-24.499-5.019-47.506-15.146-56.26-19.268-13.414-6.249-27.583-6.299-40.084-6.343-7.666-.026-14.907-.051-20.869-1.548-.233-.061-.461-.13-.685-.206z" fill="url(#xpaint8_linear_22_3690)"/></mask><g mask="url(#xi)"><path d="M328.021 15.19c-20.176-6.9-32.719-.678-47.756 6.781-7.851 3.893-15.967 7.92-26.224 10.676-13.972 5.567-24.937 8.827-33.748 11.445-15.117 4.494-23.445 6.969-27.502 15.757-5.043 9.624-12.943 33.75-8.334 45.864.21.895.414 1.797.619 2.699 2.141 9.419 4.358 19.158 12.062 21.186l.003.001c6.018 1.51 13.287 1.535 20.983 1.562 12.452.043 26.565.091 39.885 6.298 14.396 6.777 87.631 39.136 115.657 10.535 14.569-16.2 21.694-37.925 19.558-59.616-1.275-12.942-5.714-24.973-13.195-35.758-8.152-11.754-19.579-21.456-33.965-28.836-6.689-3.957-12.641-6.746-18.043-8.593zM196.627 128.77c-6.866-2.348-8.97-11.608-11.007-20.573-.207-.91-.413-1.82-.625-2.724l-.012-.041c-4.549-11.904 3.289-35.77 8.291-45.316 3.934-8.52 12.166-10.967 27.11-15.409 8.821-2.622 19.8-5.885 33.764-11.452 10.28-2.76 18.422-6.799 26.297-10.705 18.923-9.385 33.871-16.798 65.336 1.812 14.325 7.35 25.691 16.997 33.795 28.68 7.422 10.703 11.827 22.635 13.09 35.467 2.117 21.487-4.941 43.006-19.361 59.041-11.167 11.395-30.946 14.287-58.78 8.585-24.499-5.019-47.506-15.146-56.26-19.268-13.414-6.249-27.583-6.299-40.084-6.343-7.666-.026-14.907-.051-20.869-1.548-.233-.061-.461-.13-.685-.206z" fill="silver"/></g><mask id="xj" style="mask-type:alpha" maskUnits="userSpaceOnUse" x="194" y="30" width="181" height="117"><path d="M325.049 33.718c-11.93-4.08-23.05-2.833-38.423-1.108-4.369.49-8.886.997-13.939 1.449-3.764.733-7.286 1.406-10.602 2.039-28.858 5.51-42.029 8.026-47.652 19.242-4.529 8.194-18.322 33.151-18.511 43.514-1.823 10.556-3.014 22.87 3.867 24.504l.002.001c5.758 1.296 14.081.777 22.894.228 12.427-.775 26.511-1.651 36.958 2.302 1.984.762 4.345 1.716 7.077 2.82 11.197 4.526 28.116 11.364 44.598 15.104 19.72 4.476 34.064 3.358 42.633-3.322 12.935-11.361 20.776-28.131 20.987-44.87.233-18.56-8.781-35.204-25.384-46.866-9.303-7.872-17.062-12.492-24.505-15.038zm-125.614 88.946c-5.956-2.037-4.761-13.726-3.024-23.78l.005-.05c.165-10.184 13.916-35.066 18.435-43.242 5.497-10.964 18.587-13.464 47.268-18.94 3.317-.634 6.84-1.307 10.581-2.037 5.035-.448 9.555-.956 13.926-1.446 24.848-2.787 38.534-4.323 62.624 16.06 16.483 11.578 25.425 28.067 25.193 46.44-.208 16.556-7.968 33.147-20.757 44.38-8.433 6.573-22.644 7.658-42.226 3.213-16.45-3.734-33.35-10.564-44.534-15.084-2.735-1.105-5.096-2.06-7.085-2.823-10.535-3.987-24.664-3.106-37.135-2.329-8.779.547-17.072 1.064-22.772-.218a5.545 5.545 0 01-.499-.144z" fill="url(#xpaint9_linear_22_3690)"/></mask><g mask="url(#xj)"><path d="M325.049 33.718c-11.93-4.08-23.05-2.833-38.423-1.108-4.369.49-8.886.997-13.939 1.449-3.764.733-7.286 1.406-10.602 2.039-28.858 5.51-42.029 8.026-47.652 19.242-4.529 8.194-18.322 33.151-18.511 43.514-1.823 10.556-3.014 22.87 3.867 24.504l.002.001c5.758 1.296 14.081.777 22.894.228 12.427-.775 26.511-1.651 36.958 2.302 1.984.762 4.345 1.716 7.077 2.82 11.197 4.526 28.116 11.364 44.598 15.104 19.72 4.476 34.064 3.358 42.633-3.322 12.935-11.361 20.776-28.131 20.987-44.87.233-18.56-8.781-35.204-25.384-46.866-9.303-7.872-17.062-12.492-24.505-15.038zm-125.614 88.946c-5.956-2.037-4.761-13.726-3.024-23.78l.005-.05c.165-10.184 13.916-35.066 18.435-43.242 5.497-10.964 18.587-13.464 47.268-18.94 3.317-.634 6.84-1.307 10.581-2.037 5.035-.448 9.555-.956 13.926-1.446 24.848-2.787 38.534-4.323 62.624 16.06 16.483 11.578 25.425 28.067 25.193 46.44-.208 16.556-7.968 33.147-20.757 44.38-8.433 6.573-22.644 7.658-42.226 3.213-16.45-3.734-33.35-10.564-44.534-15.084-2.735-1.105-5.096-2.06-7.085-2.823-10.535-3.987-24.664-3.106-37.135-2.329-8.779.547-17.072 1.064-22.772-.218a5.545 5.545 0 01-.499-.144z" fill="silver"/></g><mask id="xk" style="mask-type:alpha" maskUnits="userSpaceOnUse" x="199" y="35" width="161" height="100"><path d="M315.048 40.34c-6.938-2.373-14.805-3.98-23.723-4.861-32.199-1.118-48.718 3.474-55.25 15.354-3.141 5.402-10.338 15.358-16.689 24.142-5.028 6.956-9.778 13.526-11.943 17.03-2.155 2.873-4.349 7.17-5.853 11.473-1.648 4.714-2.213 8.632-1.59 11.033.384 1.482 1.206 2.358 2.441 2.608h.001c5.541 1.06 15.433-.18 25.906-1.494 12.444-1.561 25.312-3.175 32.935-1.307 4.141 1.035 10.366 3.622 17.575 6.618 17.892 7.437 42.399 17.624 55.361 12.052 12.038-6.207 21.453-17.727 24.586-30.071 2.632-10.37.646-20.455-5.743-29.164-6.63-11.817-13.85-20.08-22.707-25.98-4.517-3.01-9.597-5.48-15.307-7.433zm-112.843 76.205c-.889-.304-1.491-1.046-1.793-2.213-1.269-4.898 2.986-16.22 7.36-22.054 2.168-3.508 6.912-10.07 11.934-17.017 6.359-8.794 13.565-18.762 16.723-24.194 6.432-11.699 22.828-16.214 54.829-15.103 16.184 1.6 28.897 5.601 38.854 12.235 8.804 5.865 15.984 14.084 22.596 25.865 6.316 8.612 8.277 18.55 5.686 28.762-3.095 12.194-12.408 23.58-24.305 29.716-12.795 5.499-37.216-4.653-55.05-12.065-7.222-3.001-13.458-5.594-17.627-6.635-7.688-1.884-20.591-.266-33.069 1.299-10.443 1.31-20.307 2.547-25.79 1.498a2.962 2.962 0 01-.348-.094z" fill="url(#xpaint10_linear_22_3690)"/></mask><g mask="url(#xk)"><path d="M315.048 40.34c-6.938-2.373-14.805-3.98-23.723-4.861-32.199-1.118-48.718 3.474-55.25 15.354-3.141 5.402-10.338 15.358-16.689 24.142-5.028 6.956-9.778 13.526-11.943 17.03-2.155 2.873-4.349 7.17-5.853 11.473-1.648 4.714-2.213 8.632-1.59 11.033.384 1.482 1.206 2.358 2.441 2.608h.001c5.541 1.06 15.433-.18 25.906-1.494 12.444-1.561 25.312-3.175 32.935-1.307 4.141 1.035 10.366 3.622 17.575 6.618 17.892 7.437 42.399 17.624 55.361 12.052 12.038-6.207 21.453-17.727 24.586-30.071 2.632-10.37.646-20.455-5.743-29.164-6.63-11.817-13.85-20.08-22.707-25.98-4.517-3.01-9.597-5.48-15.307-7.433zm-112.843 76.205c-.889-.304-1.491-1.046-1.793-2.213-1.269-4.898 2.986-16.22 7.36-22.054 2.168-3.508 6.912-10.07 11.934-17.017 6.359-8.794 13.565-18.762 16.723-24.194 6.432-11.699 22.828-16.214 54.829-15.103 16.184 1.6 28.897 5.601 38.854 12.235 8.804 5.865 15.984 14.084 22.596 25.865 6.316 8.612 8.277 18.55 5.686 28.762-3.095 12.194-12.408 23.58-24.305 29.716-12.795 5.499-37.216-4.653-55.05-12.065-7.222-3.001-13.458-5.594-17.627-6.635-7.688-1.884-20.591-.266-33.069 1.299-10.443 1.31-20.307 2.547-25.79 1.498a2.962 2.962 0 01-.348-.094z" fill="silver"/></g><mask id="xl" style="mask-type:alpha" maskUnits="userSpaceOnUse" x="203" y="32" width="155" height="94"><path d="M312.576 37.742a66.938 66.938 0 00-2.627-.838c-14.359-4.255-26.375-5.117-35.714-2.56-7.332 2.008-12.89 6.04-16.518 11.984-5.941 9.733-29.107 33-38.731 38.9-3.586 2.197-7.513 6.523-10.773 11.869-2.95 4.836-4.721 9.527-4.511 11.952.093 1.078.576 1.711 1.39 1.83 5.703.831 19.586-1.807 33.011-4.358 10.41-1.978 20.243-3.846 24.829-3.776 5.201.079 14.375 5.167 24.086 10.554 10.004 5.549 20.349 11.288 27.44 12.165 7.418.918 16.961-1.221 24.906-5.582 9.286-5.097 15.389-12.559 17.185-21.011 2.102-9.891-1.399-22.813-9.366-34.566-8.427-12.434-20.641-21.787-34.607-26.563zm-107.65 72.669c-.511-.175-.794-.649-.863-1.442-.407-4.698 7.181-18.548 15.07-23.384 9.659-5.92 32.911-29.275 38.875-39.046 3.569-5.846 9.046-9.814 16.278-11.794 9.28-2.541 21.237-1.68 35.54 2.558 14.987 4.44 28.152 14.127 37.062 27.272 7.788 11.49 11.355 24.61 9.309 34.237-1.767 8.315-7.792 15.667-16.964 20.702-7.883 4.328-17.348 6.45-24.701 5.541-7.032-.871-17.351-6.594-27.33-12.13-9.745-5.406-18.95-10.512-24.23-10.592-4.618-.071-14.467 1.801-24.894 3.782-13.399 2.546-27.254 5.179-32.905 4.355a1.332 1.332 0 01-.247-.059z" fill="url(#xpaint11_linear_22_3690)"/></mask><g mask="url(#xl)"><path d="M312.576 37.742a66.938 66.938 0 00-2.627-.838c-14.359-4.255-26.375-5.117-35.714-2.56-7.332 2.008-12.89 6.04-16.518 11.984-5.941 9.733-29.107 33-38.731 38.9-3.586 2.197-7.513 6.523-10.773 11.869-2.95 4.836-4.721 9.527-4.511 11.952.093 1.078.576 1.711 1.39 1.83 5.703.831 19.586-1.807 33.011-4.358 10.41-1.978 20.243-3.846 24.829-3.776 5.201.079 14.375 5.167 24.086 10.554 10.004 5.549 20.349 11.288 27.44 12.165 7.418.918 16.961-1.221 24.906-5.582 9.286-5.097 15.389-12.559 17.185-21.011 2.102-9.891-1.399-22.813-9.366-34.566-8.427-12.434-20.641-21.787-34.607-26.563zm-107.65 72.669c-.511-.175-.794-.649-.863-1.442-.407-4.698 7.181-18.548 15.07-23.384 9.659-5.92 32.911-29.275 38.875-39.046 3.569-5.846 9.046-9.814 16.278-11.794 9.28-2.541 21.237-1.68 35.54 2.558 14.987 4.44 28.152 14.127 37.062 27.272 7.788 11.49 11.355 24.61 9.309 34.237-1.767 8.315-7.792 15.667-16.964 20.702-7.883 4.328-17.348 6.45-24.701 5.541-7.032-.871-17.351-6.594-27.33-12.13-9.745-5.406-18.95-10.512-24.23-10.592-4.618-.071-14.467 1.801-24.894 3.782-13.399 2.546-27.254 5.179-32.905 4.355a1.332 1.332 0 01-.247-.059z" fill="silver"/></g></g><defs><linearGradient id="xpaint0_linear_22_3690" x1="67.256" y1="-43.335" x2="563.337" y2="126.316" gradientUnits="userSpaceOnUse"><stop stop-color="#fff"/><stop offset=".044" stop-color="#B4B4B4"/><stop offset=".151"/><stop offset=".171" stop-color="#171717"/><stop offset=".386" stop-color="#fff"/><stop offset=".633" stop-color="#E6E6E6"/><stop offset=".857" stop-color="#1A1A1A"/><stop offset=".999"/></linearGradient><linearGradient id="xpaint1_linear_22_3690" x1="83.53" y1="-32.106" x2="541.688" y2="124.576" gradientUnits="userSpaceOnUse"><stop stop-color="#fff"/><stop offset=".044" stop-color="#B4B4B4"/><stop offset=".151"/><stop offset=".171" stop-color="#171717"/><stop offset=".386" stop-color="#fff"/><stop offset=".633" stop-color="#E6E6E6"/><stop offset=".857" stop-color="#1A1A1A"/><stop offset=".999"/></linearGradient><linearGradient id="xpaint2_linear_22_3690" x1="99.803" y1="-20.897" x2="520.066" y2="122.825" gradientUnits="userSpaceOnUse"><stop stop-color="#fff"/><stop offset=".044" stop-color="#B4B4B4"/><stop offset=".151"/><stop offset=".171" stop-color="#171717"/><stop offset=".386" stop-color="#fff"/><stop offset=".633" stop-color="#E6E6E6"/><stop offset=".857" stop-color="#1A1A1A"/><stop offset=".999"/></linearGradient><linearGradient id="xpaint3_linear_22_3690" x1="116.078" y1="-9.712" x2="498.485" y2="121.065" gradientUnits="userSpaceOnUse"><stop stop-color="#fff"/><stop offset=".044" stop-color="#B4B4B4"/><stop offset=".151"/><stop offset=".171" stop-color="#171717"/><stop offset=".386" stop-color="#fff"/><stop offset=".633" stop-color="#E6E6E6"/><stop offset=".857" stop-color="#1A1A1A"/><stop offset=".999"/></linearGradient><linearGradient id="xpaint4_linear_22_3690" x1="132.344" y1="1.459" x2="476.951" y2="119.309" gradientUnits="userSpaceOnUse"><stop stop-color="#fff"/><stop offset=".044" stop-color="#B4B4B4"/><stop offset=".151"/><stop offset=".171" stop-color="#171717"/><stop offset=".386" stop-color="#fff"/><stop offset=".633" stop-color="#E6E6E6"/><stop offset=".857" stop-color="#1A1A1A"/><stop offset=".999"/></linearGradient><linearGradient id="xpaint5_linear_22_3690" x1="148.627" y1="12.546" x2="455.476" y2="117.483" gradientUnits="userSpaceOnUse"><stop stop-color="#fff"/><stop offset=".044" stop-color="#B4B4B4"/><stop offset=".151"/><stop offset=".171" stop-color="#171717"/><stop offset=".386" stop-color="#fff"/><stop offset=".633" stop-color="#E6E6E6"/><stop offset=".857" stop-color="#1A1A1A"/><stop offset=".999"/></linearGradient><linearGradient id="xpaint6_linear_22_3690" x1="164.932" y1="23.491" x2="434.213" y2="115.58" gradientUnits="userSpaceOnUse"><stop stop-color="#fff"/><stop offset=".044" stop-color="#B4B4B4"/><stop offset=".151"/><stop offset=".171" stop-color="#171717"/><stop offset=".386" stop-color="#fff"/><stop offset=".633" stop-color="#E6E6E6"/><stop offset=".857" stop-color="#1A1A1A"/><stop offset=".999"/></linearGradient><linearGradient id="xpaint7_linear_22_3690" x1="180.345" y1="36.755" x2="412.354" y2="116.098" gradientUnits="userSpaceOnUse"><stop stop-color="#fff"/><stop offset=".044" stop-color="#B4B4B4"/><stop offset=".151"/><stop offset=".171" stop-color="#171717"/><stop offset=".386" stop-color="#fff"/><stop offset=".633" stop-color="#E6E6E6"/><stop offset=".857" stop-color="#1A1A1A"/><stop offset=".999"/></linearGradient><linearGradient id="xpaint8_linear_22_3690" x1="195.501" y1="49.469" x2="391.05" y2="116.343" gradientUnits="userSpaceOnUse"><stop stop-color="#fff"/><stop offset=".044" stop-color="#B4B4B4"/><stop offset=".151"/><stop offset=".171" stop-color="#171717"/><stop offset=".386" stop-color="#fff"/><stop offset=".633" stop-color="#E6E6E6"/><stop offset=".857" stop-color="#1A1A1A"/><stop offset=".999"/></linearGradient><linearGradient id="xpaint9_linear_22_3690" x1="208.119" y1="59.983" x2="371.091" y2="115.716" gradientUnits="userSpaceOnUse"><stop stop-color="#fff"/><stop offset=".044" stop-color="#B4B4B4"/><stop offset=".151"/><stop offset=".171" stop-color="#171717"/><stop offset=".386" stop-color="#fff"/><stop offset=".633" stop-color="#E6E6E6"/><stop offset=".857" stop-color="#1A1A1A"/><stop offset=".999"/></linearGradient><linearGradient id="xpaint10_linear_22_3690" x1="215.146" y1="63.834" x2="355.852" y2="111.953" gradientUnits="userSpaceOnUse"><stop stop-color="#fff"/><stop offset=".044" stop-color="#B4B4B4"/><stop offset=".151"/><stop offset=".171" stop-color="#171717"/><stop offset=".386" stop-color="#fff"/><stop offset=".633" stop-color="#E6E6E6"/><stop offset=".857" stop-color="#1A1A1A"/><stop offset=".999"/></linearGradient><linearGradient id="xpaint11_linear_22_3690" x1="219.499" y1="60.873" x2="354.007" y2="106.873" gradientUnits="userSpaceOnUse"><stop stop-color="#fff"/><stop offset=".044" stop-color="#B4B4B4"/><stop offset=".151"/><stop offset=".171" stop-color="#171717"/><stop offset=".386" stop-color="#fff"/><stop offset=".633" stop-color="#E6E6E6"/><stop offset=".857" stop-color="#1A1A1A"/><stop offset=".999"/></linearGradient></defs></svg>